<svg xmlns="http://www.w3.org/2000/svg" width="52" height="52" viewBox="0 0 52 52">
    <path fill="#1FC1C3" fill-rule="nonzero" d="M17.4 50.579a3.995 3.995 0 0 1-2.488-5.083 4.02 4.02 0 0 1 5.103-2.48 18.058 18.058 0 0 0 13.801-.842 17.95 17.95 0 0 0 9.163-10.316c3.25-9.398-1.764-19.638-11.198-22.873-9.434-3.235-19.715 1.76-22.964 11.158a18.21 18.21 0 0 0-.825 3.437 4.013 4.013 0 0 1-4.523 3.418 4 4 0 0 1-3.431-4.505 25.88 25.88 0 0 1 1.187-4.953C5.918 3.966 20.77-3.25 34.395 1.423 48.023 6.095 55.265 20.887 50.57 34.46a25.96 25.96 0 0 1-13.235 14.901A26.115 26.115 0 0 1 17.4 50.58z"/>
</svg>
