<?xml version="1.0" encoding="UTF-8"?>
<svg width="1500px" height="1440px" viewBox="0 0 1500 1440" version="1.1" xmlns="http://www.w3.org/2000/svg" xmlns:xlink="http://www.w3.org/1999/xlink">
    <!-- Generator: Sketch 62 (91390) - https://sketch.com -->
    <title>bg+gradiend-fading</title>
    <desc>Created with Sketch.</desc>
    <defs>
        <linearGradient x1="50%" y1="0%" x2="50%" y2="100%" id="linearGradient-1">
            <stop stop-color="#121327" stop-opacity="0" offset="0%"></stop>
            <stop stop-color="#121327" stop-opacity="0.664968297" offset="52.4679371%"></stop>
            <stop stop-color="#121327" offset="100%"></stop>
        </linearGradient>
        <linearGradient x1="50%" y1="100%" x2="50%" y2="3.061617e-15%" id="linearGradient-2">
            <stop stop-color="#121327" stop-opacity="0" offset="0%"></stop>
            <stop stop-color="#121327" stop-opacity="0.663241621" offset="53.7256142%"></stop>
            <stop stop-color="#121327" offset="100%"></stop>
        </linearGradient>
    </defs>
    <g id="Page-1" stroke="none" stroke-width="1" fill="none" fill-rule="evenodd" opacity="0.5">
        <g id="bg+gradiend-fading">
            <g id="rust-cogs" transform="translate(29.000000, 0.000000)" fill="#EB2256" fill-rule="nonzero">
                <g id="rust-bg" opacity="0.400000006" transform="translate(197.113679, 195.300000)">
                    <path d="M1039.57178,510.630396 L995.435724,483.391187 C994.667533,478.991007 994.667533,474.590827 993.969178,470.889089 L1031.47086,435.547962 C1035.17214,431.846223 1037.33705,426.747602 1035.8705,421.579137 C1035.10231,416.410671 1031.47086,412.010492 1026.30303,410.543765 L977.767333,392.17476 C976.300787,387.77458 975.532596,384.072842 974.06605,379.672662 L1004.235,337.766187 C1007.16809,333.366007 1007.93628,328.197542 1005.70155,323.029077 C1003.46681,317.860612 999.067172,314.927158 993.899342,314.228717 L943.128908,306.126799 C940.894171,302.42506 939.427624,298.793165 937.262723,294.323141 L958.562561,247.248201 C960.797298,242.848022 960.029107,236.981115 957.096015,232.511091 C954.162922,228.041067 948.995093,225.875899 943.827263,225.875899 L892.358473,227.342626 C889.425381,223.640887 887.190644,220.707434 884.257551,217.773981 L896.059757,167.765588 C897.526303,162.597122 896.059757,157.498501 892.358473,153.796763 C888.65719,150.095024 883.559196,148.628297 878.391366,150.095024 L828.389123,161.898681 C825.45603,158.965228 821.754747,156.730216 818.821655,153.796763 L820.288201,102.321643 C820.288201,97.1531775 818.053464,92.0545564 813.653825,89.051259 C809.254186,86.0479616 804.086357,85.3495204 798.918527,87.5845324 L751.849376,108.88699 C748.148093,106.651978 744.516645,104.486811 740.04717,103.020084 L731.946248,52.2434053 C731.178057,47.07494 727.54661,42.6747602 723.146971,40.4397482 C717.979141,38.2047362 712.881147,38.9730216 708.411673,41.9064748 L666.510351,72.0791367 C662.110713,70.6124101 658.409429,69.8441247 654.009791,68.3773981 L635.643045,19.8357314 C634.176498,14.6672662 629.77686,11.0353717 624.60903,10.2670863 C619.4412,9.49880096 614.343206,11.0353717 610.641923,14.6672662 L576.771688,52.9418465 C572.372049,52.1735612 567.972411,52.1735612 564.271127,51.4751199 L537.035269,7.33363309 C534.102176,2.93345324 529.702537,0 524.534708,0 C519.366878,0 514.268884,2.93345324 512.034147,7.33363309 L484.798288,51.4751199 C480.398649,51.4751199 475.99901,52.2434053 472.297727,52.9418465 L435.4944,15.4355516 C431.793116,11.7338129 426.695122,9.56864508 421.527293,11.0353717 C416.359463,11.8036571 411.959824,15.4355516 410.493278,20.6040168 L392.126532,69.1456835 C387.726893,70.6124101 384.02561,71.3806954 379.625971,72.8474221 L337.72465,42.6747602 C333.325011,39.741307 328.157182,38.9730216 322.989352,41.2080336 C317.821522,43.4430456 314.88843,47.8432254 314.190075,53.0116906 L306.089152,103.788369 C302.387869,106.023381 298.756421,107.490108 294.286947,109.655276 L247.217796,88.3528177 C242.818157,86.1178058 236.951972,86.8860911 232.482498,89.8195444 C228.082859,92.7529976 225.848122,97.9214628 225.848122,103.089928 L227.314668,154.565048 C223.613385,157.498501 220.680292,159.733513 217.7472,162.666966 L167.744956,150.863309 C162.577127,149.396583 157.479133,150.863309 153.777849,154.565048 C150.076566,158.266787 148.61002,163.365408 150.076566,168.533873 L161.878771,218.542266 C158.945679,221.475719 156.710942,225.177458 153.777849,228.110911 L102.30906,226.644185 C97.14123,226.644185 92.0432359,228.879197 89.0403078,233.279376 C86.1072154,237.679556 85.3390245,242.848022 87.5737616,248.016487 L108.8736,295.091427 C106.638863,298.793165 104.473961,302.42506 103.007415,306.895084 L52.2369806,314.997002 C47.069151,315.765288 42.6695122,319.397182 40.4347751,323.797362 C38.200038,328.965827 38.9682288,334.064448 41.9013213,338.534472 L72.0702727,380.440947 C70.6037265,384.841127 69.1371802,388.542866 68.3689893,392.943046 L19.8332921,411.31205 C14.6654625,412.778777 11.0340146,417.178957 10.2658237,422.347422 C9.49763284,427.515887 11.0340146,432.614508 14.6654625,436.316247 L52.935336,470.889089 C52.935336,475.289269 52.1671451,479.689448 51.4687897,483.391187 L7.33273123,510.630396 C2.93309249,513.563849 0,517.964029 0,523.132494 C0,528.300959 2.93309249,533.39958 7.33273123,535.634592 L51.4687897,562.873801 C52.2369806,568.042266 52.935336,572.442446 52.935336,576.842626 L15.4336534,612.183753 C11.73237,615.885492 9.56746837,620.984113 11.0340146,626.152578 C11.8022055,631.321043 15.4336534,635.721223 20.601483,637.18795 L69.1371802,655.556954 C70.6037265,659.957134 71.3719173,663.658873 72.8384636,668.059053 L42.6695122,709.965528 C39.7364197,714.365707 38.9682288,719.534173 41.202966,724.702638 C43.4377031,729.871103 47.8373419,732.804556 53.0051715,733.502998 L103.775606,741.604916 C106.010343,745.306655 107.476889,748.938549 109.641791,753.408573 L88.3419525,800.483513 C86.1072154,804.883693 86.8754062,810.7506 89.8084987,815.220624 C92.7415912,819.620803 97.9094209,821.855815 103.07725,821.855815 L154.54604,820.389089 C157.479133,824.090827 159.71387,827.024281 162.646962,829.957734 L150.844757,879.966127 C149.378211,885.134592 150.844757,890.233213 154.54604,893.934952 C158.247324,897.636691 163.345318,899.103417 168.513147,897.636691 L218.515391,885.833034 C221.448483,888.766487 225.149767,891.001499 228.082859,893.934952 L226.616313,945.410072 C226.616313,950.578537 228.85105,955.677158 233.250689,958.680456 C237.650328,961.613909 242.818157,962.382194 247.985987,960.147182 L295.055138,938.844724 C298.756421,941.079736 302.387869,943.244904 306.857343,944.711631 L314.958265,995.488309 C315.726456,1000.65677 319.357904,1005.05695 323.757543,1007.29197 C328.925373,1009.52698 334.023367,1008.75869 338.492841,1005.82524 L380.394162,975.652578 C384.793801,977.119305 388.495084,978.586031 392.894723,979.354317 L411.261469,1027.89598 C412.728015,1033.06445 417.127654,1036.69634 422.295484,1037.46463 C427.463313,1038.23291 432.561307,1036.69634 436.262591,1033.06445 L471.599372,995.558153 C475.99901,996.326439 480.398649,996.326439 484.099933,997.02488 L511.335791,1041.16637 C514.268884,1045.56655 518.668523,1048.5 523.836352,1048.5 C529.004182,1048.5 534.102176,1045.56655 536.336913,1041.16637 L563.572772,997.02488 C567.972411,996.256595 572.372049,996.256595 576.073333,995.558153 L611.410114,1033.06445 C615.111397,1036.76619 620.209391,1038.93135 625.377221,1037.46463 C630.545051,1036.69634 634.944689,1033.06445 636.411236,1027.89598 L654.777981,979.354317 C659.17762,977.88759 662.878904,977.119305 667.278542,975.652578 L709.179864,1005.82524 C713.579502,1008.75869 718.747332,1009.52698 723.915162,1007.29197 C729.082991,1005.05695 732.016084,1000.65677 732.714439,995.488309 L740.815361,944.711631 C744.516645,942.476619 748.148093,940.311451 752.617567,938.844724 L799.686718,960.147182 C804.086357,962.382194 809.952541,961.613909 814.422016,958.680456 C818.821655,955.747002 821.056392,950.578537 821.056392,945.410072 L819.589845,893.934952 C823.291129,891.001499 826.224221,888.766487 829.157314,885.833034 L879.159557,897.636691 C884.327387,899.103417 889.425381,897.636691 893.126664,893.934952 C896.827948,890.233213 898.294494,885.134592 896.827948,879.966127 L885.025742,829.957734 C887.958835,827.024281 890.193572,823.322542 893.126664,820.389089 L944.595454,821.855815 C949.763284,821.855815 954.861278,819.620803 957.864206,815.220624 C960.797298,810.820444 961.565489,805.651978 959.330752,800.483513 L938.030914,753.408573 C940.265651,749.706835 942.430552,746.07494 943.897099,741.604916 L994.667533,733.502998 C999.835363,732.734712 1004.235,729.102818 1006.46974,724.702638 C1008.70448,719.534173 1007.93628,714.435552 1005.00319,709.965528 L974.834241,668.059053 C976.300787,663.658873 977.068978,659.957134 978.535524,655.556954 L1027.07122,637.18795 C1032.23905,635.721223 1035.8705,631.321043 1036.63869,626.152578 C1037.40688,620.984113 1035.8705,615.885492 1032.23905,612.183753 L994.737369,576.842626 C995.505559,572.442446 995.505559,568.042266 996.203915,564.340528 L1040.33997,537.101319 C1044.73961,534.167866 1047.6727,529.767686 1047.6727,524.599221 C1047.6727,519.430755 1043.97142,513.563849 1039.57178,510.630396 Z M501.069968,101.553357 C513.570529,89.7497002 533.403821,89.7497002 545.206026,102.321643 C557.008232,114.823741 556.240041,134.659472 544.437835,146.463129 C531.937274,158.266787 512.103982,158.266787 500.301777,145.694844 C487.801216,133.192746 488.569407,113.357014 501.069968,101.553357 Z M122.980378,417.947242 C116.346002,402.511691 122.980378,384.072842 138.414031,376.739209 C153.847685,370.104017 172.284266,376.739209 179.616997,392.943046 C186.251373,408.378597 179.616997,426.817446 164.183344,434.151079 C148.679855,440.716427 130.313109,434.081235 122.980378,417.947242 Z M298.756421,873.330935 C281.856222,877.032674 265.654377,865.997302 261.953094,849.793465 C258.251811,832.891187 269.285825,816.68735 285.487669,812.985612 C302.387869,809.283873 318.589713,820.319245 322.290997,836.523082 C325.99228,853.495204 315.726456,870.397482 298.756421,873.330935 Z M782.786518,851.260192 C779.085235,868.16247 762.953226,878.4994 745.983191,874.797662 C729.082991,871.095923 718.747332,854.96193 722.448615,837.989808 C726.149899,821.017686 742.281908,810.7506 759.251943,814.452338 C775.453787,818.154077 786.487802,834.357914 782.786518,851.260192 Z M904.92887,548.904976 L904.92887,548.904976 C902.694133,573.909173 891.660118,614.418765 874.759918,658.560252 C860.792811,694.59982 845.359158,726.239209 831.392051,747.611511 L831.392051,747.611511 C830.62386,748.379796 830.62386,749.078237 829.925505,749.078237 C823.291129,759.345324 817.424944,766.748801 812.257114,771.148981 C807.089285,777.015887 801.2231,783.651079 796.05527,788.819544 L730.549538,774.850719 L730.549538,774.850719 C715.115884,771.917266 700.380586,781.485911 696.679303,796.921463 L681.245649,869.768885 C633.408308,891.839628 579.704781,903.643285 523.068161,903.643285 C465.663351,903.643285 411.261469,891.141187 361.957581,868.302158 L346.523927,795.454736 C343.590835,780.019185 328.157182,770.45054 312.653693,773.383993 L248.684342,787.352818 C241.351611,780.019185 233.949044,771.917266 227.384504,763.047062 C224.451411,760.113609 221.518319,756.411871 218.585226,752.011691 C217.817035,750.544964 216.350489,749.776679 215.652134,748.309952 L215.652134,748.309952 C206.084665,734.341127 194.352295,713.73711 182.55009,690.898082 C164.881699,656.32524 153.149329,624.685851 150.914592,609.948741 C144.280216,581.242806 140.648769,551.838429 140.648769,520.897482 C140.648769,506.928657 141.41696,492.959832 142.883506,479.689448 L209.855784,450.285072 C222.356345,444.418165 228.990721,430.449341 226.057629,417.178957 L198.123414,354.668465 L198.123414,354.668465 C198.123414,353.90018 197.355224,353.201739 197.355224,353.201739 C197.355224,352.433453 196.587033,351.735012 196.587033,351.735012 C196.587033,350.966727 195.818842,350.966727 195.818842,350.268285 C195.050651,348.033273 194.352295,345.868106 194.352295,343.633094 L194.352295,342.864808 L194.352295,342.864808 C194.352295,342.096523 194.352295,341.398082 194.352295,341.398082 C192.885749,334.76289 206.154501,310.526978 225.219602,283.28777 C229.619241,277.420863 234.01888,271.484113 238.488354,266.385492 L237.720163,266.385492 C239.9549,264.15048 241.421446,261.985312 243.586348,259.7503 C250.919079,251.648381 256.8551,245.013189 261.953094,241.381295 C313.421884,193.53807 378.927616,158.965228 450.997889,145.764688 L498.835231,195.773082 C509.869245,206.808453 527.537636,207.576739 538.57165,196.541367 L592.275177,145.066247 C704.08187,165.670264 798.988362,235.584233 854.158436,331.200839 L817.355108,413.616906 C810.720732,427.585731 817.355108,444.48801 832.090406,451.123201 L902.694133,482.76259 C904.160679,495.264688 904.92887,507.766787 904.92887,521.03717 C904.92887,528.370803 904.92887,535.774281 904.160679,542.339628 C904.160679,543.806355 904.160679,545.273082 904.160679,546.739808 C905.697061,547.438249 905.697061,548.136691 904.92887,548.904976 Z M921.130714,419.413969 C914.496338,434.84952 896.129592,442.252998 879.927748,435.617806 C864.494095,428.982614 857.091528,410.613609 864.494095,394.409772 C871.128471,378.974221 889.495217,371.570743 905.697061,378.205935 C921.130714,385.539568 927.76509,403.978417 921.130714,419.413969 Z" id="Shape"></path>
                </g>
                <g id="rust-bg-cut" opacity="0.200000003">
                    <path d="M1429.33373,701.856 L1368.69795,664.416 C1367.68976,658.368 1367.68976,652.32 1366.68156,647.28 L1418.24358,598.752 C1423.28456,593.712 1426.30915,586.656 1424.29275,579.6 C1423.28456,572.544 1418.24358,566.496 1411.18621,564.48 L1344.50125,539.136 C1342.48486,533.088 1341.47666,528.048 1339.46027,522 L1380.94033,464.4 C1384.97311,458.352 1385.98131,451.296 1382.95672,444.24 C1379.93213,437.184 1373.88296,433.152 1366.82559,432.144 L1296.97201,421.056 C1293.94743,416.016 1291.93103,410.976 1288.90645,404.928 L1318.28816,340.272 C1321.31274,334.224 1320.30455,326.16 1316.27176,320.112 C1312.23898,314.064 1305.18161,311.04 1298.12424,311.04 L1227.26247,313.056 C1223.22969,308.016 1220.2051,303.984 1216.17231,299.952 L1232.30345,231.12 C1234.31984,224.064 1232.30345,217.008 1227.26247,211.968 C1222.22149,206.928 1215.16412,204.912 1208.10675,206.928 L1139.26137,223.056 C1135.22859,219.024 1130.18761,216 1126.15482,211.968 L1128.17121,141.12 C1128.17121,134.064 1125.14663,127.008 1119.09745,122.976 C1113.04828,118.944 1105.9909,117.936 1098.93353,120.96 L1033.83288,149.76 C1028.7919,146.736 1023.75092,143.712 1017.70175,141.696 L1006.61159,71.856 C1005.6034,64.8 1000.56242,58.752 994.513243,55.728 C987.455872,52.704 980.398501,53.712 974.349325,57.744 L916.738131,99.216 C910.688956,97.2 905.647976,96.192 899.598801,94.176 L874.105847,27.36 C872.089455,20.304 866.04028,15.264 858.982909,14.256 C851.925537,13.248 844.868166,15.264 839.827186,20.304 L793.306147,72.864 C787.256972,71.856 781.207796,71.856 776.166817,70.848 L738.71954,10.224 C734.686757,4.176 728.637581,0.144 721.58021,0.144 C714.522839,0.144 707.465467,4.176 704.44088,10.224 L666.993603,70.848 C660.944428,70.848 654.895252,71.856 649.854273,72.864 L599.30045,21.312 C594.25947,16.272 587.202099,13.248 580.144728,15.264 C573.087356,16.272 567.038181,21.312 565.021789,28.368 L539.384808,95.04 C533.335632,97.056 528.294653,98.064 522.245477,100.08 L464.634283,58.608 C458.585107,54.576 451.527736,53.568 444.470365,56.592 C437.412994,59.616 433.38021,65.664 432.372014,72.72 L421.281859,142.56 C416.24088,145.584 411.1999,147.6 405.150725,150.624 L340.482159,121.248 C334.432984,118.224 326.367416,119.232 320.318241,123.264 C314.269065,127.296 311.244478,134.352 311.244478,141.408 L313.26087,212.256 C308.21989,216.288 304.187106,219.312 300.154323,223.344 L230.876862,207.36 C223.81949,205.344 216.762119,207.36 211.721139,212.4 C206.68016,217.44 204.663768,224.496 206.68016,231.552 L222.811294,300.384 C218.778511,304.416 215.753923,309.456 211.721139,313.488 L140.85937,311.472 C133.801999,311.472 126.744628,314.496 122.711844,320.544 C118.67906,326.592 117.670865,333.648 120.695452,340.704 L150.077161,405.36 C147.052574,410.4 144.027986,415.44 142.011594,421.488 L72.158021,432.576 C65.1006497,433.584 59.0514743,438.624 56.0268866,444.672 C53.0022989,451.728 54.0104948,458.784 58.0432784,464.832 L99.5233383,522.432 C97.5069465,528.48 95.4905547,533.52 94.4823588,539.568 L27.7974013,564.912 C20.74003,566.928 15.6990505,572.976 14.6908546,580.032 C13.6826587,587.088 15.6990505,594.144 20.74003,599.184 L73.3102449,646.704 C73.3102449,652.752 72.302049,658.8 71.2938531,663.84 L10.658071,701.28 C4.60889555,705.312 0.576111944,711.36 0.576111944,718.416 C0.576111944,725.472 4.60889555,732.528 10.658071,735.552 L71.2938531,772.992 C72.302049,780.048 73.3102449,786.096 73.3102449,792.144 L21.7482259,840.672 C16.7072464,845.712 13.6826587,852.768 15.6990505,859.824 C16.7072464,866.88 21.7482259,872.928 28.8055972,874.944 L95.4905547,900.288 C97.5069465,906.336 98.5151424,911.376 100.531534,917.424 L59.0514743,975.024 C55.0186907,981.072 54.0104948,988.128 57.0350825,995.184 C60.0596702,1002.24 66.1088456,1006.272 73.1662169,1007.28 L143.01979,1018.368 C146.044378,1023.408 148.06077,1028.448 151.085357,1034.496 L121.703648,1099.152 C118.67906,1105.2 119.687256,1113.264 123.72004,1119.312 C127.752824,1125.36 134.810195,1128.384 141.867566,1128.384 L212.729335,1126.368 C216.762119,1131.408 219.786707,1135.44 223.81949,1139.472 L207.688356,1208.304 C205.671964,1215.36 207.688356,1222.416 212.729335,1227.456 C217.770315,1232.496 224.827686,1234.512 231.885057,1232.496 L300.730435,1216.368 C304.763218,1220.4 309.804198,1223.424 313.836982,1227.456 L311.82059,1298.304 C311.82059,1305.36 314.845177,1312.416 320.894353,1316.448 C326.943528,1320.48 334.0009,1321.488 341.058271,1318.464 L405.726837,1289.088 C410.767816,1292.112 415.808796,1295.136 421.857971,1297.152 L432.948126,1366.992 C433.956322,1374.048 438.997301,1380.096 445.046477,1383.12 C452.103848,1386.144 459.161219,1385.136 465.210395,1381.104 L522.821589,1339.632 C528.870765,1341.648 533.911744,1343.664 539.96092,1344.672 L565.309845,1411.344 C567.326237,1418.4 573.375412,1423.44 580.432784,1424.448 C587.490155,1425.456 594.547526,1423.44 599.588506,1418.4 L648.125937,1366.848 C654.175112,1367.856 660.224288,1367.856 665.265267,1368.864 L702.712544,1429.488 C706.745327,1435.536 712.794503,1439.568 719.851874,1439.568 C726.909245,1439.568 733.966617,1435.536 736.991204,1429.488 L774.438481,1368.864 C780.487656,1367.856 786.536832,1367.856 791.577811,1366.848 L840.115242,1418.4 C845.156222,1423.44 852.213593,1426.464 859.270965,1424.448 C866.328336,1423.44 872.377511,1418.4 874.393903,1411.344 L899.742829,1344.672 C905.792004,1342.656 910.832984,1341.648 916.882159,1339.632 L974.493353,1381.104 C980.542529,1385.136 987.5999,1386.144 994.657271,1383.12 C1001.71464,1380.096 1005.74743,1374.048 1006.75562,1366.992 L1017.84578,1297.152 C1022.88676,1294.128 1027.92774,1291.104 1033.97691,1289.088 L1098.64548,1318.464 C1104.69465,1321.488 1112.76022,1320.48 1118.8094,1316.448 C1124.85857,1312.416 1127.88316,1305.36 1127.88316,1298.304 L1125.86677,1227.456 C1130.90775,1223.424 1134.94053,1220.4 1138.97331,1216.368 L1207.81869,1232.496 C1214.87606,1234.512 1221.93343,1232.496 1226.97441,1227.456 C1232.01539,1222.416 1234.03178,1215.36 1232.01539,1208.304 L1215.88426,1139.472 C1219.91704,1135.44 1222.94163,1130.4 1226.97441,1126.368 L1297.83618,1128.384 C1304.89355,1128.384 1311.95092,1125.36 1315.98371,1119.312 C1320.01649,1113.264 1321.02469,1106.208 1318.0001,1099.152 L1289.77061,1035.504 C1292.7952,1030.464 1295.81979,1025.424 1297.83618,1019.376 L1367.68976,1008.288 C1374.74713,1007.28 1380.7963,1002.24 1383.82089,996.192 C1386.84548,989.136 1385.83728,982.08 1381.8045,976.032 L1340.32444,918.432 C1342.34083,912.384 1343.34903,907.344 1345.36542,901.296 L1412.05037,875.952 C1419.10775,873.936 1424.14873,867.888 1425.15692,860.832 C1426.16512,853.776 1424.14873,846.72 1419.10775,841.68 L1367.54573,793.152 C1368.55392,787.104 1368.55392,781.056 1369.56212,776.016 L1430.1979,738.576 C1436.24708,734.544 1440.29132,728.496 1440.29132,721.44 C1440.56792,713.952 1435.38291,705.888 1429.33373,701.856 Z M717.403398,1337.472 C375.913043,1337.472 99.0912544,1060.704 99.0912544,719.28 C99.0912544,377.856 375.913043,101.088 717.403398,101.088 C1058.89375,101.088 1335.71554,377.856 1335.71554,719.28 C1335.71554,1060.704 1058.89375,1337.472 717.403398,1337.472 Z" id="Shape"></path>
                </g>
            </g>
            <g id="Group-2">
                <rect id="Rectangle" fill="url(#linearGradient-1)" x="0" y="506" width="1500" height="934"></rect>
                <rect id="Rectangle-Copy" fill="url(#linearGradient-2)" x="0" y="0" width="1500" height="906"></rect>
            </g>
        </g>
    </g>
</svg>