<svg xmlns="http://www.w3.org/2000/svg" width="192" height="192" viewBox="0 0 192 192">
    <g fill="none" fill-rule="evenodd">
        <path fill="#4D8BF5" d="M60.122 96.007c0 19.782 16.094 35.876 35.878 35.876 19.782 0 35.875-16.094 35.875-35.876 0-19.783-16.093-35.878-35.875-35.878-19.784 0-35.878 16.095-35.878 35.878z"/>
        <path fill="#DE5246" d="M178.612 48.649a1.574 1.574 0 0 0-.014-1.582 96.59 96.59 0 0 0-34.393-34.094C129.63 4.491 112.96.007 96 .007c-29.35 0-56.704 13.172-75.047 36.138a1.573 1.573 0 0 0-.133 1.769l27.024 46.807a1.574 1.574 0 0 0 2.887-.394C56.061 63.68 74.677 49.26 96 49.26c1.323 0 2.69.06 4.064.177.044.005.09.007.134.007h77.046a1.57 1.57 0 0 0 1.368-.795z"/>
        <path fill="#1EA261" d="M110.186 141.599a1.572 1.572 0 0 0-1.666-.552A46.674 46.674 0 0 1 96 142.753c-18.03 0-34.647-10.575-42.335-26.94-.019-.04-.04-.079-.062-.118l-38.55-66.77c-.282-.488-.802-.787-1.364-.787h-.008a1.573 1.573 0 0 0-1.363.8C4.26 63.238 0 79.513 0 96.007a95.945 95.945 0 0 0 23.504 62.931c15.006 17.27 35.665 28.637 58.173 32.005a1.576 1.576 0 0 0 1.596-.77l27.032-46.822a1.577 1.577 0 0 0-.12-1.752z"/>
        <path fill="#FFCE42" d="M183.927 59.945h-54.122a1.572 1.572 0 0 0-1.101 2.698c9.055 8.877 14.042 20.725 14.042 33.363a46.411 46.411 0 0 1-8.349 26.627 1.565 1.565 0 0 0-.07.112l-38.618 66.887a1.575 1.575 0 0 0 1.363 2.361h.017c25.414-.283 49.261-10.394 67.15-28.468C182.14 145.436 192 121.458 192 96.007c0-12.097-2.223-23.894-6.609-35.063a1.573 1.573 0 0 0-1.464-.999z"/>
    </g>
</svg>
