<svg xmlns="http://www.w3.org/2000/svg" width="177" height="192" viewBox="0 0 177 192">
    <path fill="#FFF" fill-rule="evenodd" d="M0 85.106h.108C1.243 76.11 3.334 67.5 6.358 59.248c3.022-8.252 7.12-15.988 12.283-23.234 5.162-7.246 11.125-13.522 17.888-18.84C43.293 11.857 51.251 7.665 60.404 4.6 69.557 1.533 79.404 0 89.931 0c16.454 0 31.188 3.76 44.225 11.294 13.036 7.533 23.492 18.36 31.402 32.492 7.41 13.342 11.113 29.116 11.113 47.32v20.12H56.497c.071 7.917 1.971 14.792 5.711 20.613 3.74 5.82 8.604 10.192 14.579 13.114 5.974 2.922 12.726 4.958 20.242 6.096s15.092 1.246 22.751.323a111.943 111.943 0 0 0 22.214-4.982c7.158-2.395 13.336-5.401 18.534-9.042v40.36c-6.548 3.93-14.722 7.21-24.508 9.846-9.787 2.635-20.912 4-33.375 4.072-12.463.072-23.707-1.82-33.757-5.677-13.455-5.21-24.544-14.097-33.267-26.648-8.723-12.552-13.156-25.846-13.3-39.834-.215-17.27 3.74-31.966 11.854-44.098 8.114-12.133 19.693-21.702 34.713-28.696-3.417 4.287-6.19 8.767-8.329 13.438-2.139 4.67-3.776 10.371-4.91 17.078h67.824c.573-5.497.287-10.491-.86-14.982-1.136-4.492-2.809-8.12-5.02-10.863-2.21-2.743-4.72-5.126-7.527-7.114-2.808-2-5.676-3.462-8.604-4.384-2.916-.922-5.592-1.665-8.006-2.192-2.414-.527-4.41-.838-5.987-.91l-2.342-.132c-9.607.36-18.856 1.94-27.722 4.767-8.867 2.827-16.813 6.551-23.863 11.186-7.05 4.635-13.324 9.653-18.796 15.043C9.273 72.998 4.338 78.83 0 85.106z" opacity=".5"/>
</svg>
