<svg xmlns="http://www.w3.org/2000/svg" width="177" height="192" viewBox="0 0 177 192">
    <path fill="#2196F3" fill-rule="evenodd" d="M.165 85.106h.108C1.408 76.11 3.499 67.5 6.523 59.248c3.023-8.252 7.121-15.988 12.283-23.234 5.163-7.246 11.125-13.522 17.889-18.84C43.458 11.857 51.416 7.665 60.569 4.6 69.723 1.533 79.57 0 90.096 0c16.455 0 31.188 3.76 44.225 11.294 13.037 7.533 23.492 18.36 31.403 32.492 7.409 13.342 11.113 29.116 11.113 47.32v20.12H56.662c.072 7.917 1.972 14.792 5.712 20.613 3.74 5.82 8.603 10.192 14.578 13.114 5.975 2.922 12.726 4.958 20.242 6.096s15.092 1.246 22.752.323a111.943 111.943 0 0 0 22.214-4.982c7.157-2.395 13.335-5.401 18.533-9.042v40.36c-6.548 3.93-14.721 7.21-24.508 9.846-9.786 2.635-20.911 4-33.375 4.072-12.463.072-23.707-1.82-33.756-5.677-13.455-5.21-24.544-14.097-33.268-26.648-8.723-12.552-13.156-25.846-13.3-39.834-.214-17.27 3.741-31.966 11.855-44.098 8.113-12.133 19.692-21.702 34.713-28.696-3.418 4.287-6.19 8.767-8.33 13.438-2.138 4.67-3.775 10.371-4.91 17.078h67.824c.574-5.497.287-10.491-.86-14.982-1.135-4.492-2.808-8.12-5.019-10.863-2.21-2.743-4.72-5.126-7.528-7.114-2.808-2-5.676-3.462-8.603-4.384-2.916-.922-5.593-1.665-8.007-2.192-2.413-.527-4.409-.838-5.986-.91l-2.342-.132c-9.608.36-18.856 1.94-27.723 4.767-8.866 2.827-16.813 6.551-23.863 11.186-7.05 4.635-13.323 9.653-18.796 15.043C9.438 72.998 4.503 78.83.165 85.106z"/>
</svg>
