<svg xmlns="http://www.w3.org/2000/svg" width="192" height="192" viewBox="0 0 192 192">
    <path fill="#FFF" fill-rule="evenodd" d="M32.73 159.288a1.168 1.168 0 0 0 1.647-.009l3.643-3.643 69.578-48.038 48.036-69.575 3.646-3.646a1.17 1.17 0 0 0 .008-1.647l.04-.059-.058.04a1.17 1.17 0 0 0-1.646.01l-3.64 3.64-69.582 48.041-48.04 69.58-3.64 3.641a1.17 1.17 0 0 0-.01 1.647l-.04.059.058-.041zM96 192c-53.02 0-96-42.98-96-96S42.98 0 96 0s96 42.98 96 96-42.98 96-96 96zm0-177.791a1.17 1.17 0 0 0 1.17-1.171V7.681a1.17 1.17 0 0 0-2.34 0v5.357c0 .646.523 1.17 1.17 1.17zm0 171.281a1.17 1.17 0 0 0 1.17-1.17v-5.358a1.17 1.17 0 0 0-2.34 0v5.357c0 .647.523 1.171 1.17 1.171zM81.592 15.47a1.17 1.17 0 0 0 1.154-1.374l-.93-5.276a1.17 1.17 0 1 0-2.306.406l.93 5.276c.1.568.594.967 1.152.967zm29.743 168.679a1.17 1.17 0 0 0 1.154-1.374l-.93-5.276a1.17 1.17 0 1 0-2.306.406l.93 5.276c.1.568.594.968 1.152.968zM67.625 19.212a1.17 1.17 0 0 0 1.1-1.572l-1.832-5.034a1.171 1.171 0 0 0-2.2.801l1.832 5.034c.173.476.622.771 1.1.771zm58.582 160.952a1.172 1.172 0 0 0 1.1-1.572l-1.832-5.034a1.17 1.17 0 1 0-2.2.801l1.832 5.034c.173.475.622.77 1.1.77zM54.52 25.324a1.17 1.17 0 0 0 1.013-1.756l-2.679-4.64a1.17 1.17 0 1 0-2.028 1.17l2.679 4.64c.217.376.61.586 1.015.586zm85.64 148.334a1.17 1.17 0 0 0 1.013-1.756l-2.678-4.64a1.17 1.17 0 1 0-2.028 1.17l2.679 4.64c.217.376.61.586 1.015.586zM42.675 33.618a1.17 1.17 0 0 0 .897-1.923l-3.444-4.104a1.171 1.171 0 0 0-1.795 1.505l3.444 4.104c.231.276.564.418.898.418zm110.097 131.21a1.17 1.17 0 0 0 .896-1.923l-3.443-4.105a1.172 1.172 0 0 0-1.794 1.505l3.443 4.104c.232.276.564.418.898.418zM32.447 43.843a1.17 1.17 0 0 0 .753-2.068l-4.104-3.444a1.17 1.17 0 1 0-1.504 1.794l4.103 3.444c.219.184.486.274.752.274zM163.656 153.94a1.172 1.172 0 0 0 .753-2.068l-4.104-3.443a1.171 1.171 0 0 0-1.505 1.794l4.103 3.444c.22.184.487.273.753.273zM24.15 55.69a1.17 1.17 0 0 0 .587-2.185l-4.64-2.678a1.17 1.17 0 1 0-1.17 2.027l4.64 2.679c.184.106.385.157.583.157zm148.334 85.64a1.172 1.172 0 0 0 .587-2.184l-4.64-2.679a1.17 1.17 0 0 0-1.17 2.027l4.64 2.68c.183.106.385.156.583.156zM18.041 68.796a1.171 1.171 0 0 0 .4-2.271l-5.034-1.832a1.171 1.171 0 0 0-.8 2.2l5.034 1.832c.132.049.267.071.4.071zm160.952 58.582a1.17 1.17 0 0 0 .401-2.272l-5.034-1.832a1.171 1.171 0 0 0-.802 2.2l5.034 1.833c.133.048.268.07.401.07zM14.3 82.765a1.171 1.171 0 0 0 .203-2.324l-5.276-.93a1.17 1.17 0 1 0-.407 2.305l5.276.93c.068.013.137.019.204.019zm168.68 29.742a1.172 1.172 0 0 0 .202-2.323l-5.276-.93a1.17 1.17 0 1 0-.407 2.305l5.276.93c.068.012.137.018.204.018zM13.037 97.171a1.17 1.17 0 0 0 0-2.342H7.68a1.17 1.17 0 0 0 0 2.342h5.357zm171.282 0a1.17 1.17 0 0 0 0-2.342h-5.358a1.17 1.17 0 0 0 0 2.342h5.358zM9.02 112.507c.068 0 .136-.006.205-.017l5.276-.93a1.17 1.17 0 1 0-.407-2.307l-5.276.93a1.17 1.17 0 0 0 .202 2.324zm168.68-29.742c.067 0 .135-.006.204-.018l5.275-.93a1.17 1.17 0 1 0-.406-2.306l-5.276.93a1.17 1.17 0 0 0 .202 2.324zM13.005 127.378c.134 0 .269-.023.4-.071l5.035-1.832a1.17 1.17 0 0 0-.8-2.2l-5.035 1.831a1.17 1.17 0 0 0 .4 2.272zM173.96 68.796c.133 0 .268-.023.401-.07l5.034-1.833a1.171 1.171 0 0 0-.802-2.2l-5.034 1.832a1.171 1.171 0 0 0 .401 2.271zM19.514 141.33c.199 0 .4-.05.585-.157l4.639-2.679a1.17 1.17 0 1 0-1.17-2.027l-4.64 2.679a1.17 1.17 0 0 0 .586 2.184zM167.85 55.69c.198 0 .4-.05.584-.158l4.64-2.678a1.17 1.17 0 1 0-1.172-2.028l-4.639 2.679a1.17 1.17 0 0 0 .587 2.185zM28.344 153.94c.266 0 .533-.09.752-.274l4.103-3.443a1.17 1.17 0 1 0-1.504-1.794l-4.104 3.444a1.17 1.17 0 0 0 .753 2.067zm131.21-110.097c.265 0 .532-.09.752-.274l4.103-3.444a1.17 1.17 0 1 0-1.505-1.793l-4.103 3.443a1.17 1.17 0 0 0 .752 2.068zM39.228 164.827c.334 0 .666-.142.898-.418l3.443-4.104a1.17 1.17 0 0 0-1.794-1.505l-3.444 4.104a1.17 1.17 0 0 0 .897 1.923zM149.326 33.618c.335 0 .667-.142.899-.418l3.443-4.104a1.17 1.17 0 0 0-1.795-1.505l-3.443 4.104a1.17 1.17 0 0 0 .896 1.923zM51.84 173.658c.405 0 .798-.21 1.015-.586l2.679-4.64a1.17 1.17 0 0 0-2.028-1.17l-2.679 4.64a1.17 1.17 0 0 0 1.013 1.756zm85.64-148.334c.405 0 .799-.21 1.016-.586l2.679-4.64a1.17 1.17 0 0 0-2.028-1.17l-2.679 4.64a1.17 1.17 0 0 0 1.013 1.756zm-71.686 154.84a1.17 1.17 0 0 0 1.1-.77l1.833-5.035a1.17 1.17 0 1 0-2.2-.8l-1.833 5.033a1.171 1.171 0 0 0 1.1 1.572zm58.582-160.952a1.17 1.17 0 0 0 1.1-.77l1.832-5.035a1.171 1.171 0 0 0-2.2-.8l-1.832 5.033a1.17 1.17 0 0 0 1.1 1.572zm-43.71 164.937c.558 0 1.051-.4 1.152-.968l.93-5.276a1.17 1.17 0 0 0-2.306-.406l-.93 5.276a1.17 1.17 0 0 0 1.154 1.374zm29.743-168.68c.558 0 1.051-.4 1.152-.967l.93-5.276a1.17 1.17 0 0 0-2.306-.406l-.93 5.275a1.17 1.17 0 0 0 1.154 1.374zm-20.882 7.714a1.17 1.17 0 0 0 1.167-1.272L89.469 7.914a1.17 1.17 0 0 0-2.332.204l1.224 13.995a1.17 1.17 0 0 0 1.165 1.069zm14.17 161.971a1.17 1.17 0 0 0 1.167-1.272l-1.224-13.996a1.17 1.17 0 0 0-2.332.204l1.224 13.996a1.17 1.17 0 0 0 1.165 1.068zM76.776 25.431a1.17 1.17 0 0 0 1.131-1.474l-3.635-13.57a1.17 1.17 0 1 0-2.261.606l3.636 13.57c.14.523.613.868 1.13.868zm42.082 157.05a1.17 1.17 0 0 0 1.131-1.474l-3.636-13.57a1.17 1.17 0 1 0-2.261.606l3.636 13.57c.14.523.613.868 1.13.868zM64.613 29.859a1.17 1.17 0 0 0 1.06-1.665L59.736 15.46a1.17 1.17 0 0 0-2.122.99l5.937 12.732c.199.425.62.676 1.062.676zm68.713 147.356a1.17 1.17 0 0 0 1.06-1.665l-5.937-12.733a1.171 1.171 0 0 0-2.122.99l5.937 12.732c.199.426.621.676 1.062.676zM53.401 36.332a1.169 1.169 0 0 0 .959-1.842L46.3 22.98a1.17 1.17 0 1 0-1.918 1.343l8.058 11.509c.228.325.592.499.96.499zm93.258 133.186a1.171 1.171 0 0 0 .958-1.842l-8.058-11.509a1.17 1.17 0 1 0-1.918 1.343l8.058 11.508c.228.326.591.5.96.5zM43.483 44.654a1.17 1.17 0 0 0 .828-1.999l-9.934-9.934a1.17 1.17 0 0 0-1.656 1.656l9.934 9.934c.228.228.529.343.828.343zM158.45 159.622a1.17 1.17 0 0 0 .828-1.998l-9.934-9.935a1.17 1.17 0 0 0-1.655 1.656l9.934 9.934c.228.228.528.343.827.343zM35.16 54.572a1.17 1.17 0 0 0 .673-2.131l-11.508-8.058a1.17 1.17 0 0 0-1.343 1.918l11.507 8.058c.205.143.44.212.671.212zm133.186 93.257a1.172 1.172 0 0 0 .673-2.13l-11.508-8.058a1.172 1.172 0 0 0-1.344 1.918l11.509 8.058c.204.143.438.212.67.212zM28.687 65.783a1.171 1.171 0 0 0 .496-2.232L16.45 57.614a1.171 1.171 0 0 0-.989 2.122l12.733 5.937c.16.075.328.11.494.11zm147.357 68.713a1.17 1.17 0 0 0 .495-2.232l-12.732-5.937a1.171 1.171 0 0 0-.99 2.122l12.732 5.937c.16.075.329.11.495.11zM24.26 77.95a1.172 1.172 0 0 0 .302-2.302l-13.57-3.636a1.17 1.17 0 1 0-.606 2.261l13.57 3.636c.102.028.204.04.304.04zm157.05 42.08a1.17 1.17 0 0 0 .301-2.301l-13.57-3.636a1.17 1.17 0 1 0-.606 2.261l13.57 3.636c.103.028.204.04.304.04zM22.012 90.699a1.17 1.17 0 0 0 .1-2.338L8.119 87.136a1.17 1.17 0 1 0-.204 2.332l13.995 1.225c.035.003.07.005.104.005zm161.972 14.17a1.17 1.17 0 0 0 .1-2.337l-13.995-1.224a1.17 1.17 0 1 0-.204 2.333l13.996 1.224c.034.003.069.004.103.004zm-175.97 0c.034 0 .07-.001.104-.004l13.995-1.224a1.17 1.17 0 0 0 1.064-1.268 1.165 1.165 0 0 0-1.268-1.065l-13.995 1.225a1.17 1.17 0 0 0 .1 2.336zm161.972-14.17c.033 0 .068-.002.103-.005l13.996-1.224a1.17 1.17 0 0 0 1.064-1.268 1.166 1.166 0 0 0-1.268-1.064l-13.996 1.224a1.17 1.17 0 0 0 .1 2.337zM10.689 120.03c.1 0 .203-.013.304-.04l13.57-3.637a1.17 1.17 0 1 0-.605-2.261l-13.57 3.636a1.17 1.17 0 0 0 .301 2.302zm157.05-42.081c.1 0 .202-.013.304-.04l13.57-3.637a1.17 1.17 0 1 0-.606-2.26l-13.57 3.635a1.17 1.17 0 0 0 .302 2.302zM15.956 134.496c.166 0 .334-.035.494-.11l12.732-5.937a1.17 1.17 0 1 0-.988-2.122l-12.733 5.937a1.17 1.17 0 0 0 .495 2.232zm147.357-68.713c.166 0 .334-.035.494-.11l12.732-5.937a1.17 1.17 0 0 0-.99-2.122l-12.732 5.937a1.17 1.17 0 0 0 .495 2.232zM23.654 147.829c.232 0 .466-.07.67-.212l11.509-8.058a1.171 1.171 0 0 0-1.344-1.918L22.982 145.7a1.172 1.172 0 0 0 .672 2.13zM156.84 54.57c.231 0 .466-.069.67-.211l11.508-8.058a1.172 1.172 0 0 0-1.343-1.918l-11.508 8.057a1.172 1.172 0 0 0 .673 2.13zM45.34 169.518c.37 0 .733-.174.961-.5l8.059-11.508a1.171 1.171 0 0 0-1.919-1.343l-8.058 11.508a1.171 1.171 0 0 0 .958 1.843zM138.6 36.332c.369 0 .732-.174.96-.5l8.058-11.508a1.171 1.171 0 0 0-1.919-1.343L137.64 34.49a1.171 1.171 0 0 0 .959 1.843zM58.674 177.215c.441 0 .863-.25 1.061-.676l5.938-12.733a1.17 1.17 0 1 0-2.122-.99l-5.938 12.733a1.17 1.17 0 0 0 1.061 1.666zM127.388 29.86c.44 0 .862-.25 1.061-.677l5.937-12.732a1.17 1.17 0 1 0-2.122-.99l-5.937 12.733a1.17 1.17 0 0 0 1.06 1.666zM73.142 182.481c.517 0 .99-.345 1.13-.868l3.636-13.57a1.17 1.17 0 1 0-2.261-.607l-3.636 13.57a1.17 1.17 0 0 0 1.13 1.475zm42.082-157.05c.516 0 .99-.345 1.13-.868l3.635-13.57a1.17 1.17 0 1 0-2.26-.606l-3.637 13.57a1.17 1.17 0 0 0 1.132 1.474zm-26.92 159.723c.6 0 1.111-.46 1.164-1.07l1.225-13.995a1.17 1.17 0 1 0-2.332-.203l-1.225 13.995a1.17 1.17 0 0 0 1.167 1.273zm14.17-161.971a1.17 1.17 0 0 0 1.165-1.07l1.224-13.995A1.17 1.17 0 0 0 103.8 6.85c-.65-.06-1.212.42-1.268 1.064l-1.224 13.996a1.17 1.17 0 0 0 1.167 1.273zM96 102a6 6 0 1 1 0-12 6 6 0 0 1 0 12z" opacity=".5"/>
</svg>
