<svg xmlns="http://www.w3.org/2000/svg" width="244" height="224" viewBox="0 0 244 224">
    <path fill="#FFF" fill-rule="evenodd" d="M128.517 7.096c-.213 3.707-3.408 6.536-7.134 6.328-3.73-.211-6.579-3.386-6.369-7.088.212-3.704 3.408-6.536 7.136-6.325 3.729.208 6.577 3.383 6.367 7.085zm88.179 58.06c-3.337 1.667-7.4.335-9.08-2.977-1.683-3.312-.34-7.351 2.995-9.02 3.333-1.668 7.398-.338 9.079 2.974 1.68 3.315.336 7.354-2.994 9.023zm-6.516 104.902c-3.124-2.035-3.996-6.202-1.946-9.303 2.043-3.098 6.235-3.967 9.358-1.933a6.695 6.695 0 0 1 1.949 9.3c-2.053 3.104-6.243 3.968-9.361 1.936zm-95.392 46.84c.212-3.703 3.408-6.536 7.133-6.324 3.729.208 6.577 3.386 6.367 7.087-.21 3.707-3.408 6.537-7.134 6.328-3.73-.21-6.579-3.383-6.366-7.09zm-87.486-58.054c3.336-1.67 7.401-.337 9.079 2.972 1.68 3.315.34 7.354-2.994 9.023-3.331 1.67-7.399.338-9.077-2.975-1.68-3.312-.342-7.35 2.992-9.02zM33.82 53.942c3.121 2.035 3.993 6.197 1.946 9.298-2.048 3.104-6.237 3.967-9.361 1.933-3.121-2.032-3.993-6.197-1.946-9.298 2.048-3.1 6.237-3.967 9.361-1.933zm97.677-7.298c-.303 5.291-4.868 9.338-10.191 9.037-5.326-.302-9.4-4.837-9.096-10.126.304-5.294 4.865-9.336 10.189-9.037 5.329.3 9.4 4.837 9.098 10.126zm52.218 40.85c-4.766 2.383-10.57.482-12.97-4.253-2.401-4.732-.486-10.5 4.277-12.883 4.763-2.386 10.57-.483 12.973 4.25 2.398 4.729.48 10.5-4.28 12.886zm-9.499 65.354c-4.456-2.907-5.704-8.856-2.779-13.287 2.923-4.428 8.914-5.665 13.37-2.764 4.463 2.91 5.708 8.859 2.783 13.287-2.928 4.433-8.911 5.667-13.374 2.764zm-62.409 24.503c.304-5.292 4.868-9.333 10.192-9.034 5.326.301 9.399 4.836 9.093 10.128-.301 5.289-4.863 9.336-10.192 9.032-5.326-.3-9.394-4.834-9.093-10.126zM60.285 136.51c4.763-2.388 10.57-.482 12.97 4.247 2.401 4.733.483 10.504-4.28 12.89-4.763 2.382-10.567.476-12.97-4.253-2.398-4.735-.48-10.501 4.28-12.884zm9.496-65.354c4.46 2.901 5.704 8.851 2.776 13.282-2.92 4.433-8.908 5.67-13.368 2.76-4.46-2.903-5.707-8.85-2.779-13.283 2.923-4.431 8.908-5.668 13.37-2.759zm114.781-56.79c-1.609 2.437-4.904 3.117-7.354 1.518a5.261 5.261 0 0 1-1.529-7.31 5.332 5.332 0 0 1 7.354-1.515 5.261 5.261 0 0 1 1.53 7.306zm53.824 102.647c-2.93-.162-5.171-2.657-5.003-5.568.168-2.91 2.677-5.133 5.608-4.971 2.93.164 5.168 2.66 5 5.571-.168 2.91-2.677 5.135-5.605 4.968zm-62.563 97.639a5.262 5.262 0 0 1 2.35-7.088c2.622-1.313 5.815-.266 7.137 2.336 1.32 2.602.265 5.774-2.354 7.085-2.621 1.313-5.814.266-7.133-2.333zm-116.385-5.015c1.609-2.438 4.9-3.118 7.354-1.52a5.254 5.254 0 0 1 1.523 7.308c-1.606 2.435-4.898 3.12-7.351 1.519a5.258 5.258 0 0 1-1.526-7.307zM5.614 106.986c2.928.167 5.166 2.656 5 5.568-.165 2.909-2.68 5.135-5.607 4.97-2.928-.166-5.166-2.661-4.998-5.568.165-2.912 2.677-5.135 5.605-4.97zM68.177 9.35c1.32 2.602.263 5.777-2.354 7.087-2.621 1.31-5.811.266-7.133-2.339a5.259 5.259 0 0 1 2.351-7.084c2.622-1.314 5.812-.266 7.136 2.336zm103.556 32.967c-2.484 3.767-7.573 4.82-11.364 2.353-3.79-2.474-4.85-7.53-2.363-11.297 2.487-3.77 7.578-4.817 11.367-2.347 3.792 2.47 4.846 7.527 2.36 11.291zm35.872 77.637c-4.531-.255-7.989-4.11-7.732-8.604.26-4.502 4.136-7.94 8.662-7.685 4.529.258 7.992 4.113 7.733 8.612-.257 4.491-4.137 7.935-8.663 7.677zm-49.737 69.68c-2.042-4.025-.41-8.924 3.635-10.953 4.054-2.03 8.988-.411 11.027 3.614 2.037 4.022.414 8.927-3.637 10.95-4.048 2.027-8.985.412-11.025-3.61zm-85.604-7.956c2.487-3.765 7.573-4.818 11.365-2.345 3.789 2.468 4.851 7.524 2.365 11.291-2.487 3.767-7.576 4.818-11.367 2.347-3.792-2.47-4.849-7.526-2.363-11.293zm-35.872-77.632c4.529.255 7.99 4.107 7.732 8.607-.256 4.496-4.136 7.934-8.665 7.68-4.523-.261-7.986-4.11-7.73-8.607.26-4.5 4.137-7.938 8.663-7.68zm49.737-69.68c2.042 4.022.414 8.927-3.637 10.95-4.049 2.03-8.983.41-11.022-3.61-2.042-4.023-.411-8.928 3.634-10.957 4.049-2.023 8.986-.405 11.025 3.617zm55.146 60.597a16.46 16.46 0 0 1-9-2.676c-7.575-4.938-9.694-15.075-4.727-22.604 3.05-4.617 8.188-7.375 13.754-7.375 3.201 0 6.312.926 8.997 2.678 7.575 4.93 9.697 15.075 4.73 22.604-3.05 4.614-8.188 7.373-13.754 7.373zm19.463 33.277c-.314 0-.632-.011-.946-.028-9.046-.51-15.984-8.239-15.47-17.226.51-8.944 8.24-15.895 17.338-15.368a16.326 16.326 0 0 1 11.323 5.429 16.141 16.141 0 0 1 4.145 11.798c-.494 8.63-7.694 15.395-16.39 15.395zm-19.295 33.365c-6.242 0-11.87-3.441-14.678-8.98a16.095 16.095 0 0 1-.93-12.458c1.374-4.146 4.288-7.507 8.207-9.47a16.556 16.556 0 0 1 7.384-1.747c6.246 0 11.872 3.44 14.684 8.982 4.076 8.04.812 17.877-7.28 21.924a16.57 16.57 0 0 1-7.387 1.749zm-38.745.082a16.44 16.44 0 0 1-8.997-2.673c-3.673-2.391-6.187-6.06-7.078-10.329a16.12 16.12 0 0 1 2.346-12.272c3.046-4.623 8.19-7.378 13.75-7.378 3.202 0 6.315.927 9.003 2.679 3.67 2.39 6.181 6.06 7.075 10.325.897 4.27.061 8.629-2.345 12.275-3.05 4.618-8.188 7.373-13.754 7.373zm-19.414-33.274c-.312 0-.627-.011-.947-.028-9.04-.515-15.984-8.242-15.47-17.227.516-8.949 8.237-15.9 17.338-15.373 9.05.513 15.987 8.24 15.474 17.224-.497 8.64-7.697 15.404-16.395 15.404zm19.29-33.363c-6.251 0-11.875-3.443-14.684-8.982-4.076-8.042-.812-17.876 7.28-21.929a16.627 16.627 0 0 1 7.381-1.746c6.248 0 11.872 3.438 14.684 8.982 4.076 8.036.812 17.874-7.28 21.926a16.593 16.593 0 0 1-7.381 1.75z"/>
</svg>
