<svg xmlns="http://www.w3.org/2000/svg" width="192" height="192" viewBox="0 0 192 192">
    <path fill="#FFF" fill-rule="evenodd" d="M60.122 96c0-19.784 16.094-35.878 35.878-35.878 19.782 0 35.875 16.095 35.875 35.878 0 19.782-16.093 35.876-35.875 35.876-19.784 0-35.878-16.094-35.878-35.876zm118.49-47.358a1.57 1.57 0 0 1-1.368.795h-77.046c-.044 0-.09-.002-.135-.007A48.095 48.095 0 0 0 96 49.253c-21.324 0-39.94 14.42-45.269 35.067a1.574 1.574 0 0 1-2.887.394L20.82 37.907a1.573 1.573 0 0 1 .133-1.769C39.296 13.172 66.65 0 96 0c16.96 0 33.63 4.484 48.206 12.966a96.59 96.59 0 0 1 34.391 34.093c.29.487.294 1.091.015 1.583zm-68.426 92.95c.391.505.439 1.197.12 1.752l-27.033 46.822a1.576 1.576 0 0 1-1.596.77c-22.508-3.369-43.167-14.734-58.173-32.005A95.945 95.945 0 0 1 0 96C0 79.506 4.26 63.23 12.318 48.93a1.573 1.573 0 0 1 1.363-.8h.008c.562 0 1.082.298 1.363.786l38.551 66.77c.022.04.043.08.062.12C61.353 132.17 77.97 142.745 96 142.745c4.244 0 8.456-.574 12.52-1.706a1.572 1.572 0 0 1 1.666.552zm73.74-81.654c.648 0 1.229.396 1.465 1C189.777 72.105 192 83.902 192 96c0 25.45-9.86 49.43-27.762 67.518-17.888 18.074-41.735 28.185-67.149 28.468h-.017a1.574 1.574 0 0 1-1.363-2.36l38.618-66.888c.022-.038.045-.076.07-.112A46.411 46.411 0 0 0 142.747 96c0-12.638-4.988-24.486-14.043-33.364a1.573 1.573 0 0 1 1.101-2.697h54.122z" opacity=".5"/>
</svg>
