<svg xmlns="http://www.w3.org/2000/svg" width="192" height="188" viewBox="0 0 192 188">
    <path fill="#FF5722" fill-rule="evenodd" d="M.496 77.792c.102-.689.268-1.83.517-3.602C2.45 64.132 11.085 54.742 11.085 54.742c.053-.07.123-.123.184-.194-.087-8.081.622-14.977 2.076-20.765h.009l.026-.106c.009-.035.009-.088.017-.123.018-.026-1.12 5.482.035-.096 1.735-7.036 6.64-13.502 6.64-13.502.043-.043.07-.07.096-.114.035-.035.06-.07.096-.105.026-.035.061-.07.088-.106a.93.93 0 0 0 .087-.105c.035-.035.07-.07.096-.114.027-.035.062-.062.088-.106.044-.026.07-.07.105-.105.026-.026.053-.07.088-.105a.331.331 0 0 0 .087-.106c.035-.026.062-.07.097-.105.035-.027.052-.08.087-.106.035-.035.053-.061.088-.105.035-.018.044-.053.07-.07a.118.118 0 0 1 .017.07c0 .053.018.088.018.123s.017.07.026.114c0 0 1.507 11.56 4.134 13.967.175.167.324.307.456.422C42.676 13.149 67.9.289 96.086.298c33.736 0 63.252 18.464 79.07 45.826 0-.096 1.962 8.187-.026-12.368 11.657 11.692 11.99 46.934 11.99 46.934.946-.228 1.883-3.619 2.741-10.207 2.47 9.206 2.12 20.16-1.033 32.853-2.19 12.877-7.016 25.35-14.373 37.455l.22-.017c-2.348 3.953-4.993 7.712-7.857 11.27-1.077 1.414-2.12 2.837-3.258 4.234l-.333-.009c-17.202 19-41.865 30.92-69.314 30.92-31.013 0-58.515-15.223-75.663-38.703l-.062-.009c-.28-.404-.508-.799-.762-1.203-2.005-2.82-5.299-8.758-5.299-8.758C3.921 123.407.61 108.132 2.31 92.724c.587-5.077 1.76-9.855 3.407-14.432.07-.51.175-.993.246-1.493L.777 81.033c-.193-.685-.272-1.432-.29-2.188-.026.044-.06.088-.087.132.009-.298.044-.597.061-.896v-.053a339.832 339.832 0 0 0 .009-.061v-.018c0-.052.018-.105.026-.158zm-.035.193v.043c-.149 1.037-.105.73 0-.052l.009-.009-.009.018zm163.055-11.692c1.428-14.397-11.123-26.845-37.582-37.306 3.687-1.441 7.882-1.757 12.507-.905-1.437-3.198-4.493-5.912-9.056-8.082-.184-.044-.386-.131-.578-.184-3.224-1.476-7.235-2.662-11.947-3.602 10.747.317 20.066 1.67 27.878 4.006a49.357 49.357 0 0 1 7.804 3.11C137.188 10.584 117.508 2.924 96.076 2.924c-27.729 0-52.506 12.807-68.788 32.826 1.331 1.748 2.838 3.066 4.528 3.883.053-.018.105-.035.167-.062.061-.017.114-.035.192-.061.053-.018.105-.044.184-.07.053-.018.114-.044.184-.053 0 0 9.52-4.208 21.134-1.397.123.035.237.07.36.106.043.017.096.026.13.044.01-.01.036-.027.036-.027.035-.017.052-.044.087-.07.027-.035.044-.053.07-.088a.306.306 0 0 0 .08-.053l-.798-.017.885-.062c5.99-7.01 25.233-12.412 25.233-12.412S63.758 33.45 65.264 45.668c-.148.22-.017.07-.017.096a.234.234 0 0 0-.026.106c0 .026-.01.07-.018.096 0 .018-.017.044-.017.08h-.018c-.026.026-.061.043-.096.07-.035.026-.07.052-.088.07-.035.018-.061.044-.087.061-.044.027-.062.044-.105.07-.027.01-.027.018-.044.036l.254.325s.184.246.184.202c0 0 4.405 7.027 12.375 10.365l.132.053c.078.009 6.805.764 10.16.597 1.62.984 1.935 2.117.989 3.514l-.219.22c-.052 0-.088.043-.131.087a6.016 6.016 0 0 1-.605 1.66 5 5 0 0 1-.604.914c-.193.228-.377.448-.613.641-.184.15-.403.273-.604.404-.167.106-.298.211-.465.308a.947.947 0 0 1-.157.096c-.193.115-.403.255-.605.378-.201.132-.402.264-.604.378-.21.132-.403.255-.613.378-.21.131-.394.246-.613.386-.193.132-.403.272-.604.422-.202.123-.403.28-.605.421-.21.15-.42.3-.622.448-.192.15-.394.281-.604.44-.201.158-.394.28-.604.439-.202.158-.412.307-.613.474-.184.15-.412.334-.613.492-.193.158-.403.325-.596.492-.201.167-.403.325-.604.5-.21.159-.412.308-.613.484-.21.184-.403.325-.613.5-.202.185-.403.378-.605.545-.192.185-.403.37-.595.554-.202.175-.412.36-.613.544-.21.176-.403.352-.614.536-.21.184-.402.36-.604.545-.14.131-.271.228-.411.36-.044-.123-.132-.229-.193-.352a7.664 7.664 0 0 0-.613-1.019 4.89 4.89 0 0 0-.5-.562c.473.562.859 1.142 1.13 1.757v.088c3.1 5.27 4.23 10.418 3.372 15.337-5.115-1.476-9.66-2.38-13.636-2.75-2.505-.219-4.248-.36-5.16-.403-.814-.053-1.62-.097-2.425-.141-.543-.009-1.104 0-1.656 0 .412.061.894.105 1.454.14.14.01.228.027.368.027.49.035.972.07 1.48.088.316.026.631.035.955.061.236.009.534.027.885.053.473.035 1.094.088 1.786.15.543.043 1.121.105 1.787.157.245.027.455.035.71.062-.438.07-.859.167-1.253.29a5.602 5.602 0 0 0-2.54 1.704c-.49.588-.893 1.3-1.165 2.134-.166.51-.315 1.046-.403 1.625-.078.448-.122.94-.149 1.45 0 .07-.008.123-.008.184v.044c-.018.088-.018.185-.018.273 0-.08 0-.176.018-.255l1.445 2.108c3.582 4.471 7.322 8.038 11.193 10.7 5.894 3.785 11.964 3.917 18.252.36 6.622-4.2 12.954-4.7 19.032-1.53 2.777 1.573 4.949 3.374 6.385 5.36.99 2.652-.052 4.233-3.013 4.646-1.436-.685-2.925-.72-4.501-.132l.035.044-.43.272-.928.607-.928.597-.937.606-.92.606-.928.606-.938.598-.928.606-.928.597-1.875 1.212-.928.597-.928.607-.517.333c-.114.07-.254.115-.377.185-.28.132-.552.246-.832.378-.289.131-.56.263-.84.386-.272.132-.544.255-.824.387-.263.114-.534.193-.788.298-.263.097-.534.202-.797.299-.254.105-.534.193-.797.299-.254.087-.517.184-.78.272-.245.079-.508.14-.753.22-.254.079-.508.149-.77.22-.246.07-.517.157-.754.227-.254.07-.5.132-.753.202-.228.062-.482.106-.727.159-.237.061-.482.114-.736.175-.245.044-.49.114-.727.158-.236.053-.481.115-.727.159-.227.043-.473.07-.71.114-.236.026-.463.07-.7.096-.236.044-.473.07-.7.106-.237.035-.473.088-.71.114-.236.026-.464.044-.7.079-.228.018-.456.026-.692.044-.22.026-.447.044-.666.061-.228.01-.473.036-.7.053l-.684.053c-.219.009-.438.009-.657.017-.227.01-.455 0-.665.01h-.666c-.228 0-.447.026-.666.026-.219-.018-.446 0-.674 0-.21 0-.42-.027-.648-.036-.202 0-.412-.017-.64-.035-.21-.009-.42-.017-.63-.035l-.648-.026c-.22-.018-.43-.027-.648-.044-.088 0-.176 0-.263-.018.21.211.429.413.648.624.263.263.543.536.823.782.28.263.552.544.832.79.29.273.587.519.876.765.298.245.587.518.885.755.298.255.595.5.91.747.298.246.622.483.929.72.315.237.622.483.937.72.333.229.666.448.999.677.332.228.656.465.998.676.342.228.674.448 1.034.65.341.22.7.43 1.068.632.35.211.7.44 1.069.633.359.193.753.386 1.13.57.385.194.761.405 1.138.59.403.201.806.36 1.2.544.403.193.806.369 1.217.545.412.184.832.342 1.253.5l.009.01c.481.184.963.368 1.453.526.097 0 .21.018.307.018 4.992 1.616 10.291 2.468 15.923 2.53 14.197-.545 26.897-9.206 38.046-25.949.412 4.015-.306 9.118-2.11 15.337 9.485-10.198 12.962-25.851 10.395-47.004 1.848 1.44 3.915 5.552 6.166 12.404 3.285-10.278 2.882-23.314-1.173-39.107 3.275.992 5.842 2.977 7.786 6.008zM.926 74.568a.73.73 0 0 1 .052-.185c0-.035-.307 2.126-.482 3.408.07-1.027.193-2.1.43-3.223z"/>
</svg>
