<svg xmlns="http://www.w3.org/2000/svg" width="192" height="192" viewBox="0 0 192 192">
    <g fill="none" fill-rule="evenodd">
        <path fill="#D32F2F" d="M64.404 41.904C73.212 31.5 84.588 25.236 97.02 25.236c27.948 0 50.604 31.68 50.604 70.764 0 39.084-22.656 70.776-50.604 70.776-12.432 0-23.808-6.276-32.616-16.668 13.776 17.88 34.248 29.22 57.108 29.22 14.064 0 27.216-4.296 38.472-11.76C179.628 149.988 192 124.44 192 96c0-28.44-12.372-53.988-32.016-71.556-11.256-7.464-24.408-11.76-38.472-11.76-22.86-.012-43.344 11.34-57.108 29.22"/>
        <path fill="#F44336" d="M96 0C42.984 0 0 42.984 0 96c0 51.48 40.536 93.504 91.428 95.892A96.11 96.11 0 0 0 96 192c24.576 0 46.992-9.24 63.972-24.432-11.256 7.464-24.408 11.76-38.472 11.76-22.86 0-43.332-11.34-57.108-29.22-10.62-12.528-17.496-31.044-17.952-51.84v-4.524c.468-20.784 7.344-39.312 17.952-51.84 13.776-17.88 34.248-29.22 57.108-29.22 14.064 0 27.216 4.296 38.472 11.76C143.088 9.324 120.804.096 96.36 0H96z"/>
    </g>
</svg>
