<svg xmlns="http://www.w3.org/2000/svg" width="192" height="192" viewBox="0 0 192 192">
    <g fill="none" fill-rule="evenodd">
        <circle cx="96" cy="96" r="96" fill="#1DA2F8"/>
        <g fill="#F2F2F2">
            <path d="M96 14.209a1.17 1.17 0 0 1-1.17-1.171V7.681a1.17 1.17 0 0 1 2.34 0v5.357a1.17 1.17 0 0 1-1.17 1.17zM96 185.49a1.17 1.17 0 0 1-1.17-1.17v-5.358a1.17 1.17 0 0 1 2.34 0v5.357A1.17 1.17 0 0 1 96 185.49zM81.593 15.47c-.559 0-1.052-.4-1.153-.968l-.93-5.276a1.17 1.17 0 1 1 2.306-.406l.93 5.276a1.17 1.17 0 0 1-1.153 1.373zM111.335 184.149c-.558 0-1.052-.4-1.152-.968l-.93-5.276a1.17 1.17 0 1 1 2.306-.406l.93 5.275a1.17 1.17 0 0 1-1.154 1.375zM67.625 19.212c-.478 0-.927-.296-1.1-.77l-1.832-5.035a1.172 1.172 0 0 1 2.2-.8l1.832 5.033a1.17 1.17 0 0 1-1.1 1.572zM126.207 180.164c-.478 0-.927-.296-1.1-.77l-1.832-5.035a1.17 1.17 0 0 1 2.2-.8l1.832 5.033a1.172 1.172 0 0 1-1.1 1.572zM54.52 25.324a1.17 1.17 0 0 1-1.015-.586l-2.679-4.64a1.17 1.17 0 0 1 2.028-1.17l2.679 4.64a1.17 1.17 0 0 1-1.013 1.756zM140.16 173.658a1.17 1.17 0 0 1-1.014-.586l-2.679-4.64a1.17 1.17 0 0 1 2.028-1.17l2.679 4.64a1.17 1.17 0 0 1-1.013 1.756zM42.673 33.618c-.333 0-.666-.142-.897-.418l-3.444-4.104a1.17 1.17 0 1 1 1.794-1.505l3.444 4.104a1.17 1.17 0 0 1-.897 1.923zM152.77 164.827c-.333 0-.665-.142-.897-.418l-3.443-4.104a1.17 1.17 0 1 1 1.794-1.505l3.443 4.104a1.17 1.17 0 0 1-.896 1.923zM32.447 43.844c-.266 0-.533-.09-.752-.274l-4.103-3.444a1.17 1.17 0 1 1 1.504-1.794l4.104 3.444a1.17 1.17 0 0 1-.753 2.068zM163.656 153.941c-.266 0-.533-.09-.753-.274l-4.103-3.443a1.172 1.172 0 0 1 1.505-1.794l4.104 3.444a1.172 1.172 0 0 1-.753 2.067zM24.151 55.69c-.198 0-.4-.05-.584-.157l-4.64-2.679a1.17 1.17 0 1 1 1.172-2.027l4.639 2.678a1.17 1.17 0 0 1-.587 2.185zM172.485 141.33c-.198 0-.4-.05-.584-.157l-4.639-2.678a1.17 1.17 0 1 1 1.17-2.028l4.64 2.679a1.17 1.17 0 0 1-.587 2.184zM18.041 68.796c-.133 0-.268-.023-.4-.07l-5.034-1.833a1.17 1.17 0 0 1 .8-2.2l5.034 1.832a1.17 1.17 0 0 1-.4 2.271zM178.993 127.378c-.133 0-.268-.023-.4-.071l-5.035-1.832a1.17 1.17 0 0 1 .802-2.2l5.034 1.831a1.17 1.17 0 0 1-.4 2.272zM14.3 82.765c-.068 0-.137-.006-.205-.018l-5.276-.93a1.17 1.17 0 0 1 .407-2.306l5.276.93a1.17 1.17 0 0 1-.203 2.324zM182.978 112.507c-.067 0-.136-.006-.204-.017l-5.276-.93a1.17 1.17 0 0 1 .407-2.307l5.276.93a1.17 1.17 0 0 1-.203 2.324zM13.038 97.17H7.68a1.17 1.17 0 0 1 0-2.34h5.357a1.17 1.17 0 0 1 0 2.34zM184.32 97.17h-5.358a1.17 1.17 0 0 1 0-2.34h5.358a1.17 1.17 0 0 1 0 2.34zM9.021 112.507a1.171 1.171 0 0 1-.202-2.323l5.276-.93a1.17 1.17 0 1 1 .407 2.305l-5.276.93a1.192 1.192 0 0 1-.205.018zM177.7 82.765a1.171 1.171 0 0 1-.202-2.324l5.276-.93a1.17 1.17 0 1 1 .406 2.305l-5.275.93a1.193 1.193 0 0 1-.205.019zM13.006 127.378a1.171 1.171 0 0 1-.4-2.272l5.035-1.832a1.172 1.172 0 0 1 .8 2.2l-5.034 1.833c-.132.048-.267.07-.4.07zM173.96 68.796a1.171 1.171 0 0 1-.402-2.271l5.034-1.832a1.171 1.171 0 0 1 .802 2.2l-5.034 1.833c-.133.048-.268.07-.4.07zM19.514 141.33a1.17 1.17 0 0 1-.586-2.184l4.64-2.679a1.17 1.17 0 1 1 1.17 2.027l-4.64 2.679a1.161 1.161 0 0 1-.584.157zM167.849 55.69a1.17 1.17 0 0 1-.587-2.185l4.64-2.679a1.17 1.17 0 1 1 1.17 2.028l-4.639 2.678a1.162 1.162 0 0 1-.584.158zM28.344 153.941a1.17 1.17 0 0 1-.753-2.068l4.104-3.443a1.171 1.171 0 0 1 1.505 1.794l-4.104 3.444a1.164 1.164 0 0 1-.752.273zM159.554 43.844a1.17 1.17 0 0 1-.753-2.068l4.103-3.444a1.171 1.171 0 0 1 1.505 1.794l-4.103 3.444c-.22.184-.487.274-.752.274zM39.229 164.827a1.17 1.17 0 0 1-.896-1.923l3.443-4.104a1.171 1.171 0 0 1 1.794 1.505l-3.444 4.104a1.17 1.17 0 0 1-.897.418zM149.327 33.618a1.17 1.17 0 0 1-.896-1.923l3.443-4.104a1.171 1.171 0 0 1 1.793 1.505l-3.442 4.104a1.17 1.17 0 0 1-.898.418zM51.84 173.658a1.17 1.17 0 0 1-1.013-1.756l2.678-4.64a1.17 1.17 0 1 1 2.028 1.17l-2.679 4.64c-.217.376-.61.586-1.015.586zM137.48 25.324a1.17 1.17 0 0 1-1.013-1.756l2.679-4.64a1.17 1.17 0 1 1 2.028 1.17l-2.679 4.64c-.217.376-.61.586-1.015.586zM65.793 180.164a1.171 1.171 0 0 1-1.1-1.572l1.833-5.034a1.17 1.17 0 1 1 2.2.801l-1.833 5.034a1.17 1.17 0 0 1-1.1.77zM124.375 19.212a1.17 1.17 0 0 1-1.1-1.572l1.832-5.034a1.17 1.17 0 0 1 2.2.801l-1.832 5.034a1.17 1.17 0 0 1-1.1.771zM80.665 184.149a1.17 1.17 0 0 1-1.154-1.374l.93-5.276a1.17 1.17 0 1 1 2.306.406l-.93 5.276c-.1.567-.594.968-1.152.968zM110.407 15.47a1.17 1.17 0 0 1-1.154-1.374l.931-5.276a1.171 1.171 0 0 1 2.306.406l-.93 5.276c-.101.567-.594.968-1.153.968zM89.526 23.183c-.601 0-1.112-.46-1.165-1.069L87.136 8.12a1.17 1.17 0 1 1 2.333-.204l1.224 13.995a1.17 1.17 0 0 1-1.167 1.273zM103.696 185.154c-.6 0-1.112-.46-1.165-1.068l-1.224-13.996a1.17 1.17 0 1 1 2.332-.204l1.225 13.996a1.17 1.17 0 0 1-1.168 1.272zM76.777 25.431a1.17 1.17 0 0 1-1.13-.867l-3.637-13.57a1.17 1.17 0 1 1 2.262-.607l3.636 13.57a1.17 1.17 0 0 1-1.131 1.474zM118.858 182.48a1.17 1.17 0 0 1-1.13-.867l-3.636-13.57a1.17 1.17 0 1 1 2.261-.606l3.637 13.57a1.17 1.17 0 0 1-1.132 1.474zM64.613 29.859a1.17 1.17 0 0 1-1.062-.676L57.614 16.45a1.17 1.17 0 1 1 2.122-.99l5.937 12.734a1.17 1.17 0 0 1-1.06 1.665zM133.326 177.215a1.17 1.17 0 0 1-1.062-.676l-5.937-12.733a1.17 1.17 0 1 1 2.122-.989l5.937 12.733a1.17 1.17 0 0 1-1.06 1.665zM53.401 36.332a1.17 1.17 0 0 1-.96-.5l-8.058-11.508a1.171 1.171 0 0 1 1.918-1.343L54.36 34.49a1.171 1.171 0 0 1-.959 1.842zM146.66 169.518a1.17 1.17 0 0 1-.961-.5l-8.058-11.508a1.171 1.171 0 0 1 1.918-1.343l8.058 11.509a1.171 1.171 0 0 1-.958 1.842zM43.483 44.654c-.3 0-.6-.115-.828-.343l-9.934-9.934a1.17 1.17 0 0 1 1.656-1.656l9.934 9.934a1.17 1.17 0 0 1-.828 1.999zM158.451 159.622c-.299 0-.599-.115-.827-.343l-9.934-9.934a1.17 1.17 0 0 1 1.655-1.656l9.934 9.934a1.17 1.17 0 0 1-.828 1.999zM35.16 54.571c-.232 0-.466-.069-.67-.212L22.98 46.301a1.171 1.171 0 0 1 1.344-1.918l11.508 8.058a1.171 1.171 0 0 1-.673 2.13zM168.346 147.829c-.232 0-.466-.069-.67-.212l-11.509-8.058a1.171 1.171 0 0 1 1.344-1.918l11.508 8.058a1.171 1.171 0 0 1-.673 2.13zM28.688 65.783a1.16 1.16 0 0 1-.494-.11L15.46 59.736a1.17 1.17 0 1 1 .99-2.122l12.732 5.937a1.17 1.17 0 0 1-.495 2.232zM176.044 134.496c-.166 0-.334-.035-.495-.11l-12.732-5.937a1.17 1.17 0 1 1 .99-2.122l12.732 5.937a1.17 1.17 0 0 1-.495 2.232zM24.261 77.949c-.1 0-.202-.013-.304-.04l-13.57-3.637a1.17 1.17 0 1 1 .606-2.261l13.57 3.636a1.17 1.17 0 0 1-.302 2.302zM181.31 120.03c-.1 0-.202-.013-.304-.04l-13.57-3.637a1.17 1.17 0 1 1 .606-2.261l13.57 3.636a1.17 1.17 0 0 1-.302 2.302zM22.013 90.698c-.035 0-.069-.002-.104-.005L7.914 89.468a1.17 1.17 0 1 1 .204-2.332l13.996 1.224a1.17 1.17 0 0 1-.101 2.338zM183.985 104.868c-.034 0-.069-.001-.103-.004l-13.996-1.225a1.17 1.17 0 1 1 .203-2.332l13.996 1.224a1.17 1.17 0 0 1-.1 2.337zM8.016 104.868a1.17 1.17 0 0 1-.101-2.336l13.995-1.225a1.165 1.165 0 0 1 1.268 1.065 1.17 1.17 0 0 1-1.064 1.268L8.12 104.864c-.035.003-.07.004-.103.004zM169.987 90.698a1.17 1.17 0 0 1-.1-2.337l13.995-1.225c.648-.06 1.211.421 1.268 1.065a1.17 1.17 0 0 1-1.064 1.268l-13.996 1.224c-.035.003-.07.005-.103.005zM10.69 120.03a1.17 1.17 0 0 1-.303-2.302l13.57-3.636a1.17 1.17 0 1 1 .607 2.261l-13.57 3.637c-.102.027-.205.04-.305.04zM167.739 77.949a1.17 1.17 0 0 1-.302-2.302l13.57-3.636a1.17 1.17 0 1 1 .606 2.261l-13.57 3.636c-.102.028-.204.04-.304.04zM15.956 134.496a1.17 1.17 0 0 1-.495-2.232l12.733-5.937a1.17 1.17 0 1 1 .989 2.122l-12.733 5.937c-.16.075-.328.11-.494.11zM163.313 65.783a1.17 1.17 0 0 1-.496-2.232l12.732-5.937a1.172 1.172 0 0 1 .99 2.122l-12.732 5.937c-.16.075-.328.11-.494.11zM23.654 147.829a1.17 1.17 0 0 1-.672-2.13l11.508-8.058a1.17 1.17 0 1 1 1.343 1.918l-11.508 8.058a1.167 1.167 0 0 1-.67.212zM156.84 54.571a1.17 1.17 0 0 1-.673-2.13l11.508-8.057a1.17 1.17 0 1 1 1.343 1.918L157.51 54.36a1.17 1.17 0 0 1-.67.211zM33.549 159.622a1.17 1.17 0 0 1-.828-1.998l9.935-9.935a1.17 1.17 0 0 1 1.655 1.656l-9.934 9.934a1.17 1.17 0 0 1-.828.343zM148.518 44.654a1.17 1.17 0 0 1-.828-1.998l9.934-9.935a1.17 1.17 0 0 1 1.656 1.656l-9.934 9.934c-.23.228-.53.343-.828.343zM45.34 169.518a1.171 1.171 0 0 1-.958-1.842l8.06-11.51a1.172 1.172 0 0 1 1.918 1.344L46.3 169.018a1.17 1.17 0 0 1-.96.5zM138.599 36.332a1.171 1.171 0 0 1-.958-1.842l8.057-11.509a1.171 1.171 0 0 1 1.919 1.343l-8.058 11.508a1.17 1.17 0 0 1-.96.5zM58.674 177.215a1.17 1.17 0 0 1-1.06-1.666l5.937-12.732a1.171 1.171 0 0 1 2.122.989l-5.938 12.733a1.17 1.17 0 0 1-1.061.676zM127.388 29.859a1.17 1.17 0 0 1-1.06-1.666l5.936-12.732a1.17 1.17 0 0 1 2.122.989l-5.937 12.733a1.17 1.17 0 0 1-1.061.676zM73.142 182.48a1.17 1.17 0 0 1-1.131-1.474l3.636-13.57a1.17 1.17 0 1 1 2.261.606l-3.636 13.57a1.17 1.17 0 0 1-1.13.869zM115.224 25.431a1.17 1.17 0 0 1-1.131-1.474l3.635-13.57a1.17 1.17 0 1 1 2.261.606l-3.636 13.57c-.14.523-.613.868-1.13.868zM88.303 185.154a1.17 1.17 0 0 1-1.167-1.273l1.225-13.995a1.17 1.17 0 1 1 2.332.204l-1.225 13.995a1.17 1.17 0 0 1-1.165 1.069zM102.474 23.183a1.17 1.17 0 0 1-1.167-1.273l1.224-13.996a1.165 1.165 0 0 1 1.268-1.064 1.17 1.17 0 0 1 1.064 1.268l-1.224 13.996a1.17 1.17 0 0 1-1.165 1.069z"/>
            <path d="M107.598 107.598l51.73-74.927-74.926 51.731-51.73 74.927z"/>
        </g>
        <path fill="#CCC" d="M107.598 107.598l51.73-74.927L32.672 159.33z"/>
        <path fill="#FF525D" d="M107.598 107.598l51.73-74.927-74.926 51.731z"/>
        <path fill="#EF4152" d="M107.598 107.598l51.73-74.927L96 96z"/>
    </g>
</svg>
