<?xml version="1.0" encoding="UTF-8"?>
<svg width="52px" height="52px" viewBox="0 0 52 52" version="1.1" xmlns="http://www.w3.org/2000/svg"
     xmlns:xlink="http://www.w3.org/1999/xlink">
    <g stroke="none" stroke-width="1" fill="none" fill-rule="evenodd">
        <g transform="translate(-1172.000000, -100.000000)">
            <g transform="translate(100.000000, 100.000000)">
                <g transform="translate(1072.000000, 0.000000)">
                    <path d="M17.4000063,50.5785936 C15.3036511,49.85973 14.1895448,47.5840583 14.9115802,45.4957384 C15.6336156,43.4074186 17.9183726,42.2972549 20.0147278,43.0161184 C24.6099436,44.5918691 29.5338415,44.2547844 33.8159745,42.1740955 C38.0981075,40.0934066 41.3961886,36.4354309 42.978892,31.8578286 C46.2280513,22.4603892 41.2145729,12.2198662 31.7809745,8.98498026 C22.3473761,5.75009427 12.0659696,10.7458308 8.81681028,20.1432701 C8.62253383,20.7051697 8.45682199,21.2724838 8.31966079,21.8439336 C8.18161076,22.4190865 8.07255621,22.9981272 7.99244081,23.5795884 C7.6909548,25.7677118 5.66583847,27.298392 3.46921688,26.9984582 C1.27259529,26.6985244 -0.263715647,24.6815554 0.0377703594,22.493432 C0.15363184,21.6525331 0.311234973,20.8157167 0.510531704,19.9853939 C0.708056352,19.1624541 0.946362514,18.3466134 1.22523657,17.5400349 C5.91846669,3.9659559 20.7693872,-3.25010799 34.395696,1.42250511 C48.0220047,6.0951182 55.2636958,20.8869848 50.5704657,34.4610638 C48.2871671,41.0649751 43.5123507,46.3608311 37.3351405,49.3623382 C31.1579303,52.3638453 24.0293278,52.8518618 17.4000063,50.5785936 Z"
                          fill="#eb2256" fill-rule="nonzero" class="outer-ring" />
                    <path d="M17.4830847,42.9888055 C15.6093248,42.0476047 13.9127631,40.8055312 12.4568007,39.3259859 C16.372831,36.1202922 20.5044631,33.0969965 24.8473289,30.2766499 C26.6998169,29.0736061 27.2263149,26.596578 26.0232952,24.7440528 C24.8202754,22.8915277 22.343297,22.3650191 20.490809,23.568063 C16.1783801,26.3686433 12.0628216,29.3583727 8.14795468,32.519274 C7.40524908,30.4860287 7,28.2903398 7,26 C7,25.9026289 7.00073246,25.8054289 7.00219216,25.7084052 C7.52129032,25.1336491 7.87896257,24.4031901 7.99244081,23.5795884 C8.07255621,22.9981272 8.18161076,22.4190865 8.31966079,21.8439336 C8.45682199,21.2724838 8.62253383,20.7051697 8.81681028,20.1432701 C12.0659696,10.7458308 22.3473761,5.75009427 31.7809745,8.98498026 C41.2145729,12.2198662 46.2280513,22.4603892 42.978892,31.8578286 C41.3961886,36.4354309 38.0981075,40.0934066 33.8159745,42.1740955 C29.5338415,44.2547844 24.6099436,44.5918691 20.0147278,43.0161184 C19.1627851,42.7239778 18.279727,42.7339097 17.4830847,42.9888055 Z"
                          fill="#121326" class="inner-circle" />
                </g>
            </g>
        </g>
    </g>
</svg>
