<svg xmlns="http://www.w3.org/2000/svg" width="1193" height="1656" viewBox="0 0 1193 1656">
    <g fill="#709CF0" fill-rule="evenodd" opacity=".3">
        <path d="M103.74 1165.07c6.823 0 12.354 5.53 12.354 12.357 0 6.822-5.53 12.355-12.354 12.355-6.823 0-12.355-5.533-12.355-12.355 0-6.826 5.532-12.358 12.355-12.358"/>
        <path d="M114.824 1177.431c0-6.126-4.971-11.1-11.082-11.1-6.122 0-11.09 4.974-11.09 11.1 0 6.11 4.97 11.079 11.09 11.079 6.11 0 11.082-4.969 11.082-11.079m-24.703 0c0-7.517 6.114-13.627 13.62-13.627 7.515 0 13.615 6.112 13.615 13.627 0 7.51-6.1 13.607-13.614 13.607-7.51.005-13.621-6.096-13.621-13.607M491.957 289.428a4.685 4.685 0 1 1 0 9.37 4.685 4.685 0 0 1 0-9.37M528.323 254.428c5.836 0 10.567 4.732 10.567 10.569 0 5.837-4.73 10.57-10.567 10.57s-10.568-4.733-10.568-10.57c0-5.837 4.731-10.57 10.568-10.57M565.816 233.273a4.693 4.693 0 1 1 0 9.387 4.693 4.693 0 0 1 0-9.387M609.215 211.182a4.692 4.692 0 1 1-9.386.002 4.692 4.692 0 0 1 9.386-.002M366.06 703.56a4.694 4.694 0 0 1-9.386 0 4.693 4.693 0 0 1 9.385 0M1764.337 693a729.319 729.319 0 0 0-68.364-78.906c-136.245-136.29-317.55-211.335-510.512-211.335-73.888 0-146.037 11.046-214.641 32.28l9.634 29.67c65.52-20.247 134.44-30.783 205.007-30.783 184.638 0 358.116 71.814 488.484 202.219a699.268 699.268 0 0 1 65.164 75.192L1764.337 693zm-2.797-.428l-22.02 16.006a704.084 704.084 0 0 0-64.175-73.833c-130.732-130.776-304.716-202.8-489.888-202.8-69.484 0-138.014 10.186-203.728 30.289l-8.41-25.89c68.43-20.97 139.785-31.606 212.133-31.606 192.438 0 373.243 74.85 509.11 210.756 23.974 23.955 46.497 49.874 66.978 77.078zM1185.52 2249.178v-2.531c151.437 0 298.346-29.663 436.64-88.168 133.584-56.506 253.553-137.403 356.57-240.442 103.02-103.047 183.908-223.03 240.407-356.63 58.493-138.325 88.15-285.26 88.15-436.718h2.536c0 151.803-29.73 299.067-88.354 437.706-56.625 133.902-137.695 254.159-240.946 357.43-103.252 103.27-223.49 184.359-357.374 240.99-138.614 58.636-285.848 88.363-437.63 88.363"/>
        <path d="M61.225 1124.693c0-151.807 29.725-299.07 88.347-437.71 56.636-133.903 137.693-254.16 240.95-357.43 103.253-103.269 223.489-184.35 357.369-240.995C886.5 29.925 1033.745.198 1185.52.198c151.782 0 299.015 29.727 437.632 88.36 133.878 56.645 254.116 137.721 357.373 240.995 103.253 103.27 184.316 223.527 240.946 357.43 58.63 138.634 88.355 285.903 88.355 437.71h-2.536c0-151.466-29.658-298.398-88.15-436.72-56.499-133.6-137.385-253.594-240.408-356.627C1875.71 228.304 1755.745 147.411 1622.165 90.9c-138.3-58.509-285.21-88.173-436.645-88.173-151.433 0-298.347 29.664-436.643 88.173-133.582 56.507-253.552 137.405-356.571 240.447C289.286 434.38 208.4 554.374 151.9 687.972c-58.486 138.323-88.143 285.255-88.143 436.721 0 151.461 29.657 298.397 88.143 436.718 56.5 133.602 137.386 253.584 240.406 356.63 103.02 103.037 222.989 183.936 356.571 240.442 138.296 58.505 285.21 88.17 436.643 88.17v2.532c-151.775 0-299.02-29.728-437.63-88.365-133.889-56.646-254.12-137.722-357.372-240.991-103.258-103.27-184.313-223.527-240.95-357.428-58.623-138.641-88.343-285.905-88.343-437.708"/>
        <path d="M1185.52 2170.787v-7.595c140.175 0 276.157-27.46 404.166-81.612 123.644-52.298 234.686-127.183 330.043-222.558 95.362-95.379 170.227-206.44 222.526-330.098 54.144-128.033 81.593-264.04 81.593-404.239h7.59c0 141.221-27.662 278.218-82.195 407.185-52.673 124.573-128.093 236.443-224.148 332.521-96.056 96.075-207.91 171.492-332.456 224.179-128.95 54.553-265.923 82.217-407.12 82.217"/>
        <path d="M142.133 1124.693c0-140.886 27.583-277.55 81.994-406.206C276.68 594.214 351.914 482.61 447.737 386.77c95.827-95.831 207.408-171.077 331.649-223.639 128.639-54.42 265.28-82.013 406.133-82.013 140.858 0 277.5 27.593 406.131 82.013 124.25 52.557 235.834 127.804 331.652 223.639 95.827 95.839 171.052 207.444 223.609 331.717 54.405 128.655 81.994 265.32 81.994 406.206h-2.526c0-140.537-27.518-276.877-81.795-405.215-52.427-123.97-127.475-235.3-223.064-330.907-95.59-95.608-206.908-170.67-330.849-223.099-128.324-54.288-264.633-81.81-405.15-81.81-140.513 0-276.824 27.524-405.143 81.81C656.43 217.9 545.117 292.968 449.531 388.571c-95.593 95.608-170.64 206.937-223.07 330.907-54.274 128.343-81.797 264.677-81.797 405.215 0 140.537 27.523 276.87 81.797 405.22 52.43 123.958 127.477 235.292 223.07 330.9 95.584 95.602 206.899 170.668 330.847 223.097 128.319 54.289 264.63 81.811 405.144 81.811v2.535c-140.854 0-277.5-27.592-406.132-82.008-124.242-52.562-235.823-127.814-331.65-223.652-95.823-95.84-171.056-207.437-223.61-331.705-54.413-128.665-81.997-265.324-81.997-406.198"/>
        <path d="M258.294 1124.582c0-144.318 33.951-288.4 101.588-421.192l2.245 1.146c-67.428 132.408-101.3 276.137-101.307 420.04-.01 127.853 26.717 255.835 80.363 376.298 50.782 114.008 122.357 214.648 212.753 299.138 87.318 81.617 188.426 144.817 300.506 187.824 112.09 43 229.502 63.648 348.99 61.39 123.707-2.339 244.225-29.275 358.211-80.06l1.026 2.316c-114.296 50.911-235.14 77.918-359.188 80.28-119.813 2.267-237.555-18.449-349.945-61.577-112.387-43.118-213.767-106.484-301.32-188.323-90.646-84.731-162.431-185.646-213.333-299.966-53.798-120.76-80.589-249.127-80.589-377.314M2260.968 1128.117l.005-1.078h12.65l-.004 1.157-12.65-.08zm-.19-24.468l12.645-.25.022 1.115-12.646.258-.021-1.123zm-.135 47.887l.03-1.154 12.646.333-.028 1.073-12.648-.252zm-.57-71.212l12.641-.5.047 1.11-12.64.508-.048-1.118zm-.248 94.577l.053-1.163 12.632.597-.044 1.074-12.641-.508zm-.94-117.925l12.622-.754.067 1.066-12.617.847-.073-1.16zm-.38 141.222l.078-1.11 12.617.846-.074 1.104-12.62-.84zm-1.328-164.504l12.603-1.086.099 1.152-12.611 1.008-.091-1.074zm-.492 187.776l.096-1.063 12.604 1.07-.101 1.173-12.6-1.18zm-1.708-211.043l12.575-1.346.12 1.124-12.58 1.326-.115-1.104zm-.626 234.363l.126-1.158 12.567 1.418-.114 1.069-12.579-1.329zm-2.082-257.596l12.548-1.595.145 1.11-12.55 1.596-.143-1.11zm-.751 280.797l.148-1.149 12.534 1.673-.142 1.067-12.54-1.591zm-2.456-303.954l12.515-1.85.16 1.08-12.496 1.911-.18-1.14zm-.876 327.058l.17-1.111 12.5 1.93-.168 1.105-12.502-1.924zm-2.833-350.106l12.456-2.176.2 1.14-12.472 2.097-.184-1.06zm-.996 373.12l.187-1.047 12.459 2.17-.205 1.152-12.441-2.276zm-3.217-396.11l12.408-2.434.216 1.114-12.42 2.413-.204-1.093zm-1.137 419.136l.23-1.142 12.389 2.516-.21 1.051-12.41-2.425zm-3.576-442.043l12.362-2.671.232 1.087-12.353 2.688-.241-1.104zm-1.26 464.906l.245-1.123 12.346 2.749-.233 1.065-12.358-2.691zM2231.21 872.3l12.304-2.928.251 1.05-12.284 3.005-.271-1.127zm-1.374 510.417l.26-1.075 12.285 3.005-.264 1.092-12.281-3.022zm-4.326-533.043l12.216-3.262.288 1.078-12.217 3.267-.287-1.083zm-1.507 555.648l.285-1.045 12.213 3.263-.304 1.121-12.194-3.339zm-4.699-578.183l12.147-3.524.323 1.11-12.174 3.447-.296-1.033zm-1.627 600.685l.307-1.033 12.15 3.519-.33 1.109-12.127-3.595zm-5.074-623.082l12.072-3.775.34 1.083-12.083 3.753-.33-1.06zm-1.756 645.486l.346-1.097 12.058 3.826-.331 1.052-12.073-3.781zm-5.437-667.732l11.996-4.025.36 1.075-11.999 4.002-.357-1.052zm-1.89 689.978l.358-1.045 11.97 4.08-.364 1.077-11.964-4.112zm-5.775-712.055l11.898-4.271.378 1.047-11.902 4.276-.374-1.052zm-2.053 734.192l.381-1.054 11.884 4.326-.384 1.057-11.881-4.329zm-6.108-756.1l11.812-4.526.386 1.002-11.783 4.6-.415-1.076zm-2.198 778.035l.41-1.055 11.783 4.594-.405 1.034-11.788-4.573zm-6.436-799.762l11.715-4.766.405.982-11.68 4.868-.44-1.084zm-2.33 821.455l.415-1.008 11.688 4.85-.455 1.071-11.649-4.913zm-6.727-842.885l11.6-5.042.443 1.02-11.6 5.043-.443-1.021zm-2.521 864.412l.43-.98 11.582 5.09-.475 1.075-11.537-5.185zm-7.02-885.675l11.493-5.286.456 1.008-11.471 5.314-.479-1.036zm-2.714 907.017l.47-.994 11.454 5.359-.482 1.023-11.442-5.388zm-7.28-928.041l11.37-5.556.493 1.025-11.378 5.523-.485-.992zm-2.887 949.116l.476-.959 11.34 5.59-.52 1.062-11.296-5.693zm-7.567-969.948l11.245-5.785.502.973-11.225 5.822-.522-1.01zm-3.098 990.87l.528-1.016 11.213 5.858-.51.98-11.231-5.823zm-7.8-1011.454l11.104-6.057.542.999-11.118 6.022-.528-.964zm-3.277 1032.052l.533-.972 11.081 6.09-.546 1.007-11.068-6.125zm-8.09-1052.412l10.978-6.286.563.985-10.994 6.254-.548-.953zm-3.446 1072.786l.56-.97 10.935 6.361-.562.966-10.933-6.357zm-8.342-1092.889l10.824-6.54.593.985-10.86 6.485-.557-.93zm-3.657 1113.047l.608-1.003 10.79 6.608-.559.901-10.839-6.506zm-8.593-1132.934l10.711-6.721.576.906-10.66 6.802-.627-.987zm-3.811 1152.771l.618-.968 10.659 6.797-.582.922-10.695-6.751zm-8.845-1172.343l10.548-6.98.608.91-10.524 7.02-.632-.95zm-3.95 1191.847l.592-.875 10.523 7.018-.656.982-10.46-7.125zm-9.127-1211.164l10.39-7.207.636.904-10.384 7.233-.642-.93zm-4.14 1230.469l.634-.895 10.356 7.26-.662.941-10.328-7.306zm-9.364-1249.49l10.222-7.453.67.93-10.252 7.405-.64-.883zm-4.323 1268.51l.68-.934 10.175 7.51-.64.878-10.215-7.453zm-9.602-1287.267l10.076-7.641.667.87-10.054 7.68-.689-.91zm-4.465 1305.935l.683-.886 10.04 7.703-.68.885-10.043-7.702zm-9.845-1324.357l9.889-7.883.726.912-9.954 7.81-.66-.839zm-4.62 1342.73l.709-.875 9.847 7.932-.693.857-9.862-7.914zM2013.404 438.07l9.737-8.063.698.843-9.712 8.1-.723-.88zm-4.725 1378.884l.68-.815 9.702 8.113-.761.898-9.621-8.196zm-10.382-1396.673l9.545-8.3.736.844-9.545 8.3-.736-.844zm-4.89 1414.436l.731-.846 9.512 8.334-.733.84-9.51-8.328zM1982.797 402.78l9.393-8.474.722.794-9.33 8.542-.785-.862zm-5.033 1449.328l.775-.842 9.313 8.563-.733.8-9.355-8.521zm-10.817-1466.45l9.173-8.713.797.844-9.23 8.655-.74-.786zm-5.148 1483.47l.758-.792 9.145 8.72-.793.84-9.11-8.768zm-11.099-1500.292l9.005-8.871.784.793-9.002 8.88-.787-.802zm-5.264 1516.985l.787-.787 8.936 8.949-.79.79-8.933-8.952zm-11.333-1533.424l8.817-9.075.79.772-8.791 9.087-.816-.784zm-5.395 1549.778l.832-.797 8.724 9.156-.78.755-8.776-9.114zm-11.554-1565.865l8.603-9.271.83.77-8.623 9.253-.81-.752zm-5.472 1581.798l.807-.735 8.557 9.308-.841.78-8.523-9.353zM1899.86 320.587l8.396-9.446.83.734-8.39 9.47-.836-.758zm-5.555 1613.104l.795-.699 8.386 9.468-.89.78-8.291-9.55zM1882.22 305.239l8.196-9.629.858.728-8.2 9.627-.854-.726zm-5.678 1643.692l.86-.719 8.154 9.67-.858.718-8.156-9.67zM1864.25 290.279l7.994-9.796.854.684-7.965 9.834-.883-.722zm-5.732 1673.461l.866-.691 7.93 9.844-.88.71-7.916-9.863zm-12.555-1688.042l7.79-9.96.863.672-7.746 9.997-.907-.709zm-5.813 1702.474l.907-.701 7.695 10.042-.87.67-7.732-10.012zm-12.795-1716.644l7.574-10.13.87.645-7.512 10.182-.932-.697zm-5.869 1730.666l.91-.676 7.493 10.197-.89.655-7.513-10.176zm-13.023-1744.43l7.323-10.305.9.636-7.292 10.333-.931-.664zm-5.893 1758.008l.869-.603 7.305 10.326-.963.673-7.211-10.396zm-13.315-1771.38l7.11-10.456.927.632-7.115 10.462-.922-.638zm-5.95 1784.6l.92-.623 7.057 10.505-.926.621-7.052-10.503zm-13.546-1797.54l6.892-10.609.927.606-6.862 10.626-.957-.623zm-6.001 1810.333l.967-.618 6.806 10.66-.913.584-6.86-10.626zm-13.766-1822.84l6.637-10.764.972.601-6.675 10.748-.934-.585zm-6.023 1835.188l.999-.61 6.549 10.825-.898.54-6.65-10.755zM1729.94 196.851l6.418-10.898.95.557-6.38 10.922-.988-.58zm-5.959 1859.147l.924-.529 6.377 10.93-1.013.592-6.288-10.993zM1709.64 185.204l6.178-11.031.958.537-6.152 11.05-.984-.556zm-5.974 1882.284l.957-.529 6.118 11.07-.982.542-6.093-11.083zm-14.586-1893.486l5.924-11.174 1.01.534-5.962 11.156-.972-.516zm-5.952 1904.506l.967-.497 5.892 11.187-1.003.526-5.856-11.216zm-14.855-1915.266l5.698-11.295.998.499-5.692 11.3-1.004-.504zm-5.927 1925.858l1.013-.504 5.622 11.329-.98.482-5.655-11.307zm-15.096-1936.15l5.422-11.427 1.05.502-5.486 11.388-.986-.463zm-5.875 1946.26l1.006-.475 5.383 11.442-1.002.478-5.387-11.446zm-15.392-1956.106l5.18-11.54 1.03.46-5.194 11.539-1.016-.459zm-5.792 1965.75l1.01-.445 5.138 11.559-1.033.46-5.115-11.573zm-15.675-1975.12l4.912-11.657 1.067.45-4.974 11.63-1.005-.423zm-5.732 1984.32l1.04-.44 4.873 11.682-1.018.425-4.895-11.666zm-15.959-1993.226l4.67-11.753 1.045.413-4.67 11.755-1.045-.415zm-5.663 2001.95l1.093-.421 4.592 11.787-.99.383-4.695-11.75zm-16.22-2010.383l4.42-11.849 1.05.393-4.42 11.847-1.05-.391zm-5.587 2018.644l1.054-.38 4.35 11.874-1.055.388-4.35-11.882zM1538.878 108.45l4.178-11.942 1.027.362-4.107 11.96-1.098-.38zm-5.562 2034.386l1.062-.37 4.098 11.973-1.06.36-4.1-11.963zm-16.664-2041.843l3.888-12.035 1.058.341-3.866 12.048-1.08-.354zm-5.527 2049.159l1.063-.345 3.853 12.06-1.07.342-3.846-12.057zM1494.25 94.019l3.632-12.108 1.062.313-3.614 12.119-1.08-.324zm-5.446 2062.946l1.04-.29 3.592 12.11-1.114.33-3.518-12.15zm-17.005-2069.39l3.337-12.202 1.113.306-3.405 12.182-1.045-.287zm-5.544 2075.737l1.132-.305 3.266 12.227-1.036.28-3.362-12.202zM1449.188 81.608l3.111-12.266 1.074.277-3.085 12.262-1.1-.273zm-5.564 2087.547l1.14-.28 3.008 12.284-1.034.263-3.114-12.267zM1426.489 76.15l2.806-12.332 1.087.245-2.794 12.342-1.099-.255zm-5.57 2098.336l1.084-.244 2.77 12.342-1.102.251-2.753-12.35zM1403.645 71.187l2.555-12.397 1.1.224-2.56 12.395-1.095-.222zm-5.598 2108.146l1.098-.22 2.511 12.399-1.095.22-2.514-12.399zM1380.723 66.726l2.26-12.455 1.105.2-2.27 12.452-1.095-.197zm-5.605 2116.94l1.07-.189 2.254 12.454-1.134.197-2.19-12.461zM1357.681 62.755l2.01-12.49 1.1.178-1.999 12.486-1.111-.174zm-5.659 2124.762l1.143-.18 1.934 12.504-1.079.157-1.998-12.481zm-17.441-2128.22l1.712-12.53 1.115.155-1.724 12.526-1.103-.15zm-5.664 2131.557l1.118-.152 1.672 12.537-1.102.153-1.688-12.538zM1311.39 56.331l1.471-12.56 1.114.128-1.47 12.562-1.115-.13zm-5.67 2137.354l1.114-.13 1.425 12.583-1.112.122-1.427-12.575zM1288.165 53.882l1.171-12.592 1.112.111-1.17 12.594-1.113-.113zm-5.661 2142.133l1.07-.094 1.172 12.604-1.153.096-1.09-12.606zM1264.872 51.93l.92-12.613 1.12.08-.921 12.615-1.119-.082zm-5.723 2145.916l1.16-.072.834 12.611-1.074.08-.92-12.619zm-17.593-2147.37l.628-12.632 1.12.058-.625 12.637-1.123-.062zm-5.704 2148.7l1.113-.054.586 12.636-1.12.054-.58-12.636zM1218.2 49.528l.38-12.64 1.117.032-.377 12.642-1.12-.034zM1212.486 2200l1.118-.035.338 12.655-1.118.026-.338-12.646zM1194.824 49.082l.12-12.65 1.097.008-.08 12.655-1.137-.013zm-5.663 2163.89v-12.651h1.075l.092 12.65h-1.167zm-4.762.009h1.12v-12.65h-1.12v12.65zM1171.296 36.49l1.122-.019.16 12.65-1.11.01-.172-12.642zm-10.565 2176.208l.335-12.646 1.071.02-.25 12.652-1.156-.026zM1147.704 37.047l1.091-.044.468 12.645-1.138.036-.421-12.637zm-10.552 2174.874l.506-12.638 1.126.047-.51 12.643-1.122-.052zM1124.075 38.103l1.141-.062.671 12.63-1.1.066-.712-12.634zm-10.506 2172.534l.747-12.628 1.153.071-.825 12.624-1.075-.067zM1100.499 39.67l1.096-.086 1.003 12.612-1.146.093-.954-12.62zm-10.544 2169.167l1.082-12.6 1.111.095-1.069 12.612-1.124-.107zM1076.932 41.746l1.141-.101 1.212 12.587-1.094.106-1.259-12.592zm-10.535 2164.789l1.42-12.576 1.076.113-1.345 12.584-1.15-.121zm-12.95-2162.204l1.087-.137 1.549 12.554-1.13.14-1.506-12.557zm-10.463 2159.398l1.583-12.557 1.116.14-1.586 12.558-1.113-.14zm-12.985-2156.3l1.132-.16 1.76 12.529-1.094.156-1.798-12.526zm-10.413 2152.976l1.834-12.517 1.15.179-1.93 12.497-1.054-.16zM1006.65 51.035l1.077-.186 2.1 12.472-1.132.192-2.045-12.477zm-10.438 2145.528l2.184-12.453 1.087.185-2.176 12.465-1.095-.197zM983.356 55.146l1.118-.211 2.302 12.433-1.072.205-2.348-12.427zm-10.4 2137.072l2.497-12.393 1.062.207-2.427 12.417-1.133-.231zM960.178 59.768l1.06-.228 2.645 12.36-1.123.24-2.582-12.371zm-10.366 2127.614l2.765-12.35 1.048.234-2.675 12.362-1.138-.246zM937.083 64.893l1.104-.259 2.854 12.32-1.066.255-2.892-12.316zm-10.258 2117.14l2.939-12.3 1.129.278-3.015 12.28-1.053-.257zM914.132 70.524l1.088-.28 3.128 12.254-1.072.276-3.144-12.25zm-10.24 2105.648l3.264-12.212 1.087.283-3.265 12.224-1.087-.295zM891.267 76.652l1.078-.302 3.45 12.175-1.078.299-3.45-12.172zm-10.133 2093.172l3.52-12.151 1.07.304-3.52 12.152-1.07-.305zM868.611 83.285l1.054-.325 3.686 12.098-1.069.325-3.671-12.098zm-10.136 2079.673l3.825-12.055 1.043.321-3.752 12.078-1.116-.344zM846.062 90.403l1.032-.343 3.984 12.014-1.09.355-3.926-12.026zM835.935 2155.59l4.035-11.989 1.08.374-4.073 11.977-1.042-.362zM823.673 98.022l1.029-.37 4.253 11.92-1.077.38-4.205-11.93zm-10.111 2049.71l4.27-11.901 1.087.397-4.322 11.888-1.035-.384zM801.45 106.14l1.082-.41 4.411 11.855-1.01.38-4.483-11.825zM791.377 2139.38l4.497-11.826 1.1.426-4.601 11.793-.996-.393zM779.425 114.724l1.054-.425 4.694 11.75-1.017.406-4.731-11.73zm-10.092 2015.807l4.837-11.687 1.038.432-4.844 11.687-1.03-.432zM757.68 123.754l1.022-.436 4.974 11.62-1.025.446-4.971-11.63zm-10.173 1997.453l5.116-11.572 1.02.455-5.087 11.575-1.049-.458zM736.121 133.261l1.01-.458 5.25 11.507-1.039.473-5.22-11.522zm-10.171 1978.17l5.32-11.481 1.029.48-5.358 11.467-.991-.467zM714.785 143.232l.961-.462 5.527 11.374-1.04.504-5.448-11.416zM704.57 2101.164l5.584-11.347 1.013.504-5.589 11.34-1.008-.497zM693.641 153.681l.999-.503 5.714 11.28-.989.504-5.724-11.281zM683.45 2090.445l5.807-11.227 1.018.53-5.849 11.21-.976-.513zM672.74 164.58l.963-.518 5.994 11.14-.998.54-5.96-11.162zm-10.183 1914.692l6.056-11.103.996.543-6.084 11.085-.968-.525zM652.053 175.94l.998-.56 6.185 11.036-.964.539-6.219-11.015zm-10.126 1891.71l6.292-10.975.999.582-6.347 10.937-.944-.544zM631.64 187.745l.942-.562 6.492 10.857-.98.585-6.454-10.88zM621.53 2055.57l6.564-10.818.957.576-6.558 10.823-.963-.581zM611.475 199.99l.947-.584 6.705 10.73-.971.6-6.681-10.747zm-10.088 1843.046l6.874-10.634.89.571-6.763 10.697-1-.634zm-9.82-1830.35l.972-.628 6.855 10.622-.893.588-6.935-10.583zm-9.957 1817.428l7.02-10.52.93.62-7.015 10.528-.934-.628zm-9.662-1804.316l.937-.636 7.13 10.442-.92.633-7.147-10.44zm-9.853 1790.963l7.202-10.395.95.67-7.27 10.357-.882-.632zm-9.479-1777.429l.886-.638 7.4 10.26-.924.665-7.362-10.287zm-9.8 1763.613l7.513-10.175.875.636-7.458 10.216-.93-.677zm-9.243-1749.653l.875-.659 7.61 10.102-.916.685-7.57-10.128zm-9.663 1735.46l7.694-10.04.885.676-7.697 10.042-.882-.677zm-9.074-1721.1l.86-.667 7.827 9.931-.897.707-7.79-9.97zm-9.53 1706.51l7.881-9.895.868.7-7.88 9.893-.868-.698zm-8.893-1691.737l.823-.682 8.078 9.746-.9.735-8.001-9.8zM487 1959.155l8.106-9.703.866.719-8.117 9.706-.855-.721zm-8.697-1661.562l.816-.7 8.268 9.572-.878.753-8.206-9.625zm-9.287 1646.151l8.376-9.47.805.691-8.298 9.557-.883-.778zm-8.488-1630.598l.801-.708 8.468 9.391-.865.77-8.404-9.453zm-9.12 1614.835l8.552-9.318.811.737-8.517 9.352-.846-.771zm-8.357-1598.878l.845-.78 8.607 9.272-.8.745-8.652-9.237zm-8.907 1582.742l8.73-9.146.806.773-8.72 9.144-.816-.77zM425.97 345.423l.807-.79 8.812 9.07-.79.769-8.829-9.049zm-8.734 1549.926l8.904-8.988.816.809-8.948 8.954-.772-.775zm-8.003-1533.25l.743-.769 9.07 8.819-.816.828-8.997-8.878zm-8.564 1516.363l9.11-8.766.78.797-9.11 8.78-.78-.811zM392.826 379.16l.764-.81 9.233 8.65-.764.812-9.233-8.652zm-8.324 1482.097l9.267-8.606.777.846-9.316 8.56-.728-.8zm-7.683-1464.7l.743-.83 9.419 8.45-.745.833-9.417-8.453zm-8.13 1447.13l9.467-8.383.745.831-9.475 8.394-.736-.841zM361.194 414.29l.71-.826 9.609 8.22-.755.873-9.564-8.267zm-7.942 1411.493l9.667-8.172.726.856-9.667 8.162-.726-.846zm-7.315-1393.409l.736-.887 9.711 8.095-.688.838-9.759-8.046zm-7.713 1375.169l9.855-7.926.679.846-9.818 7.975-.716-.895zm-7.136-1356.763l.666-.847 9.965 7.791-.717.91-9.914-7.854zM323.6 1789.017l9.993-7.745.686.889-9.998 7.733-.681-.877zm-6.987-1319.504l.668-.881 10.103 7.603-.678.903-10.093-7.625zm-7.26 1300.616l10.212-7.456.627.851-10.147 7.552-.692-.947zM302.56 488.563l.648-.9 10.28 7.364-.663.918-10.265-7.382zm-6.992 1262.449l10.33-7.311.642.919-10.325 7.306-.647-.914zm-6.64-1243.12l.62-.893 10.445 7.128-.663.95-10.401-7.186zm-6.744 1223.698l10.457-7.116.65.951-10.5 7.063-.607-.898zM275.7 527.54l.625-.95 10.558 6.958-.612.931-10.571-6.939zm-6.469 1184.33l10.598-6.905.619.961-10.625 6.867-.592-.923zm-6.316-1164.402l.596-.967 10.714 6.748-.583.931-10.727-6.712zm-6.256 1144.345l10.82-6.544.558.905-10.769 6.642-.61-1.003zm-6.096-1124.157l.56-.936 10.874 6.447-.593.995-10.84-6.506zm-5.974 1103.942l10.919-6.391.558.97-10.912 6.385-.565-.964zM238.643 588.13l.544-.958 11.008 6.224-.565.993-10.987-6.259zm-5.704 1062.96l11.048-6.155.558.987-11.072 6.126-.534-.959zM227.165 608.85l.533-.966 11.131 5.99-.534 1.003-11.13-6.027zm-5.407 1021.508l11.151-5.96.539 1.012-11.19 5.895-.5-.947zm-5.605-1000.51l.506-1.01 11.268 5.76-.513.999-11.261-5.75zm-5.137 979.523l11.285-5.727.515 1.047-11.32 5.617-.48-.937zm-5.417-958.318l.472-.993 11.399 5.496-.49 1.025-11.38-5.528zm-4.87 937.093l11.42-5.462.49 1.048-11.45 5.384-.46-.97zm-5.23-915.634l.469-1.041 11.502 5.285-.464 1.007-11.507-5.25zm-4.586 894.198l11.53-5.189.471 1.048-11.559 5.145-.442-1.004zm-5.042-872.533l.442-1.023 11.626 4.983-.46 1.048-11.608-5.008zm-4.302 850.917l11.64-4.968.459 1.075-11.678 4.871-.421-.978zm-4.843-829.033l.425-1.043 11.717 4.738-.424 1.049-11.718-4.744zm-4.018 807.197l11.748-4.692.42 1.087-11.772 4.594-.396-.989zm-4.647-785.114l.4-1.07 11.815 4.524-.396 1.043-11.82-4.497zm-3.772 763.027l11.84-4.456.405 1.107-11.876 4.343-.369-.994zm-4.419-740.767l.362-1.02 11.945 4.18-.393 1.094-11.914-4.254zm-3.523 718.48l11.928-4.171.39 1.09-11.969 4.101-.349-1.02zm-4.162-696.038l.336-1.03 12.03 3.92-.37 1.114-11.996-4.004zm-3.298 673.565l12.056-3.851.342 1.07-12.062 3.852-.336-1.071zm-3.917-650.908l.327-1.073 12.098 3.668-.325 1.078-12.1-3.673zm-3.026 628.316l12.125-3.611.307 1.075-12.12 3.603-.312-1.067zm-3.642-605.653l.29-1.055 12.18 3.424-.313 1.086-12.157-3.455zm-2.817 582.877l12.203-3.29.29 1.057-12.196 3.337-.297-1.104zm-3.37-560.053l.286-1.076 12.24 3.164-.288 1.097-12.238-3.185zm-2.592 537.172l12.273-3.026.276 1.062-12.271 3.089-.278-1.125zm-3.085-514.221l.254-1.048 12.323 2.85-.276 1.126-12.3-2.928zm-2.362 491.252l12.329-2.836.25 1.123-12.336 2.775-.243-1.062zm-2.816-468.142l.231-1.1 12.376 2.599-.232 1.097-12.375-2.596zm-2.136 444.996l12.395-2.525.223 1.097-12.395 2.522-.223-1.094zm-2.53-421.83l.213-1.137 12.421 2.42-.205 1.072-12.43-2.354zm-1.913 398.61l12.437-2.267.205 1.119-12.446 2.243-.196-1.095zm-2.25-375.343l.187-1.1 12.47 2.095-.189 1.1-12.468-2.095zm-1.69 351.99l12.501-1.921.157 1.056-12.479 2.021-.179-1.156zm-1.964-328.627l.155-1.074 12.52 1.767-.162 1.142-12.513-1.835zm-1.454 305.289l12.52-1.76.162 1.148-12.538 1.676-.144-1.064zm-1.688-281.827l.135-1.113 12.557 1.508-.138 1.118-12.554-1.513zm-1.245 258.38l12.57-1.512.132 1.16-12.573 1.418-.129-1.066zm-1.394-234.902l.12-1.15 12.582 1.333-.123 1.08-12.579-1.263zm-1.003 211.34l12.59-1.16.098 1.102-12.592 1.18-.096-1.121zm-1.122-187.794l.086-1.116 12.616 1.006-.093 1.11-12.609-1zm-.781 164.205l12.618-.846.076 1.078-12.614.915-.08-1.147zm-.832-140.63l.066-1.08 12.625.67-.062 1.162-12.629-.752zm-.558 117.074l12.625-.675.063 1.167-12.636.59-.052-1.082zm-.558-93.42l.034-1.114 12.645.41-.035 1.124-12.644-.42zm-.334 69.804l12.645-.429.04 1.16-12.65.33-.035-1.061zm-.268-46.178l.024-1.165 12.643.25-.019 1.078-12.648-.163zm-.105 22.512l12.64-.083.012 1.118-12.648.084v-1.12h-.004z"/>
        <path d="M569.328 599.937c0-70.9-57.684-128.584-128.574-128.584-70.878 0-128.563 57.683-128.563 128.584 0 70.901 57.684 128.58 128.563 128.58 70.896 0 128.574-57.68 128.574-128.58m-259.026 0c0-71.948 58.52-130.483 130.457-130.483 71.937 0 130.467 58.54 130.467 130.483 0 71.948-58.53 130.478-130.467 130.478-71.937 0-130.457-58.526-130.457-130.478"/>
        <g opacity=".25">
            <path d="M1166.08 1489.818l.026 267.611c-161.038-4.722-311.611-69.537-425.851-183.781-66.772-66.773-116.662-145.98-147.595-232.427l254.984-82.886c50.071 129.904 172.98 223.879 318.437 231.483M1185.027 499.54c128.325-.01 250.731 38.105 354.305 108.935l-157.54 216.924c-56.651-36.894-124.221-58.43-196.74-58.422-72.515.006-140.076 21.553-196.727 58.457L830.752 608.539c103.559-70.849 225.954-108.987 354.275-108.999" opacity=".2"/>
            <path d="M740.175 683.699a638.068 638.068 0 0 1 59.785-52.734l157.573 216.854c-81.739 66.356-134.069 167.587-134.059 280.86a360.368 360.368 0 0 0 12.323 93.473l-254.78 82.84c-16.417-56.573-24.93-115.777-24.937-176.289-.015-168.2 65.385-326.214 184.095-445.004" opacity=".5"/>
        </g>
        <path d="M601.98 1550.17l25.448-18.034c83.411 114.87 200.083 201.029 337.454 247.404 137.371 46.38 282.4 48.575 418.354 7.757l9.285 29.766c-142.195 42.779-293.894 40.533-437.61-7.984-143.7-48.516-265.736-138.685-352.931-258.909" opacity=".77"/>
        <path d="M1185.14 406.556c73.887 0 146.036 11.024 214.642 32.263l-9.635 29.665c-65.52-20.25-134.439-30.773-205.007-30.773-184.638 0-358.115 71.808-488.484 202.214a699.684 699.684 0 0 0-65.164 75.188l-25.228-18.338c20.707-27.658 43.487-54.047 68.366-78.9 136.244-136.274 317.548-211.32 510.51-211.32" opacity=".25"/>
        <path d="M408.294 1128.483c0 207.524 80.801 402.635 227.512 549.372 146.719 146.746 341.784 227.558 549.275 227.558 207.484 0 402.561-80.812 549.274-227.554 146.712-146.736 227.515-341.847 227.515-549.367 0-207.526-80.803-402.63-227.516-549.37-146.718-146.736-341.794-227.552-549.273-227.552-207.49 0-402.555 80.815-549.274 227.552-146.716 146.734-227.513 341.84-227.513 549.36m1558.63 0c0 208.88-81.32 405.255-229.002 552.95-147.664 147.692-344.005 229.038-552.843 229.038-208.844 0-405.185-81.346-552.854-229.038-147.669-147.697-229.003-344.07-229.003-552.95 0-208.876 81.33-405.248 229.005-552.939 147.669-147.698 344.01-229.045 552.852-229.045 208.839 0 405.18 81.343 552.843 229.045 147.682 147.692 229.001 344.07 229.001 552.94M78.334 1126.776c0-13.792 11.18-24.972 24.969-24.972 13.79 0 24.966 11.179 24.966 24.972 0 13.795-11.176 24.975-24.966 24.975-13.79-.001-24.969-11.18-24.969-24.975"/>
        <path d="M79.598 1126.786c0 13.072 10.633 23.703 23.705 23.703 13.07 0 23.703-10.63 23.703-23.703 0-13.077-10.633-23.715-23.703-23.715-13.072 0-23.705 10.637-23.705 23.715m49.942 0c0 14.468-11.771 26.233-26.237 26.233-14.463 0-26.236-11.766-26.236-26.233 0-14.47 11.771-26.247 26.236-26.247 14.466 0 26.237 11.773 26.237 26.247M1185.082 35.952c5.837 0 10.567 4.732 10.567 10.568 0 5.836-4.73 10.568-10.567 10.568-5.835 0-10.566-4.732-10.566-10.568 0-5.836 4.731-10.568 10.566-10.568"/>
        <path d="M1175.777 46.525c0 5.12 4.176 9.297 9.304 9.297 5.135 0 9.3-4.176 9.3-9.297 0-5.134-4.165-9.307-9.3-9.307-5.128 0-9.304 4.173-9.304 9.307m21.132 0c0 6.526-5.304 11.83-11.828 11.83-6.527 0-11.832-5.305-11.832-11.83 0-6.529 5.305-11.843 11.832-11.843 6.524 0 11.828 5.318 11.828 11.843M1180.39 86.187a4.694 4.694 0 0 1 9.386 0 4.693 4.693 0 0 1-9.386 0M1185.088 151.423a4.687 4.687 0 0 1 4.687 4.688 4.687 4.687 0 1 1-4.687-4.688M227.123 1122.173a4.69 4.69 0 1 1 0 9.381 4.69 4.69 0 0 1 0-9.38M807.539 278.488a4.686 4.686 0 0 1 4.686 4.686 4.686 4.686 0 1 1-9.372 0 4.686 4.686 0 0 1 4.686-4.686M600.225 708.666a729.217 729.217 0 0 0-54.082 89.304c-87.833 171.545-103.554 367.162-44.287 550.83 22.695 70.329 55.364 135.608 96.641 194.387l25.27-18.28c-39.386-56.148-70.583-118.51-92.255-185.68-56.712-175.743-41.662-362.92 42.375-527.062a699.88 699.88 0 0 1 51.533-85.12l-25.195-18.38zm.454 2.792l21.99 16.043a704.766 704.766 0 0 0-50.54 83.762c-84.281 164.603-99.371 352.326-42.497 528.577 21.34 66.139 52.078 128.24 91.391 184.612l-22.05 15.956c-40.971-58.691-73.007-123.342-95.23-192.206-59.104-183.168-43.418-378.253 44.168-549.318 15.427-30.177 33.173-59.574 52.768-87.426z"/>
        <path d="M1185.081 3.997v2.53c-151.438 0-298.346 29.664-436.642 88.17C614.857 151.201 494.887 232.1 391.87 335.138c-103.02 103.047-183.907 223.029-240.407 356.63-58.493 138.324-88.15 285.259-88.15 436.718h-2.536c0-151.803 29.73-299.068 88.355-437.708 56.624-133.901 137.693-254.158 240.945-357.429C493.33 230.08 613.567 148.991 747.452 92.36 886.065 33.724 1033.3 3.997 1185.082 3.997"/>
        <path d="M2309.377 1128.483c0 151.806-29.725 299.07-88.347 437.713-56.637 133.898-137.694 254.155-240.95 357.428-103.253 103.27-223.49 184.35-357.37 240.996-138.61 58.632-285.853 88.36-437.63 88.36-151.782 0-299.016-29.728-437.633-88.36-133.877-56.647-254.116-137.722-357.373-240.996-103.252-103.273-184.315-223.53-240.946-357.428-58.63-138.639-88.354-285.905-88.354-437.712h2.535c0 151.468 29.658 298.399 88.15 436.72 56.497 133.6 137.383 253.593 240.408 356.626 103.02 103.04 222.986 183.935 356.568 240.446 138.298 58.51 285.208 88.175 436.643 88.175 151.433 0 298.349-29.665 436.643-88.175 133.582-56.506 253.552-137.405 356.571-240.446 103.02-103.033 183.907-223.027 240.406-356.626 58.486-138.323 88.144-285.252 88.144-436.72 0-151.46-29.658-298.396-88.144-436.718-56.5-133.602-137.386-253.583-240.406-356.63-103.02-103.037-222.989-183.936-356.571-240.442-138.296-58.505-285.21-88.17-436.643-88.17V3.993c151.775 0 299.02 29.728 437.632 88.365 133.89 56.646 254.119 137.721 357.371 240.993 103.258 103.269 184.313 223.525 240.951 357.427 58.623 138.64 88.345 285.904 88.345 437.706"/>
        <path d="M1185.081 82.389v7.596c-140.176 0-276.158 27.458-404.167 81.611C657.271 223.895 546.23 298.78 450.871 394.155 355.51 489.532 280.644 600.594 228.345 724.25c-54.144 128.036-81.593 264.042-81.593 404.24h-7.59c0-141.22 27.662-278.219 82.195-407.186 52.672-124.572 128.093-236.44 224.148-332.52 96.056-96.075 207.91-171.491 332.456-224.178 128.95-54.555 265.923-82.218 407.12-82.218"/>
        <path d="M2228.47 1128.483c0 140.887-27.584 277.55-81.995 406.208-52.554 124.273-127.786 235.879-223.61 331.714-95.827 95.832-207.408 171.079-331.649 223.641-128.637 54.42-265.278 82.013-406.133 82.013-140.857 0-277.5-27.593-406.131-82.013-124.25-52.558-235.834-127.804-331.652-223.64-95.825-95.836-171.052-207.444-223.607-331.715-54.406-128.656-81.994-265.32-81.994-406.208h2.526c0 140.538 27.517 276.877 81.794 405.216 52.428 123.97 127.475 235.298 223.064 330.906 95.591 95.608 206.908 170.67 330.85 223.097 128.322 54.29 264.632 81.814 405.149 81.814 140.514 0 276.825-27.524 405.143-81.814 123.948-52.429 235.26-127.494 330.846-223.097 95.593-95.608 170.641-206.937 223.072-330.906 54.274-128.343 81.797-264.678 81.797-405.215 0-140.536-27.523-276.87-81.797-405.221-52.431-123.957-127.479-235.29-223.072-330.898-95.584-95.604-206.898-170.667-330.846-223.099-128.318-54.287-264.63-81.811-405.143-81.811v-2.533c140.853 0 277.5 27.591 406.132 82.008 124.241 52.562 235.822 127.813 331.65 223.652 95.823 95.839 171.056 207.437 223.61 331.704 54.41 128.664 81.995 265.324 81.995 406.197"/>
        <path d="M2112.308 1128.595c0 144.32-33.952 288.4-101.589 421.193l-2.245-1.146c67.429-132.408 101.302-276.137 101.309-420.042.008-127.852-26.718-255.835-80.364-376.298-50.781-114.008-122.358-214.648-212.753-299.138-87.318-81.617-188.426-144.818-300.507-187.824-112.09-43-229.502-63.648-348.99-61.391-123.707 2.339-244.225 29.277-358.212 80.06l-1.026-2.315c114.295-50.912 235.14-77.919 359.189-80.278 119.813-2.27 237.554 18.445 349.945 61.576 112.388 43.116 213.767 106.483 301.32 188.322 90.647 84.73 162.432 185.647 213.334 299.966 53.797 120.761 80.589 249.128 80.589 377.315M109.632 1125.06l-.004 1.077h-12.65l.004-1.158 12.65.08zm.191 24.466l-12.645.249-.023-1.113 12.645-.259.023 1.123zm.133-47.885l-.028 1.154-12.646-.333.028-1.072 12.646.25zm.572 71.21l-12.641.5-.047-1.11 12.64-.508.048 1.119zm.248-94.576l-.053 1.163-12.632-.597.044-1.075 12.641.509zm.94 117.926l-12.623.754-.066-1.067 12.615-.845.075 1.158zm.38-141.221l-.077 1.11-12.618-.846.076-1.106 12.619.842zm1.328 164.502l-12.604 1.086-.098-1.153 12.611-1.009.091 1.076zm.492-187.775l-.096 1.061-12.604-1.07.101-1.172 12.6 1.181zm1.708 211.044l-12.577 1.345-.118-1.126 12.58-1.326.115 1.107zm.626-234.364l-.125 1.159-12.568-1.417.116-1.07 12.577 1.328zm2.082 257.594l-12.548 1.594-.145-1.108 12.55-1.596.143 1.11zm.752-280.796l-.148 1.15-12.535-1.673.143-1.068 12.54 1.59zm2.456 303.952l-12.515 1.85-.16-1.076 12.496-1.915.18 1.141zm.875-327.055l-.17 1.11-12.5-1.93.168-1.105 12.502 1.925zm2.833 350.103l-12.456 2.176-.2-1.137 12.474-2.096.182 1.057zm.996-373.117l-.187 1.047-12.459-2.17.205-1.15 12.44 2.273zm3.217 396.11l-12.41 2.433-.214-1.114 12.42-2.412.204 1.093zm1.137-419.137l-.229 1.141-12.389-2.514.21-1.053 12.408 2.426zm3.576 442.043l-12.363 2.67-.231-1.084 12.353-2.69.241 1.104zm1.261-464.905l-.246 1.123-12.346-2.75.234-1.065 12.358 2.692zm3.956 487.697l-12.302 2.927-.252-1.05 12.284-3.005.27 1.128zm1.374-510.416l-.262 1.075-12.283-3.004.264-1.093 12.281 3.022zm4.326 533.041l-12.215 3.263-.288-1.076 12.216-3.27.287 1.083zm1.506-555.648l-.284 1.047-12.215-3.263.305-1.121 12.194 3.337zm4.7 578.185l-12.147 3.521-.322-1.109 12.173-3.445.296 1.033zm1.627-600.687l-.308 1.033-12.15-3.518.33-1.11 12.128 3.595zm5.073 623.082l-12.071 3.776-.34-1.085 12.083-3.753.328 1.062zm1.756-645.485l-.345 1.096-12.06-3.825.333-1.052 12.072 3.78zm5.438 667.732l-11.996 4.024-.359-1.073 11.999-4.006.356 1.055zm1.891-689.979l-.358 1.047-11.972-4.078.366-1.078 11.964 4.11zm5.774 712.056l-11.898 4.27-.378-1.044 11.902-4.279.374 1.053zm2.053-734.193l-.381 1.056-11.884-4.327.384-1.057 11.881 4.328zm6.108 756.102l-11.812 4.527-.386-1.004 11.783-4.6.415 1.077zm2.198-778.036l-.41 1.056-11.783-4.595.405-1.035 11.788 4.574zm6.435 799.763l-11.714 4.764-.405-.982 11.68-4.868.44 1.086zm2.333-821.456l-.415 1.006-11.689-4.85.454-1.07 11.65 4.914zm6.725 842.886l-11.6 5.04-.443-1.02 11.6-5.043.443 1.023zm2.522-864.414l-.43.98-11.582-5.088.474-1.075 11.538 5.183zm7.019 885.676l-11.493 5.285-.456-1.008 11.471-5.311.478 1.034zm2.714-907.017l-.472.993-11.453-5.357.482-1.025 11.443 5.389zm7.278 928.042l-11.369 5.555-.492-1.026 11.378-5.523.483.994zm2.89-949.117l-.475.96-11.34-5.59.52-1.063 11.295 5.693zm7.565 969.946l-11.244 5.787-.502-.972 11.225-5.823.521 1.008zm3.098-990.868l-.527 1.015-11.213-5.857.51-.98 11.23 5.822zm7.8 1011.452l-11.104 6.06-.542-.999 11.119-6.022.527.961zm3.279-1032.05l-.534.972-11.08-6.089.546-1.008 11.068 6.124zm8.09 1052.412l-10.98 6.284-.562-.984 10.994-6.254.548.954zm3.444-1072.787l-.56.971-10.935-6.362.563-.966 10.932 6.357zm8.343 1092.892l-10.824 6.539-.593-.987 10.858-6.484.56.932zm3.656-1113.049l-.607 1.004-10.79-6.607.559-.904 10.838 6.507zM275 1701.873l-10.713 6.723-.574-.905 10.66-6.802.627.984zm3.811-1152.768l-.62.967-10.658-6.796.583-.923 10.695 6.752zm8.844 1172.34l-10.547 6.98-.608-.91 10.524-7.019.631.95zM291.607 529.6l-.593.876-10.524-7.019.657-.98 10.46 7.123zm9.126 1211.166l-10.39 7.206-.635-.904 10.384-7.234.641.932zm4.141-1230.47l-.635.895-10.356-7.262.663-.94 10.328 7.306zm9.362 1249.49l-10.221 7.452-.67-.928 10.252-7.407.639.883zm4.324-1268.51l-.681.935-10.174-7.51.64-.878 10.215 7.453zm9.602 1287.267l-10.077 7.64-.666-.87 10.054-7.68.689.91zm4.464-1305.936l-.681.887-10.04-7.702.68-.887 10.041 7.702zm9.847 1324.357l-9.89 7.885-.724-.914 9.953-7.808.66.837zm4.618-1342.728l-.709.876-9.847-7.934.693-.855 9.863 7.913zm10.107 1360.87l-9.737 8.066-.699-.842 9.711-8.1.725.876zm4.725-1378.884l-.679.817-9.702-8.114.762-.896 9.62 8.193zm10.382 1396.675l-9.545 8.3-.736-.844 9.545-8.3.736.844zm4.89-1414.437l-.731.847-9.512-8.337.733-.838 9.51 8.328zm10.608 1431.937l-9.393 8.476-.723-.796 9.33-8.54.786.86zm5.033-1449.33l-.775.842-9.314-8.563.732-.799 9.357 8.52zm10.817 1466.45l-9.174 8.714-.797-.843 9.23-8.657.741.786zm5.148-1483.47l-.758.794-9.145-8.723.793-.838 9.11 8.768zM419.9 1884.339l-9.005 8.87-.784-.79 9.002-8.879.787.8zm5.265-1516.985l-.788.789-8.935-8.95.789-.789 8.934 8.95zm11.332 1533.424l-8.817 9.076-.79-.772 8.791-9.087.816.783zM441.892 351l-.832.799-8.724-9.157.78-.754 8.776 9.112zm11.553 1565.865l-8.602 9.274-.83-.773 8.623-9.254.81.753zm5.473-1581.796l-.806.736-8.557-9.308.842-.783 8.521 9.355zm11.823 1597.52l-8.396 9.447-.83-.736 8.39-9.468.836.758zm5.555-1613.103l-.795.7-8.386-9.468.89-.78 8.291 9.548zm12.085 1628.452l-8.196 9.627-.858-.725 8.2-9.628.854.726zm5.679-1643.691l-.86.716-8.154-9.668.858-.719 8.156 9.67zm12.293 1658.65l-7.995 9.798-.853-.687 7.963-9.83.885.72zm5.73-1673.46l-.867.692-7.93-9.846.88-.71 7.917 9.864zm12.555 1688.04l-7.79 9.961-.863-.672 7.746-9.997.907.708zm5.815-1702.472l-.908.7-7.694-10.042.867-.67 7.735 10.012zm12.793 1716.643l-7.574 10.131-.871-.644 7.511-10.183.934.696zm5.867-1730.665l-.908.676-7.494-10.198.891-.656 7.511 10.178zm13.025 1744.429l-7.324 10.307-.9-.635 7.293-10.336.931.664zm5.893-1758.007l-.87.602-7.305-10.324.964-.673 7.211 10.395zm13.316 1771.38l-7.11 10.456-.928-.633 7.116-10.462.922.639zm5.95-1784.6l-.92.622-7.057-10.505.926-.62 7.052 10.503zm13.546 1797.54l-6.892 10.61-.927-.608 6.862-10.625.957.624zm6.001-1810.334l-.967.62-6.806-10.662.913-.583 6.86 10.625zm13.764 1822.842l-6.636 10.763-.972-.6 6.675-10.75.933.587zm6.024-1835.188l-.999.61-6.549-10.827.898-.539 6.65 10.756zm14.028 1847.28l-6.417 10.9-.95-.558 6.38-10.921.987.58zm5.96-1859.147l-.924.53-6.377-10.929 1.013-.593 6.288 10.992zm14.342 1870.794l-6.178 11.033-.958-.539 6.152-11.052.984.558zm5.975-1882.284l-.957.53-6.12-11.07.984-.544 6.093 11.084zm14.585 1893.486l-5.924 11.176-1.01-.534 5.961-11.158.973.516zm5.952-1904.505l-.969.498-5.89-11.187 1.003-.527 5.856 11.216zm14.854 1915.264l-5.697 11.296-.998-.5 5.692-11.3 1.003.504zm5.927-1925.855l-1.012.503-5.622-11.33.979-.48 5.655 11.307zm15.096 1936.147l-5.421 11.429-1.05-.502 5.486-11.389.985.462zm5.876-1946.257l-1.006.473-5.383-11.442 1.002-.477 5.387 11.446zm15.392 1956.104l-5.18 11.542-1.03-.46 5.192-11.542 1.018.46zm5.792-1965.75l-1.01.446-5.138-11.56 1.031-.459 5.117 11.573zm15.676 1975.122l-4.912 11.656-1.067-.45 4.974-11.631 1.005.425zm5.731-1984.322l-1.04.441-4.873-11.683 1.018-.423 4.895 11.665zm15.96 1993.227l-4.67 11.753-1.045-.414 4.67-11.755 1.045.416zm5.662-2001.95l-1.093.422-4.59-11.788.988-.384 4.695 11.75zm16.22 2010.383l-4.422 11.848-1.05-.393 4.423-11.847 1.05.392zm5.586-2018.644l-1.055.38-4.35-11.876 1.056-.386 4.35 11.882zm16.478 2026.587l-4.179 11.942-1.026-.363 4.109-11.958 1.096.38zm5.56-2034.387l-1.06.372-4.098-11.974 1.06-.36 4.099 11.962zm16.665 2041.846l-3.888 12.033-1.058-.34 3.866-12.047 1.08.354zm5.528-2049.16l-1.063.344-3.853-12.059 1.07-.343 3.846 12.058zm16.874 2056.135l-3.632 12.107-1.062-.314 3.614-12.12 1.08.327zm5.446-2062.946l-1.04.29-3.592-12.112 1.114-.329 3.518 12.151zm17.005 2069.39l-3.337 12.2-1.113-.307 3.405-12.182 1.045.29zm5.544-2075.737l-1.132.303-3.266-12.226 1.035-.28 3.363 12.203zm17.067 2081.702l-3.111 12.266-1.075-.275 3.086-12.26 1.1.269zm5.564-2087.546l-1.141.28-3.007-12.284 1.036-.263 3.112 12.267zm17.136 2093.008l-2.805 12.33-1.088-.243 2.794-12.343 1.099.256zM949.682 78.69l-1.084.244-2.77-12.343 1.101-.25 2.753 12.349zm17.273 2103.298l-2.555 12.397-1.1-.226 2.56-12.395 1.095.224zm5.598-2108.146l-1.098.221-2.511-12.4 1.095-.219 2.514 12.398zm17.324 2112.606l-2.26 12.456-1.104-.201 2.269-12.45 1.095.195zm5.605-2116.94l-1.07.19-2.253-12.454 1.134-.196 2.189 12.46zm17.438 2120.913l-2.009 12.49-1.1-.18 1.999-12.483 1.11.173zm5.657-2124.762l-1.14.177-1.935-12.501 1.079-.156 1.996 12.48zm17.443 2128.22l-1.71 12.53-1.115-.154 1.721-12.527 1.104.15zm5.664-2131.558l-1.118.153-1.672-12.539 1.102-.152 1.688 12.538zm17.53 2134.523l-1.472 12.561-1.113-.13 1.47-12.56 1.114.129zM1064.88 59.49l-1.114.13-1.424-12.583 1.112-.12 1.426 12.573zm17.555 2139.8l-1.172 12.592-1.111-.11 1.168-12.594 1.115.113zm5.661-2142.13l-1.07.094-1.172-12.603 1.153-.097 1.09 12.606zm17.631 2144.083l-.92 12.615-1.12-.08.922-12.615 1.118.08zm5.724-2145.915l-1.158.072-.836-12.612 1.075-.078.919 12.618zm17.593 2147.369l-.629 12.63-1.12-.058.626-12.636 1.123.064zM1134.749 54l-1.112.054-.586-12.636 1.12-.054.578 12.636zm17.65 2149.646l-.376 12.64-1.118-.03.378-12.641 1.117.031zm5.716-2150.47l-1.12.034-.337-12.655 1.118-.025.339 12.645zm17.662 2150.915l-.122 12.65-1.097-.009.083-12.655 1.136.014zm5.663-2163.888v12.65h-1.075l-.092-12.65h1.167zm3.64 12.642h1.12v-12.65h-1.12v12.65zm14.224 2163.84l-1.12.02-.16-12.651 1.11-.012.17 12.643zm10.567-2176.21l-.335 12.646-1.071-.019.25-12.653 1.156.027zm13.025 2175.652l-1.092.045-.465-12.646 1.138-.037.42 12.638zM1233.45 41.256l-.506 12.637-1.124-.046.508-12.644 1.122.053zm13.078 2173.815l-1.141.063-.67-12.627 1.098-.067.713 12.63zm10.506-2172.532l-.747 12.63-1.153-.073.825-12.623 1.075.066zm13.07 2170.968l-1.097.083-1.003-12.61 1.146-.092.954 12.62zM1280.647 44.34l-1.082 12.599-1.111-.094 1.069-12.61 1.124.105zm13.023 2167.09l-1.141.102-1.212-12.587 1.094-.108 1.259 12.594zm10.534-2164.79l-1.422 12.578-1.074-.113 1.345-12.583 1.15.119zm12.95 2162.203l-1.087.138-1.549-12.556 1.13-.138 1.506 12.556zM1327.62 49.45l-1.586 12.556-1.114-.141 1.586-12.556 1.114.14zm12.982 2156.298l-1.131.159-1.76-12.528 1.094-.158 1.797 12.527zm10.416-2152.976l-1.836 12.517-1.151-.178 1.932-12.499 1.055.16zm12.933 2149.369l-1.077.187-2.1-12.473 1.131-.192 2.046 12.478zm10.44-2145.528l-2.184 12.455-1.088-.186 2.176-12.464 1.095.195zm12.855 2141.419l-1.12.208-2.3-12.43 1.072-.204 2.348 12.426zm10.4-2137.073l-2.497 12.392-1.062-.206 2.427-12.417 1.133.23zm12.777 2132.45l-1.058.228-2.646-12.363 1.123-.238 2.581 12.373zM1420.79 65.795l-2.766 12.35-1.048-.235 2.676-12.36 1.138.245zm12.73 2122.487l-1.104.258-2.854-12.32 1.066-.253 2.892 12.315zm10.258-2117.139l-2.938 12.299-1.13-.275 3.013-12.28 1.055.256zm12.691 2111.51l-1.085.28-3.129-12.254 1.072-.276 3.142 12.25zm10.243-2105.649l-3.265 12.214-1.087-.285 3.263-12.223 1.089.294zm12.623 2099.518l-1.078.305-3.45-12.175 1.078-.298 3.45 12.168zm10.132-2093.169l-3.52 12.151-1.069-.304 3.52-12.15 1.069.303zm12.524 2086.536l-1.054.325-3.687-12.097 1.068-.325 3.673 12.097zm10.137-2079.671l-3.825 12.056-1.043-.322 3.752-12.078 1.116.344zm12.41 2072.555l-1.03.342-3.984-12.013 1.09-.356 3.925 12.027zm10.129-2065.188l-4.034 11.99-1.08-.374 4.074-11.977 1.04.361zm12.263 2057.57l-1.028.37-4.254-11.92 1.077-.379 4.205 11.928zm10.111-2049.71l-4.27 11.9-1.087-.397 4.322-11.888 1.035.385zm12.112 2041.59l-1.082.413-4.411-11.858 1.01-.378 4.483 11.824zm10.073-2033.239l-4.497 11.827-1.099-.427 4.6-11.794.996.394zm11.951 2024.655l-1.054.425-4.694-11.75 1.017-.406 4.731 11.731zm10.093-2015.807l-4.837 11.688-1.038-.43 4.844-11.688 1.03.43zm11.654 2006.776l-1.022.438-4.974-11.62 1.025-.445 4.971 11.627zm10.173-1997.45l-5.116 11.57-1.02-.454 5.087-11.575 1.049.458zm11.382 1987.943l-1.008.46-5.25-11.51 1.037-.472 5.221 11.522zm10.174-1978.166l-5.32 11.481-1.028-.482 5.357-11.465.991.466zm11.165 1968.196l-.962.463-5.527-11.375 1.04-.504 5.45 11.416zm10.215-1957.932l-5.584 11.347-1.013-.503 5.59-11.34 1.007.496zm10.929 1947.485l-.999.503-5.714-11.281.99-.504 5.723 11.282zm10.19-1936.766l-5.806 11.229-1.017-.53 5.847-11.211.976.512zm10.712 1925.865l-.965.519-5.993-11.14.997-.537 5.96 11.158zm10.182-1914.69l-6.056 11.104-.996-.543 6.084-11.086.968.526zm10.503 1903.33l-.998.56-6.183-11.036.963-.539 6.218 11.015zm10.127-1891.71l-6.292 10.975-.998-.582 6.346-10.935.944.542zm10.287 1879.906l-.942.563-6.492-10.86.98-.585 6.454 10.882zm10.111-1867.824l-6.564 10.817-.957-.574 6.558-10.824.963.58zm10.054 1855.58l-.946.582-6.705-10.727.97-.603 6.681 10.747zm10.087-1843.046l-6.875 10.634-.89-.574 6.764-10.694 1 .634zm9.822 1830.35l-.973.628-6.855-10.62.893-.591 6.935 10.583zm9.954-1817.429l-7.018 10.52-.93-.619 7.015-10.529.933.628zm9.664 1804.315l-.937.637-7.13-10.442.92-.633 7.147 10.438zm9.853-1790.961l-7.202 10.395-.95-.67 7.271-10.357.88.632zm9.479 1777.428l-.886.639-7.4-10.262.925-.664 7.361 10.287zm9.8-1763.614l-7.513 10.176-.875-.636 7.458-10.218.93.678zm9.244 1749.655l-.876.66-7.61-10.103.917-.684 7.569 10.127zm9.661-1735.462L1839 274.465l-.886-.678 7.696-10.041.882.677zm9.075 1721.1l-.86.667-7.827-9.93.897-.709 7.79 9.972zm9.53-1706.507l-7.881 9.892-.868-.7 7.881-9.89.868.698zm8.892 1691.735l-.822.683-8.079-9.745.9-.736 8.001 9.798zm9.412-1676.73l-8.106 9.704-.866-.719 8.117-9.705.855.72zm8.698 1661.563l-.816.698-8.268-9.57.878-.755 8.206 9.627zm9.286-1646.151l-8.376 9.468-.804-.69 8.298-9.557.882.779zm8.49 1630.596l-.802.71-8.468-9.393.865-.77 8.404 9.453zm9.119-1614.834l-8.552 9.316-.811-.735 8.517-9.352.846.77zm8.356 1598.876l-.846.78-8.606-9.27.8-.746 8.652 9.236zm8.908-1582.74l-8.73 9.146-.806-.772 8.721-9.145.815.77zm8.173 1566.421l-.805.79-8.812-9.07.79-.767 8.827 9.047zm8.736-1549.924l-8.903 8.987-.816-.808 8.947-8.954.772.775zm8.003 1533.25l-.743.766-9.07-8.816.816-.83 8.997 8.88zm8.564-1516.364l-9.11 8.768-.78-.798 9.11-8.78.78.81zm7.842 1499.302l-.763.81-9.234-8.65.765-.814 9.232 8.654zm8.325-1482.098l-9.267 8.609-.777-.848 9.316-8.559.728.798zm7.683 1464.699l-.743.83-9.419-8.448.745-.832 9.417 8.45zm8.13-1447.128l-9.467 8.383-.745-.832 9.475-8.393.736.842zm7.496 1429.398l-.71.825-9.609-8.22.755-.874 9.564 8.269zm7.943-1411.492l-9.668 8.17-.726-.856 9.666-8.16.728.846zm7.314 1393.406l-.735.888-9.712-8.096.688-.836 9.76 8.044zm7.713-1375.165l-9.856 7.926-.678-.847 9.818-7.975.716.896zm7.136 1356.76l-.666.849-9.965-7.791.717-.91 9.914 7.852zm7.487-1338.236l-9.993 7.743-.687-.888 9.998-7.732.682.877zm6.986 1319.504l-.67.88-10.101-7.603.676-.905 10.095 7.628zm7.26-1300.618l-10.21 7.457-.628-.852 10.148-7.55.69.945zm6.792 1281.566l-.647.9-10.28-7.365.663-.917 10.264 7.382zm6.994-1262.448l-10.33 7.31-.642-.919 10.326-7.305.646.914zm6.64 1243.12l-.62.892-10.445-7.127.662-.95 10.402 7.184zm6.743-1223.698l-10.456 7.118-.65-.953 10.5-7.061.606.896zm6.485 1204.05l-.625.95-10.559-6.96.613-.93 10.571 6.94zm6.468-1184.33l-10.597 6.905-.619-.96 10.625-6.869.59.923zm6.316 1164.402l-.598.965-10.712-6.748.583-.93 10.727 6.713zm6.257-1144.344l-10.82 6.544-.558-.906 10.769-6.642.61 1.004zm6.093 1124.155l-.557.936-10.875-6.447.593-.994 10.84 6.505zm5.976-1103.94l-10.918 6.39-.558-.971 10.912-6.383.564.963zm5.947 1083.466l-.545.96-11.007-6.225.565-.993 10.987 6.258zm5.703-1062.957l-11.048 6.154-.556-.985 11.071-6.128.533.96zm5.773 1042.236l-.532.966-11.131-5.988.533-1.004 11.13 6.026zm5.409-1021.508l-11.151 5.961-.539-1.011 11.19-5.896.5.946zm5.606 1000.514l-.507 1.008-11.268-5.76.514-.998 11.26 5.75zm5.134-979.526l-11.284 5.727-.516-1.048 11.32-5.616.48.937zm5.419 958.317l-.472.994-11.399-5.497.49-1.023 11.38 5.526zm4.87-937.09l-11.42 5.46-.49-1.048 11.45-5.384.46.971zm5.23 915.631l-.469 1.043-11.502-5.288.464-1.005 11.507 5.25zm4.586-894.197l-11.53 5.188-.47-1.047 11.558-5.144.442 1.003zM2184.73 1559l-.443 1.02-11.627-4.98.461-1.048 11.61 5.008zm4.3-850.919l-11.637 4.97-.46-1.075 11.678-4.873.42.978zm4.845 829.034l-.425 1.043-11.718-4.74.424-1.047 11.719 4.744zm4.02-807.198l-11.749 4.693-.42-1.086 11.772-4.596.396.99zm4.647 785.114l-.401 1.07-11.814-4.523.396-1.043 11.819 4.496zm3.77-763.026l-11.839 4.456-.405-1.105 11.876-4.344.368.993zm4.418 740.767l-.362 1.021-11.945-4.18.394-1.093 11.913 4.252zm3.525-718.48l-11.928 4.172-.389-1.09 11.967-4.102.35 1.02zm4.162 696.037l-.337 1.028-12.029-3.918.371-1.116 11.995 4.006zm3.298-673.563l-12.057 3.85-.34-1.069 12.06-3.85.337 1.069zm3.917 650.906l-.328 1.075-12.098-3.667.327-1.079 12.1 3.671zm3.025-628.316l-12.123 3.613-.308-1.076 12.12-3.601.311 1.064zm3.643 605.655l-.29 1.054-12.18-3.422.313-1.088 12.157 3.456zm2.818-582.878l-12.203 3.29-.29-1.056 12.195-3.339.298 1.105zm3.369 560.054l-.286 1.074-12.241-3.165.29-1.097 12.237 3.188zm2.59-537.173l-12.273 3.027-.275-1.062 12.271-3.089.276 1.124zm3.087 514.22l-.255 1.05-12.322-2.853.276-1.123 12.3 2.927zm2.361-491.252l-12.329 2.836-.25-1.12 12.335-2.777.244 1.061zm2.817 468.142l-.231 1.102-12.376-2.6.232-1.096 12.375 2.594zm2.135-444.995l-12.395 2.525-.223-1.097 12.394-2.523.224 1.095zm2.53 421.83l-.212 1.136-12.421-2.418.204-1.072 12.43 2.354zm1.913-398.61l-12.437 2.265-.206-1.116 12.446-2.244.197 1.094zm2.25 375.34l-.187 1.103-12.47-2.096.189-1.1 12.468 2.094zm1.69-351.987l-12.5 1.922-.158-1.058 12.48-2.02.179 1.156zm1.964 328.628l-.155 1.076-12.52-1.772.162-1.142 12.513 1.838zm1.455-305.29l-12.52 1.761-.162-1.15 12.538-1.675.144 1.065zm1.688 281.828l-.135 1.112-12.557-1.507.138-1.117 12.554 1.512zm1.245-258.38l-12.57 1.51-.132-1.16 12.573-1.416.129 1.065zm1.393 234.9l-.119 1.15-12.583-1.33.123-1.08 12.579 1.26zm1.004-211.34l-12.59 1.16-.098-1.101 12.592-1.181.096 1.122zm1.122 187.797l-.086 1.115-12.616-1.008.094-1.11 12.608 1.003zm.781-164.207l-12.618.848-.076-1.08 12.614-.913.08 1.145zm.832 140.631l-.066 1.079-12.626-.67.063-1.163 12.629.754zm.556-117.074l-12.622.673-.064-1.165 12.636-.59.05 1.082zm.56 93.42l-.035 1.113-12.644-.41.035-1.123 12.644.42zm.334-69.804l-12.645.428-.04-1.16 12.65-.33.035 1.062zm.268 46.179l-.024 1.164-12.643-.251.019-1.078 12.648.165zm.106-22.514l-12.641.084-.012-1.119 12.648-.085v1.12h.005z"/>
        <path d="M7.616 1125.822l-.027 1.074L0 1126.74l.034-1.167 7.582.249zm.195 9.424l-7.57.556-.076-1.19 7.58-.4.066 1.034zm.408-17.768l-.124 1.052-7.544-.803.132-1.164 7.536.915zm.563 26.09l-7.49 1.203-.177-1.16 7.506-1.104.161 1.062zm.779-34.36l-.217 1.047-7.443-1.452.234-1.146 7.426 1.55zm.92 42.55l-7.35 1.86-.278-1.114 7.371-1.805.257 1.06zm1.153-50.644l-.308 1.013-7.286-2.11.336-1.123 7.258 2.22zm1.285 58.642l-7.16 2.515-.377-1.088 7.176-2.46.361 1.033zm1.516-66.54l-.396.994-7.066-2.756.428-1.096 7.034 2.858zm1.615 74.267l-6.895 3.172-.475-1.052 6.927-3.087.443.967zm1.9-81.907l-.507 1.007-6.778-3.42.509-1.007 6.775 3.42zm1.91 89.352l-6.58 3.773-.574-1.014 6.63-3.688.524.929zm2.239-96.586l-.575.926-6.45-4.002.615-.985 6.41 4.06zM24.334 1182l-6.238 4.327-.653-.95 6.274-4.27.617.893zm2.555-110.514l-.658.855-6.064-4.559.698-.924 6.024 4.628zm2.523 117.155l-5.82 4.864-.733-.887 5.864-4.815.689.838zm2.856-123.565l-.725.798-5.638-5.074.78-.86 5.583 5.136zm2.794 129.736l-5.367 5.361-.823-.826 5.436-5.297.754.762zm3.132-135.642l-.78.725-5.19-5.545.863-.788 5.107 5.608zm3.038 141.291l-4.869 5.818-.877-.746 4.92-5.775.826.703zm3.385-146.648l-.841.654-4.671-5.977.93-.717 4.582 6.04zm3.265 151.72l-4.323 6.232-.964-.675 4.42-6.173.867.616zm3.614-156.476l-.905.573-4.115-6.373.973-.63 4.047 6.43zM54.964 1210l-3.751 6.592-1.01-.57 3.812-6.57.949.548zm3.801-165.082l-.959.49-3.53-6.718 1.018-.525 3.471 6.753zm3.648 168.896l-3.151 6.905-1.038-.475 3.188-6.883 1 .453zm3.946-172.355l-.985.406-2.922-7.012 1.073-.436 2.834 7.042zm3.815 175.49l-2.508 7.158-1.111-.39 2.612-7.129 1.007.36zm4.102-178.275l-1.063.333-2.264-7.244 1.077-.333 2.25 7.244zm3.904 180.695l-1.853 7.36-1.136-.3 1.955-7.327 1.034.267zm4.19-182.73l-1.065.225-1.617-7.413 1.124-.245 1.558 7.433zm4.007 184.43l-1.21 7.49-1.15-.19 1.303-7.48 1.057.18zm4.212-185.738l-1.037.112-.949-7.516 1.184-.142.802 7.546zm4.102 186.687l-.553 7.563-1.169-.09.658-7.561 1.064.088zm4.248-187.264l-1.062.027-.257-7.58 1.169-.038.15 7.591zm3.555-7.617l-.1 7.587-1.072-.01v-7.577h1.172zm.694 202.681l-1.195.012v-7.59l1.04-.014.155 7.592zm8.348-202.173l-.808 7.542-1.037-.098.654-7.556 1.19.112zm.66 201.615l-1.158.115-.702-7.56 1.064-.102.797 7.547zm8.252-200.33l-1.42 7.462-1.062-.2 1.35-7.467 1.132.205zm.68 198.973l-1.127.216-1.406-7.458 1.073-.204 1.46 7.446zm8.113-196.87l-2.061 7.312-1.05-.299 2.007-7.324 1.104.312zm.691 194.71l-1.131.33-2.046-7.315 1.022-.294 2.155 7.279zm7.89-191.84l-2.717 7.093-1.023-.388 2.655-7.11 1.086.405zm.652 188.902l-1.077.42-2.71-7.09 1.008-.39 2.78 7.06zm7.644-185.264l-3.354 6.807-.957-.46 3.252-6.864 1.059.517zm.596 181.58l-1.025.51-3.332-6.813.961-.484 3.396 6.786zm7.341-177.207l-3.962 6.472-.92-.548 3.873-6.533 1.01.609zm.55 172.802l-.972.595-3.946-6.481.934-.57 3.984 6.456zm6.95-167.744l-4.524 6.086-.863-.63 4.439-6.144.949.688zm.51 162.653l-.933.685-4.472-6.137.872-.638 4.532 6.09zm6.51-156.965l-5.055 5.675-.8-.71 4.974-5.737.881.772zm.48 151.216l-.872.775-5.007-5.707.8-.709 5.08 5.64zm6-144.912l-5.513 5.206-.75-.78 5.466-5.264.797.838zm.447 138.576l-.801.852-5.496-5.232.728-.784 5.57 5.164zm5.467-131.73l-5.98 4.676-.653-.822 5.891-4.782.742.927zm.39 124.852l-.713.9-5.931-4.72.666-.852 5.978 4.672zm4.875-117.524l-6.355 4.151-.586-.888 6.297-4.229.644.966zm.355 110.142l-.629.969-6.343-4.174.597-.91 6.375 4.115zm4.233-102.377l-6.678 3.592-.523-.963 6.658-3.631.543 1.002zm.326 94.547l-.554 1.047-6.675-3.617.5-.944 6.729 3.514zm3.555-86.395l-6.974 2.99-.434-1.007 6.96-3.022.448 1.04zm.282 78.198l-.448 1.065-6.986-2.97.429-.998 7.005 2.903zm2.87-69.696l-7.227 2.309-.328-1.01 7.19-2.41.365 1.11zm.215 61.175l-.36 1.13-7.212-2.359.324-1.011 7.248 2.24zm2.155-52.453l-7.412 1.65-.236-1.039 7.374-1.752.274 1.141zm.151 43.721l-.247 1.118-7.413-1.664.239-1.06 7.421 1.606zm1.418-34.82l-7.527 1.003-.144-1.082 7.518-1.056.153 1.135zm.09 25.907l-.148 1.169-7.513-1.06.13-1.057 7.531.948zm.687-16.889l-7.586.302-.048-1.071 7.577-.4.057 1.169zm.03 7.858l-.047 1.205-7.581-.411.044-1.037 7.584.243zM1183.818 156.152h2.533V86.188h-2.533zM128.268 1128.046h97.94v-2.531h-97.94z"/>
        <path d="M997.62 1362.773c-26.48 0-48.021 21.55-48.021 48.034 0 26.48 21.543 48.03 48.02 48.03 26.479 0 48.02-21.55 48.02-48.03 0-26.489-21.54-48.034-48.02-48.034zm0 96.77c-26.87 0-48.732-21.862-48.732-48.736 0-26.877 21.864-48.742 48.732-48.742 26.87 0 48.73 21.867 48.73 48.742 0 26.874-21.859 48.736-48.73 48.736zm484.214-555.116c-26.215 0-47.542 21.33-47.542 47.55s21.327 47.549 47.542 47.549c26.217 0 47.544-21.328 47.544-47.548-.003-26.221-21.329-47.551-47.544-47.551zm0 96.043c-26.734 0-48.483-21.755-48.483-48.495s21.752-48.495 48.483-48.495c26.739 0 48.488 21.753 48.488 48.495 0 26.74-21.75 48.495-48.488 48.495zm-288.07-226.142h.944v-36.59h-.944v36.59zm362.974 358.71h26.129v-.946h-26.13v.947zm-362.142-440.376l-.4-.01.056-2.835.436.012-.092 2.833zm-3.521.073l-.208-2.827.444-.029.15 2.832-.386.024zm6.635.153l-.391-.047.299-2.818.435.05-.343 2.815zm-9.742.21l-.45-2.798.432-.067.413 2.805-.395.06zm12.832.29l-.391-.08.543-2.78.427.087-.58 2.773zm-15.893.345l-.693-2.747.416-.105.675 2.755-.398.097zm18.915.43l-.376-.115.786-2.723.418.126-.828 2.713zm-21.901.48l-.939-2.674.408-.142.916 2.682-.385.135zm24.852.567l-.372-.149 1.026-2.639.413.161-1.067 2.627zm-27.738.604l-1.183-2.576.393-.177 1.153 2.588-.363.165zm30.59.709l-.374-.19 1.274-2.532.376.19-1.276 2.532zm-33.37.713l-1.408-2.458.377-.215 1.379 2.476-.348.197zm36.071.836l-.346-.214 1.496-2.41.368.23-1.518 2.394zm-38.712.836l-1.617-2.331.354-.244 1.596 2.345-.333.23zm41.273.955l-.32-.245 1.704-2.266.345.26-1.73 2.25zm-43.752.942l-1.818-2.173.332-.274 1.798 2.19-.312.257zm46.147 1.068l-.298-.271 1.895-2.106.322.29-1.92 2.087zm-48.454 1.043l-2-2.004.307-.307 1.978 2.03-.285.281zm50.659 1.17l-.272-.292 2.072-1.939.295.323-2.095 1.908zm-52.77 1.135l-2.17-1.819.276-.328 2.158 1.839-.263.308zm54.771 1.265l-.243-.314 2.23-1.745.27.348-2.257 1.711zm-56.664 1.22l-2.327-1.615.253-.36 2.306 1.65-.232.325zm58.44 1.35l-.214-.338 2.379-1.537.235.364-2.4 1.51zm-60.107 1.296l-2.463-1.4.213-.378 2.455 1.424-.205.354zm61.65 1.42l-.18-.357 2.51-1.32.194.38-2.524 1.298zm-63.076 1.363l-2.579-1.177.18-.388 2.57 1.192-.17.373zm64.371 1.474l-.151-.368 2.618-1.092.163.401-2.63 1.059zm-65.54 1.425l-2.673-.937.145-.414 2.663.976-.136.375zm66.58 1.533l-.124-.397 2.704-.846.126.403-2.707.84zm-67.484 1.458l-2.75-.691.112-.425 2.736.732-.098.384zm68.243 1.566l-.083-.4 2.77-.602.09.42-2.777.582zm-68.878 1.497l-2.798-.452.073-.43 2.79.487-.065.395zm69.367 1.573l-.042-.388 2.808-.354.054.443-2.82.299zm-69.722 1.533l-2.825-.207.033-.436 2.824.246-.032.397zm69.937 1.587l-.008-.397 2.829-.096.013.436-2.834.057zm2.845 1.328l-2.833-.038.005-.4h2.828v.438zm-75.693.258l-.005-.446h2.833l.005.39-2.833.056zm75.502 3.12l-2.817-.301.036-.388 2.822.244-.04.445zm-75.296.247l-.043-.433 2.825-.262.036.397-2.818.298zm74.817 3.083l-2.786-.531.075-.397 2.79.505-.079.423zm-74.31.253l-.08-.42 2.784-.526.077.4-2.78.546zm73.526 3.032l-2.73-.77.11-.392 2.736.75-.116.412zm-72.719.258l-.124-.424 2.731-.763.112.382-2.719.805zm71.645 2.947l-2.648-1.015.145-.382 2.656.993-.153.404zm-70.55.244l-.157-.402 2.649-1.012.146.376-2.637 1.038zm69.192 2.856l-2.542-1.253.172-.357 2.564 1.214-.194.396zm-67.812.223l-.193-.382 2.546-1.246.178.359-2.53 1.27zm66.18 2.743l-2.418-1.48.205-.343 2.44 1.446-.227.377zm-64.534.205l-.226-.363 2.421-1.474.212.349-2.407 1.488zm62.645 2.597l-2.275-1.691.235-.322 2.296 1.659-.256.354zm-60.745.19l-.258-.35 2.292-1.671.238.326-2.272 1.695zm58.62 2.431l-2.119-1.888.264-.299 2.142 1.858-.287.329zm-56.476.18l-.288-.325 2.13-1.871.265.299-2.107 1.897zm54.122 2.242l-1.945-2.06.29-.28 1.967 2.041-.312.299zm-51.753.167l-.318-.3 1.955-2.054.292.273-1.929 2.08zm49.196 2.042l-1.746-2.233.306-.245 1.787 2.201-.347.277zm-46.63.145l-.334-.265 1.762-2.216.318.25-1.745 2.231zm43.892 1.821l-1.55-2.374.333-.22 1.579 2.353-.362.241zm-41.134.134l-.361-.235 1.56-2.37.338.224-1.537 2.381zm38.235 1.582l-1.342-2.496.361-.195 1.355 2.488-.374.203zm-35.31.121l-.39-.206 1.349-2.494.354.187-1.313 2.513zm32.266 1.328l-1.119-2.605.376-.162 1.129 2.6-.386.167zm-29.205.105l-.398-.167 1.107-2.61.375.159-1.084 2.618zm26.03 1.073l-.862-2.7.374-.124.902 2.686-.413.138zm-22.849.08l-.42-.135.879-2.693.377.121-.836 2.706zm19.592.805l-.618-2.769.388-.089.655 2.756-.425.102zm-16.33.057l-.417-.093.62-2.769.398.089-.602 2.773zm13.004.53l-.374-2.812.405-.054.394 2.808-.425.057zm-9.674.033l-.436-.056.396-2.806.394.049-.354 2.813zm6.307.257l-.113-2.834.401-.018.148 2.832-.436.02zm-2.937.01l-.448-.017.153-2.833.386.017-.091 2.834zm2.615-34.733l-.403-.001v-4.726l.432.001-.029 4.726zm-9.137.072l-.093-4.725.416-.008.097 4.725-.42.008zm17.882.05l-.43-.011.126-4.725.4.01-.096 4.725zm-26.594.213l-.186-4.722.414-.018.19 4.722-.418.018zm35.322.094l-.433-.02.223-4.72.401.017-.19 4.723zm-44.042.35l-.28-4.715.397-.025.317 4.714-.434.026zm52.742.142l-.414-.03.315-4.712.414.028-.315 4.714zm-61.436.497l-.408-4.708.432-.036.375 4.71-.4.034zm70.129.183l-.398-.036.4-4.708.438.037-.44 4.707zm-78.819.639l-.503-4.7.421-.044.497 4.7-.415.044zm87.528.232l-.433-.046.529-4.696.4.044-.496 4.698zm-96.204.778l-.597-4.686.415-.056.597 4.69-.415.052zm104.868.282l-.427-.055.623-4.683.4.053-.596 4.685zm-113.517.917l-.691-4.676.403-.058.714 4.668-.426.066zm122.146.328l-.415-.063.722-4.67.411.062-.718 4.67zm-130.754 1.058l-.813-4.654.426-.075.783 4.66-.396.07zm139.35.371l-.393-.07.81-4.654.431.076-.848 4.648zm-147.937 1.204l-.908-4.636.415-.08.9 4.64-.407.076zm156.537.423l-.426-.086.938-4.628.392.078-.904 4.636zm-165.092 1.336l-.997-4.62.405-.086 1.003 4.616-.411.09zm173.629.472l-.419-.093 1.025-4.612.398.088-1.004 4.617zm-182.141 1.477l-1.093-4.595.392-.094 1.122 4.59-.421.099zm190.625.515l-.402-.099 1.123-4.589.41.099-1.13 4.589zm-199.075 1.615l-1.219-4.563.403-.108 1.22 4.564-.404.107zm207.519.563l-.391-.107 1.218-4.563.42.114-1.247 4.556zm-215.936 1.756l-1.315-4.538.414-.12 1.287 4.547-.386.11zm224.34.607l-.386-.114 1.315-4.539.413.124-1.342 4.53zm-232.704 1.896l-1.41-4.51.405-.126 1.403 4.514-.398.122zm241.07.655l-.41-.128 1.428-4.504.394.124-1.411 4.508zm-249.379 2.032l-1.502-4.48.4-.135 1.496 4.482-.394.133zm257.69.707l-.393-.134 1.525-4.472.402.137-1.534 4.47zm-265.934 2.157l-1.596-4.445.391-.142 1.597 4.445-.392.142zm274.198.767l-.393-.144 1.616-4.438.395.142-1.618 4.44zm-282.38 2.281l-1.69-4.412.374-.145 1.719 4.403-.403.154zm290.573.822l-.394-.154 1.719-4.402.384.153-1.709 4.403zm-298.687 2.405l-1.78-4.377.366-.15 1.818 4.363-.404.164zm306.789.87l-.376-.155 1.812-4.366.4.168-1.836 4.353zm-314.792 2.514l-1.883-4.334.38-.166 1.883 4.334-.38.166zm322.832.941l-.367-.16 1.9-4.328.402.177-1.935 4.311zm-330.773 2.622l-1.974-4.293.375-.17 1.985 4.285-.386.178zm338.743 1.015l-.37-.176 2-4.278.381.18-2.011 4.274zm-346.597 2.72l-2.074-4.248.382-.184 2.063 4.251-.37.181zm354.467 1.078l-.356-.176 2.086-4.238.396.194-2.126 4.22zm-362.246 2.826l-2.16-4.2.363-.187 2.174 4.193-.377.194zm370.061 1.158l-.378-.197 2.186-4.19.368.192-2.176 4.195zm-377.748 2.915l-2.262-4.148.373-.202 2.249 4.154-.36.196zm385.442 1.224l-.364-.199 2.274-4.14.376.204-2.286 4.135zm-393.046 3.024l-2.347-4.104.367-.208 2.335 4.107-.355.205zm400.653 1.287l-.362-.21 2.374-4.084.362.21-2.374 4.084zm-408.162 3.116l-2.442-4.045.367-.222 2.423 4.055-.348.212zm415.692 1.365l-.376-.226 2.467-4.03.338.207-2.43 4.05zm-423.118 3.21l-2.51-4 .338-.215 2.54 3.982-.368.234zm430.528 1.425l-.365-.231 2.538-3.981.346.218-2.519 3.994zm-437.838 3.304l-2.608-3.94.34-.227 2.622 3.932-.354.235zm445.12 1.476l-.327-.222 2.623-3.931.367.246-2.664 3.907zm-452.335 3.41l-2.693-3.883.339-.236 2.7 3.879-.346.24zm459.547 1.547l-.336-.238 2.712-3.868.351.247-2.727 3.859zm-466.65 3.498l-2.783-3.82.348-.25 2.766 3.83-.33.24zm473.753 1.615l-.35-.254 2.805-3.802.326.24-2.78 3.816zm-480.757 3.587l-2.854-3.764.325-.25 2.868 3.756-.34.258zm487.726 1.667l-.33-.254 2.876-3.752.331.255-2.877 3.751zm-494.608 3.68l-2.945-3.694.341-.271 2.917 3.718-.313.247zm501.47 1.726l-.327-.266 2.965-3.68.32.26-2.958 3.686zm-508.244 3.775l-3.012-3.637.314-.262 3.025 3.628-.327.271zm514.971 1.766l-.305-.255 3.03-3.624.335.283-3.06 3.596zm-521.615 3.878l-3.1-3.566.315-.275 3.1 3.565-.315.276zm528.252 1.828l-.318-.275 3.113-3.552.312.275-3.107 3.552zm-534.788 3.963l-3.165-3.51.296-.27 3.19 3.486-.321.294zm541.281 1.88l-.314-.29 3.198-3.48.297.276-3.18 3.494zm-547.675 4.041l-3.254-3.427.314-.298 3.232 3.45-.292.275zm554.034 1.924l-.298-.283 3.258-3.418.313.297-3.273 3.404zm-560.318 4.146l-3.313-3.364.296-.294 3.317 3.364-.3.294zm566.55 1.967l-.295-.294 3.343-3.338.294.295-3.342 3.337zm-572.689 4.233l-3.39-3.293.29-.296 3.394 3.284-.294.305zm578.798 2.016l-.3-.31 3.42-3.261.283.293-3.403 3.278zm-584.806 4.316l-3.463-3.214.288-.31 3.456 3.22-.28.304zm590.756 2.045l-.275-.301 3.476-3.196.292.314-3.493 3.183zm-596.63 4.417l-3.527-3.137.275-.31 3.536 3.135-.283.312zm602.448 2.075l-.26-.296 3.534-3.134.29.334-3.564 3.096zm-608.178 4.515l-3.596-3.062.271-.32 3.596 3.063-.271.32zm613.87 2.122l-.268-.322 3.613-3.046.266.32-3.61 3.048zm-619.457 4.593l-3.66-2.987.257-.32 3.673 2.977-.27.33zm624.988 2.14l-.258-.323 3.675-2.963.265.328-3.682 2.959zm-630.434 4.69l-3.72-2.91.25-.321 3.734 2.893-.264.339zm635.824 2.173l-.262-.338 3.751-2.875.25.324-3.74 2.889zm-641.116 4.78l-3.784-2.829.241-.325 3.803 2.806-.26.348zm646.352 2.193l-.253-.34 3.809-2.8.246.333-3.802 2.807zm-651.493 4.865l-3.848-2.738.237-.336 3.86 2.725-.25.349zm656.564 2.202l-.226-.325 3.857-2.73.252.36-3.883 2.695zm-661.558 4.974l-3.905-2.657.237-.346 3.907 2.659-.24.344zm666.496 2.222l-.232-.343 3.924-2.637.231.347-3.923 2.633zm-671.328 5.062l-3.962-2.576.225-.345 3.968 2.562-.231.359zm676.108 2.242l-.232-.362 3.982-2.543.217.342-3.967 2.563zm-680.78 5.143l-4.02-2.478.225-.363 4.014 2.493-.218.348zm685.389 2.25l-.228-.374 4.044-2.447.201.336-4.017 2.484zm-689.905 5.241l-4.07-2.397.208-.354 4.078 2.382-.216.37zm694.337 2.225l-.195-.344 4.078-2.382.223.377-4.106 2.35zm-698.686 5.36l-4.12-2.308.2-.357 4.127 2.298-.207.367zm702.978 2.231l-.198-.358 4.133-2.285.204.368-4.139 2.275zm-707.162 5.449l-4.175-2.212.2-.378 4.167 2.226-.192.364zm711.277 2.225l-.185-.362 4.178-2.2.196.374-4.19 2.188zm-715.296 5.549l-4.218-2.128.186-.373 4.22 2.125-.188.376zm719.25 2.214l-.187-.377 4.232-2.1.18.366-4.224 2.111zm-723.093 5.64l-4.268-2.025.188-.393 4.254 2.05-.174.369zm726.87 2.194l-.177-.375 4.274-2.012.178.376-4.275 2.011zm-730.548 5.752l-4.31-1.935.172-.384 4.31 1.939-.172.38zm734.15 2.163l-.167-.377 4.317-1.919.173.385-4.323 1.911zm-737.65 5.858l-4.353-1.835.168-.4 4.343 1.858-.158.377zm741.086 2.14l-.166-.388 4.364-1.82.158.379-4.356 1.829zm-744.41 5.963l-4.391-1.745.154-.39 4.39 1.744-.154.39zm747.668 2.116l-.157-.408 4.402-1.715.143.368-4.388 1.755zm-750.819 6.059l-4.425-1.651.147-.392 4.425 1.652-.147.391zm753.904 2.087l-.143-.394 4.435-1.625.145.395-4.437 1.624zm-756.87 6.157l-4.46-1.562.136-.384 4.466 1.536-.142.41zm759.783 2.077l-.139-.397 4.473-1.53.136.394-4.47 1.533zm-762.569 6.226l-4.495-1.452.126-.396 4.5 1.445-.131.403zm765.3 2.064l-.128-.398 4.503-1.44.129.4-4.505 1.438zm-767.905 6.304l-4.521-1.357.116-.397 4.526 1.35-.12.404zm770.45 2.035l-.108-.388 4.521-1.342.126.417-4.539 1.313zm-772.857 6.353l-4.556-1.246.114-.416 4.55 1.273-.108.389zm775.226 2.073l-.113-.424 4.567-1.222.104.387-4.558 1.259zm-777.453 6.376l-4.581-1.163.103-.4 4.579 1.151-.1.412zm779.637 2.078l-.106-.427 4.587-1.124.099.387-4.58 1.164zM802 1042.538l-4.606-1.05.092-.406 4.609 1.044-.095.412zm783.669 2.08l-.093-.405 4.61-1.034.093.411-4.61 1.027zm-785.521 6.454l-4.63-.956.084-.41 4.63.956-.084.41zm787.329 2.09l-.083-.409 4.632-.938.081.409-4.63.938zm-788.996 6.474l-4.65-.844.075-.413 4.65.847-.075.41zm790.616 2.093l-.072-.4 4.652-.843.073.425-4.653.818zm-792.1 6.515l-4.664-.75.066-.41 4.664.745-.065.415zm793.536 2.113l-.065-.426 4.668-.722.059.402-4.662.746zm-794.827 6.517l-4.68-.64.059-.417 4.677.642-.056.415zm796.074 2.116l-.057-.418 4.683-.624.058.41-4.684.632zm-797.182 6.549l-4.692-.549.05-.416 4.691.548-.049.417zm798.238 2.117l-.047-.416 4.7-.532.045.416-4.698.532zm-799.151 6.56l-4.704-.439.042-.414 4.703.436-.041.416zm800.023 2.114l-.035-.4 4.707-.438.037.431-4.71.407zm-800.753 6.586l-4.71-.344.028-.418 4.711.345-.029.417zm801.438 2.139l-.026-.432 4.708-.312.03.4-4.712.344zm-801.98 6.574l-4.718-.235.022-.42 4.719.234-.023.421zm802.476 2.13l-.02-.416 4.718-.219.02.418-4.718.217zm-802.831 6.595l-4.72-.14.01-.418 4.722.141-.012.417zm803.139 2.136l-.014-.418 4.725-.126.01.417-4.721.127zm-803.305 6.597l-4.724-.046.003-.411 4.726.033-.005.424zm808.149 2.116h-4.723v-.402l4.724-.033v.435h-.001zm-4.722 1.777h4.726v-.418h-4.726v.418zm-808.13 4.898l-.006-.418 4.724-.061.003.415-4.721.064zm812.75 3.947l-4.722-.125.005-.398 4.725.093-.008.43zm-812.542 4.866l-.016-.409 4.722-.174.014.425-4.72.158zm812.252 3.944l-4.72-.19.016-.421 4.724.192-.02.419zm-811.857 4.883l-.023-.425 4.716-.25.025.411-4.718.264zm811.377 3.928l-4.718-.278.027-.432 4.715.308-.024.402zm-810.792 4.883l-.032-.413 4.71-.374.035.428-4.713.36zm810.118 3.938l-4.704-.403.034-.417 4.71.399-.04.42zm-809.343 4.865l-.039-.425 4.702-.453.04.41-4.703.468zm808.484 3.934l-4.696-.53.043-.404 4.698.504-.045.43zm-807.518 4.839l-.052-.405 4.69-.58.05.423-4.688.562zm806.47 3.911l-4.69-.593.054-.418 4.688.595-.052.416zm-805.314 4.85l-.06-.424 4.68-.658.058.408-4.678.674zm804.073 3.89l-4.675-.686.067-.429 4.67.724-.062.391zm-802.726 4.83l-.07-.4 4.658-.785.072.425-4.66.76zm801.29 3.904l-4.649-.818.071-.405 4.653.813-.074.41zm-799.755 4.802l-.078-.416 4.643-.862.077.4-4.642.878zm798.132 3.885l-4.626-.932.076-.398 4.637.909-.087.421zm-796.406 4.775l-.085-.397 4.617-.986.09.418-4.622.965zm794.602 3.872l-4.614-1.035.089-.388 4.616.997-.091.426zm-792.687 4.756l-.097-.41 4.601-1.07.095.397-4.599 1.083zm790.688 3.832l-4.592-1.097.103-.425 4.586 1.126-.097.396zm-788.586 4.744l-.104-.406 4.576-1.171.103.4-4.575 1.177zm786.398 3.826l-4.562-1.222.107-.406 4.566 1.22-.11.408zm-784.108 4.715l-.113-.406 4.546-1.286.112.403-4.545 1.289zm781.737 3.786l-4.538-1.315.113-.4 4.538 1.315-.113.4zm-779.26 4.678l-.123-.396 4.519-1.376.12.398-4.517 1.374zm776.696 3.788l-4.503-1.427.12-.391 4.511 1.401-.128.417zm-774.038 4.635l-.127-.386 4.485-1.485.133.405-4.49 1.466zm771.287 3.785l-4.477-1.51.14-.403 4.474 1.524-.137.389zm-768.443 4.582l-.138-.384 4.452-1.59.141.404-4.455 1.57zm765.508 3.777l-4.445-1.597.15-.405 4.44 1.614-.145.388zm-762.476 4.525l-.152-.405 4.427-1.646.142.376-4.417 1.675zm759.357 3.763l-4.418-1.68.161-.411 4.405 1.717-.148.374zm-756.15 4.465l-.158-.394 4.39-1.753.15.377-4.382 1.77zm752.843 3.77l-4.364-1.807.162-.388 4.364 1.812-.162.384zm-749.47 4.354l-.164-.38 4.34-1.859.167.382-4.344 1.857zm745.99 3.804l-4.323-1.915.172-.38 4.322 1.901-.17.394zm-742.44 4.25l-.17-.375 4.298-1.962.177.386-4.304 1.95zm738.79 3.8l-4.29-1.986.18-.384 4.282 2.002-.173.367zm-735.066 4.172l-.174-.359 4.249-2.068.188.39-4.263 2.037zm731.23 3.815l-4.239-2.086.189-.377 4.236 2.089-.187.374zm-727.328 4.084l-.188-.376 4.214-2.132.188.368-4.214 2.14zm723.324 3.807l-4.193-2.169.198-.382 4.187 2.187-.192.364zm-719.254 4l-.193-.358 4.161-2.24.2.374-4.168 2.225zm715.081 3.805l-4.147-2.262.204-.373 4.139 2.274-.196.361zm-710.837 3.926l-.21-.375 4.122-2.311.2.361-4.112 2.325zm706.498 3.78l-4.097-2.35.216-.37 4.085 2.368-.204.352zm-702.09 3.845l-.21-.351 4.056-2.425.219.366-4.064 2.41zm697.577 3.776l-4.04-2.452.215-.357 4.044 2.45-.219.359zm-693.003 3.757l-.219-.351 4.008-2.506.224.363-4.013 2.494zm688.323 3.77l-3.972-2.567.214-.335 3.994 2.529-.236.373zm-683.583 3.667l-.235-.36 3.967-2.562.22.333-3.952 2.59zm678.757 3.723l-3.928-2.626.23-.349 3.932 2.623-.234.352zm-673.86 3.608l-.237-.35 3.9-2.663.236.34-3.899 2.673zm668.873 3.682l-3.883-2.691.25-.357 3.868 2.717-.235.33zm-663.818 3.541l-.237-.33 3.831-2.766.248.344-3.842 2.752zm658.658 3.662l-3.8-2.809.238-.325 3.816 2.784-.254.35zm-653.444 3.452l-.247-.329 3.772-2.84.257.34-3.782 2.83zm648.142 3.61l-3.75-2.876.255-.328 3.75 2.873-.255.331zm-642.779 3.39l-.25-.322 3.71-2.925.265.335-3.725 2.911zm637.33 3.56l-3.693-2.944.263-.324 3.692 2.944-.262.324zm-631.812 3.323l-.256-.31 3.64-3.015.274.337-3.658 2.988zm626.209 3.516l-3.624-3.029.268-.322 3.624 3.03-.268.321zm-620.545 3.25l-.26-.306 3.574-3.086.281.325-3.595 3.066zm614.789 3.469l-3.536-3.13.258-.3 3.568 3.098-.29.332zm-608.98 3.17l-.265-.295 3.507-3.167.288.324-3.53 3.138zm603.093 3.406l-3.477-3.192.273-.303 3.493 3.178-.289.317zm-597.133 3.125l-.292-.317 3.463-3.218.277.3-3.448 3.235zm591.107 3.328l-3.416-3.263.288-.302 3.416 3.258-.288.307zm-585.014 3.054l-.294-.302 3.388-3.293.286.295-3.38 3.3zm578.852 3.261l-3.355-3.327.3-.304 3.345 3.344-.29.287zm-572.623 2.99l-.287-.279 3.292-3.387.31.308-3.315 3.359zm566.318 3.2l-3.274-3.403.297-.293 3.28 3.406-.303.29zm-559.946 2.93l-.302-.284 3.231-3.45.303.283-3.232 3.45zm553.52 3.11l-3.216-3.46.317-.292 3.196 3.481-.297.271zm-547.022 2.872l-.31-.28 3.155-3.517.31.279-3.155 3.518zm540.462 3.035l-3.133-3.534.31-.28 3.136 3.542-.313.272zm-533.84 2.801l-.308-.265 3.07-3.588.327.28-3.089 3.573zm527.15 2.968l-3.052-3.61.32-.275 3.048 3.613-.316.272zm-520.396 2.733l-.331-.276 3.024-3.627.312.258-3.005 3.645zm513.586 2.88l-2.962-3.68.318-.253 2.976 3.667-.332.266zm-506.713 2.666l-.317-.246 2.91-3.726.34.268-2.933 3.704zm499.792 2.798l-2.89-3.73.33-.259 2.887 3.734-.327.255zm-492.795 2.612l-.33-.251 2.84-3.775.338.251-2.848 3.775zm485.742 2.712l-2.784-3.816.318-.232 2.82 3.79-.354.258zm-478.627 2.538l-.336-.241 2.75-3.842.344.246-2.758 3.837zm471.487 2.612l-2.728-3.859.343-.241 2.727 3.857-.342.243zm-464.27 2.479l-.332-.232 2.663-3.902.355.25-2.685 3.884zm457.017 2.52l-2.66-3.905.358-.244 2.635 3.924-.333.225zm-449.678 2.42l-.354-.23 2.6-3.943.347.227-2.593 3.947zm442.313 2.423l-2.58-3.962.36-.232 2.564 3.97-.344.224zm-434.87 2.355l-.361-.223 2.521-4.003.348.22-2.508 4.006zm427.379 2.34l-2.444-4.044.337-.206 2.482 4.021-.375.228zm-419.839 2.275l-.35-.208 2.407-4.062.37.222-2.427 4.048zm412.29 2.232l-2.386-4.08.362-.207 2.383 4.076-.36.211zm-404.644 2.221l-.357-.204 2.324-4.11.372.21-2.339 4.104zm396.984 2.132l-2.299-4.129.367-.206 2.289 4.136-.357.199zm-389.245 2.156l-.36-.196 2.237-4.161.374.201-2.25 4.156zm381.502 2.023l-2.224-4.166.375-.203 2.204 4.181-.355.188zm-373.661 2.093l-.376-.19 2.15-4.208.373.19-2.147 4.208zm365.824 1.92l-2.139-4.217.39-.195 2.099 4.232-.35.18zm-357.903 2.022l-.372-.173 2.053-4.26.383.182-2.064 4.25zm349.977 1.82l-2.04-4.267.392-.183 2.01 4.279-.362.17zm-341.964 1.954l-.39-.175 1.975-4.298.376.174-1.96 4.3zm333.958 1.714l-1.939-4.308.393-.177 1.92 4.32-.374.165zm-325.866 1.884l-.381-.169 1.86-4.34.392.17-1.87 4.34zm317.792 1.606l-1.856-4.346.4-.176 1.821 4.365-.365.157zm-309.618 1.81l-.39-.16 1.77-4.377.391.16-1.77 4.377zm301.463 1.502l-1.753-4.39.405-.157 1.717 4.4-.37.147zm-293.217 1.734l-.4-.147 1.69-4.417.39.148-1.68 4.416zm284.967 1.412l-1.663-4.426.412-.153 1.625 4.44-.374.139zm-276.654 1.65l-.38-.136 1.56-4.463.408.145-1.588 4.454zm268.332 1.314l-1.559-4.455.41-.145 1.53 4.47-.381.13zm-259.95 1.557l-.384-.124 1.464-4.496.416.138-1.496 4.482zm251.557 1.233l-1.438-4.505.4-.13 1.44 4.506-.402.13zm-243.095 1.462l-.4-.124 1.37-4.52.401.123-1.371 4.52zm234.657 1.13l-1.349-4.531.402-.112 1.344 4.526-.397.117zm-226.193 1.36l-.395-.108 1.278-4.55.407.117-1.29 4.541zm217.688 1.055l-1.229-4.56.394-.11 1.249 4.557-.414.113zm-209.165 1.258l-.401-.107 1.182-4.571.41.105-1.191 4.573zm200.62.966l-1.131-4.585.397-.103 1.154 4.585-.42.103zm-192.048 1.156l-.391-.096 1.065-4.604.419.103-1.093 4.597zm183.467.88l-1.057-4.607.417-.092 1.037 4.608-.397.091zm-174.836 1.053l-.41-.084.97-4.627.41.087-.97 4.624zm166.193.797l-.942-4.629.41-.084.942 4.631-.41.082zm-157.54.947l-.426-.082.904-4.638.4.074-.879 4.646zm148.867.715l-.846-4.648.418-.074.838 4.65-.41.072zm-140.178.839l-.412-.07.783-4.657.411.068-.782 4.659zm131.46.631l-.72-4.67.394-.058.754 4.66-.428.068zm-122.736.736l-.4-.061.66-4.676.426.061-.686 4.676zm114.016.541l-.658-4.676.43-.058.625 4.682-.397.052zm-105.253.634l-.416-.052.563-4.694.418.052-.565 4.694zm96.497.463l-.565-4.697.433-.05.528 4.698-.396.049zm-87.73.518l-.427-.044.499-4.7.403.047-.474 4.697zm78.93.377l-.433-4.704.414-.035.44 4.704-.42.035zm-70.136.42l-.415-.035.375-4.711.415.035-.375 4.711zm61.328.288l-.316-4.711.403-.028.34 4.714-.427.025zm-52.523.315l-.402-.027.248-4.715.434.023-.28 4.719zm43.725.208l-.252-4.718.436-.023.22 4.717-.404.024zm-34.89.207l-.415-.015.153-4.723.419.014-.158 4.724zm26.07.126l-.16-4.725.43-.014.127 4.725-.397.014zm-17.246.098l-.434-.007.094-4.725.4.007-.06 4.725zm8.408.04l-.03-4.723.418-.002.031 4.723h-.419v.002zm-2.287-60.097c-53.898 0-107.709-12.682-157.303-37.953l.427-.836c49.45 25.19 103.13 37.842 156.873 37.847 47.751.005 95.548-9.98 140.537-30.026 42.577-18.97 80.165-45.711 111.719-79.481 30.48-32.624 54.084-70.396 70.145-112.269 16.06-41.879 23.77-85.741 22.928-130.385-.874-46.216-10.933-91.242-29.9-133.828l.864-.384c19.015 42.701 29.101 87.85 29.982 134.192.847 44.764-6.889 88.753-22.997 130.74-16.103 41.988-39.77 79.864-70.332 112.571-31.645 33.868-69.335 60.686-112.03 79.704-45.097 20.1-93.037 30.108-140.913 30.108zm.042 43.399c-52.616 0-103.656-10.307-151.705-30.633-46.413-19.633-88.094-47.74-123.887-83.54-35.79-35.801-63.893-77.486-83.523-123.906-20.325-48.058-30.63-99.106-30.63-151.728 0-52.625 10.305-103.675 30.63-151.73 19.63-46.423 47.732-88.11 83.523-123.908 35.793-35.802 77.474-63.906 123.887-83.54 48.049-20.328 99.089-30.632 151.705-30.632v.943c-52.487 0-103.404 10.28-151.336 30.558-46.299 19.587-87.878 47.626-123.583 83.337-35.706 35.712-63.74 77.3-83.32 123.605-20.275 47.943-30.554 98.868-30.554 151.365 0 52.496 10.28 103.422 30.554 151.363 19.58 46.307 47.617 87.893 83.32 123.604 35.706 35.713 77.284 63.75 123.585 83.336 47.932 20.279 98.848 30.561 151.337 30.561 52.486 0 103.401-10.282 151.337-30.56 46.296-19.586 87.873-47.624 123.582-83.337 35.705-35.71 63.737-77.297 83.319-123.604 20.276-47.94 30.553-98.867 30.553-151.363h.947c0 52.623-10.305 103.672-30.626 151.73-19.632 46.418-47.735 88.104-83.528 123.905-35.793 35.8-77.471 63.908-123.881 83.539-48.055 20.328-99.095 30.635-151.706 30.635zm390.685-389.81h-2.837c0-52.368-10.253-103.172-30.477-150.996-19.532-46.193-47.502-87.678-83.12-123.304-35.618-35.628-77.099-63.598-123.28-83.135-47.819-20.228-98.613-30.483-150.97-30.483v-2.836c52.739 0 103.905 10.334 152.069 30.707 46.523 19.68 88.304 47.856 124.185 83.742 35.882 35.887 64.047 77.676 83.725 124.205 20.375 48.175 30.705 99.349 30.705 152.1zM1193.6 1552.6c-56.695 0-111.693-11.104-163.47-33.006-50.008-21.159-94.92-51.442-133.49-90.02-38.569-38.574-68.85-83.494-90.005-133.512-21.898-51.784-33-106.795-33-163.497 0-56.707 11.102-111.715 33-163.502 21.155-50.014 51.434-94.935 90.004-133.513 38.57-38.575 83.481-68.86 133.49-90.017 51.774-21.903 106.775-33.008 163.471-33.008v.947c-56.569 0-111.443 11.08-163.103 32.932-49.895 21.107-94.71 51.327-133.189 89.816-38.483 38.49-68.694 83.309-89.8 133.214-21.85 51.668-32.93 106.554-32.93 163.13 0 56.574 11.08 111.463 32.93 163.129 21.104 49.906 51.317 94.728 89.8 133.215 38.48 38.491 83.294 68.706 133.189 89.816 51.66 21.85 106.534 32.931 163.103 32.931 56.567 0 111.442-11.08 163.1-32.93 49.9-21.11 94.707-51.326 133.193-89.817 38.482-38.487 68.694-83.309 89.796-133.215 21.852-51.666 32.93-106.555 32.93-163.128h.946c0 56.702-11.101 111.713-33.003 163.497-21.154 50.02-51.434 94.94-90.002 133.515-38.57 38.58-83.48 68.86-133.489 90.02-51.777 21.902-106.775 33.003-163.47 33.003zm419.965-420.035h-.947c0-56.577-11.078-111.461-32.929-163.13-21.102-49.905-51.316-94.726-89.798-133.214-38.484-38.487-83.294-68.707-133.19-89.816-51.659-21.851-106.535-32.932-163.1-32.932v-.947c56.692 0 111.692 11.106 163.469 33.008 50.01 21.155 94.92 51.442 133.489 90.018 38.568 38.576 68.853 83.496 90.002 133.514 21.9 51.786 33.004 106.792 33.004 163.499zm-401.309 373.376a.48.48 0 0 1 .464-.48c.262 0 .48.207.48.46.01.263-.2.484-.46.484h-.01a.475.475 0 0 1-.474-.464zm3.268.538a.469.469 0 0 1-.436-.499.485.485 0 0 1 .504-.445v.01c.265.01.455.234.443.499a.469.469 0 0 1-.472.435h-.04zm-6.093-.312a.484.484 0 0 1 .417-.529c.264-.027.5.162.53.424a.481.481 0 0 1-.425.52h-.047a.482.482 0 0 1-.475-.415zm8.863.644a.481.481 0 0 1-.386-.549.475.475 0 0 1 .545-.387.478.478 0 0 1 .387.546.483.483 0 0 1-.47.398c-.02 0-.044 0-.076-.008zm-11.647-.16a.466.466 0 0 1 .367-.563.47.47 0 0 1 .556.366.462.462 0 0 1-.368.553c-.034.011-.066.011-.093.011a.464.464 0 0 1-.462-.367zm14.38.745a.47.47 0 0 1-.34-.577.473.473 0 0 1 .916.238.468.468 0 0 1-.457.346c-.045 0-.085 0-.12-.007zm-17.123-.007a.485.485 0 0 1 .323-.6.472.472 0 0 1 .585.323.472.472 0 0 1-.312.587c-.048.007-.093.015-.14.015a.482.482 0 0 1-.456-.325zm19.787.837a.462.462 0 0 1-.285-.605.463.463 0 0 1 .605-.281c.248.098.37.359.285.602a.478.478 0 0 1-.447.315.36.36 0 0 1-.158-.031zm-22.441.142a.473.473 0 1 1 .877-.358.47.47 0 0 1-.265.614.347.347 0 0 1-.167.036.479.479 0 0 1-.445-.292zm25.008.936a.474.474 0 0 1-.226-.633.475.475 0 0 1 .63-.217.471.471 0 0 1 .228.622.488.488 0 0 1-.436.278.534.534 0 0 1-.196-.05zm-27.56.293a.471.471 0 0 1 .199-.633.478.478 0 0 1 .644.201.459.459 0 0 1-.211.63.41.41 0 0 1-.208.058.49.49 0 0 1-.424-.256zm30.026 1.022a.478.478 0 0 1-.17-.657.466.466 0 0 1 .649-.158.469.469 0 0 1 .162.642.459.459 0 0 1-.407.234.483.483 0 0 1-.234-.061zm-32.454.434a.475.475 0 0 1 .142-.654.478.478 0 0 1 .654.14.478.478 0 0 1-.14.657.426.426 0 0 1-.256.074.461.461 0 0 1-.4-.217zm34.778 1.097a.489.489 0 0 1-.106-.664.472.472 0 0 1 .663-.103.459.459 0 0 1 .103.652.445.445 0 0 1-.374.197.54.54 0 0 1-.286-.082zm-37.065.583a.484.484 0 0 1 .084-.67.47.47 0 0 1 .661.085.472.472 0 0 1-.082.664.51.51 0 0 1-.293.104.483.483 0 0 1-.37-.183zm39.246 1.156c-.184-.183-.217-.474-.034-.676a.465.465 0 0 1 .66-.047.481.481 0 0 1 .046.676.473.473 0 0 1-.355.16.527.527 0 0 1-.317-.113zm-41.364.718a.466.466 0 0 1 .022-.662.464.464 0 0 1 .663.017.48.48 0 0 1-.024.672.45.45 0 0 1-.319.125.446.446 0 0 1-.342-.152zm43.386 1.21a.475.475 0 0 1 .011-.674.481.481 0 0 1 .677.02c.176.189.168.489-.024.671a.46.46 0 0 1-.318.125.498.498 0 0 1-.346-.142zm-45.33.86a.47.47 0 0 1-.038-.674c.17-.199.473-.218.664-.038a.466.466 0 0 1 .044.661.45.45 0 0 1-.359.162.523.523 0 0 1-.31-.11zm47.159 1.245a.475.475 0 0 1 .072-.66c.21-.162.516-.136.673.077.162.207.125.5-.084.661a.48.48 0 0 1-.282.104.494.494 0 0 1-.38-.182zm-48.908.98a.466.466 0 0 1-.094-.658.477.477 0 0 1 .662-.106.471.471 0 0 1 .093.664.456.456 0 0 1-.661.1zm50.541 1.29v-.012a.473.473 0 0 1 .132-.654.477.477 0 0 1 .652.143h.01a.473.473 0 0 1-.4.73.464.464 0 0 1-.394-.207zm-52.068 1.094a.464.464 0 0 1-.164-.644.47.47 0 0 1 .65-.162c.222.133.294.427.165.644a.474.474 0 0 1-.408.228.436.436 0 0 1-.243-.066zm53.473 1.306a.49.49 0 0 1 .198-.644.484.484 0 0 1 .644.201.489.489 0 0 1-.196.64.574.574 0 0 1-.23.056.481.481 0 0 1-.416-.253zm-54.777 1.21a.462.462 0 0 1-.22-.634.47.47 0 0 1 .626-.217.47.47 0 0 1-.206.898.373.373 0 0 1-.2-.047zm55.967 1.311a.463.463 0 0 1 .256-.615c.235-.101.517.012.612.255a.46.46 0 0 1-.254.616.4.4 0 0 1-.176.039.471.471 0 0 1-.438-.295zm-57.038 1.316a.465.465 0 0 1-.28-.605.479.479 0 0 1 .614-.283c.234.093.368.37.274.614a.468.468 0 0 1-.608.274zm57.985 1.313a.477.477 0 0 1 .31-.598.489.489 0 0 1 .598.317.485.485 0 0 1-.314.593.728.728 0 0 1-.14.015.473.473 0 0 1-.454-.327zm-58.805 1.399a.461.461 0 0 1-.33-.578h-.01a.484.484 0 0 1 .586-.339.481.481 0 0 1 .33.585.481.481 0 0 1-.456.354.55.55 0 0 1-.12-.022zm59.505 1.291c-.058-.243.114-.499.372-.553.253-.047.499.113.553.37a.466.466 0 0 1-.369.557c-.024.008-.057.008-.092.008a.473.473 0 0 1-.464-.382zm-60.072 1.486a.472.472 0 0 1-.389-.548.484.484 0 0 1 .548-.387.48.48 0 0 1 .386.546h-.01a.47.47 0 0 1-.46.396s-.049-.007-.075-.007zm60.524 1.273a.475.475 0 0 1 .403-.529.485.485 0 0 1 .533.417.481.481 0 0 1-.416.53H1243.868a.466.466 0 0 1-.461-.418zm-60.837 1.543a.473.473 0 1 1 .038 0h-.038zm61.037 1.987c0-.157.072-.298.178-.38a.454.454 0 0 1-.187-.37.466.466 0 0 1 .462-.48.468.468 0 0 1 .477.462.503.503 0 0 1-.176.391.457.457 0 0 1 .186.377.472.472 0 0 1-.473.474.477.477 0 0 1-.467-.474zm-61.565.376a.473.473 0 0 1 .944-.008c0 .26-.21.47-.464.47l-.01.008a.475.475 0 0 1-.47-.47zm61.864 2.922a.463.463 0 0 1-.421-.513.467.467 0 0 1 .509-.434.474.474 0 0 1 .42.523.459.459 0 0 1-.467.424h-.04zm-61.702-.05a.491.491 0 0 1 .425-.521.478.478 0 0 1 .52.423.478.478 0 0 1-.427.523h-.045a.474.474 0 0 1-.473-.424zm61.268 2.846a.473.473 0 0 1-.376-.55.476.476 0 0 1 .935.168.477.477 0 0 1-.463.387.341.341 0 0 1-.096-.005zm-60.835 0a.471.471 0 1 1 .926-.182.478.478 0 0 1-.368.558h-.091a.458.458 0 0 1-.467-.376zm60.157 2.748c-.253-.063-.395-.329-.331-.587a.479.479 0 0 1 .588-.32c.253.077.394.33.326.588h-.005a.47.47 0 0 1-.457.34.946.946 0 0 1-.121-.02zm-59.47.05a.485.485 0 0 1 .311-.597.484.484 0 0 1 .587.32.47.47 0 0 1-.313.587c-.046.024-.093.024-.13.024a.484.484 0 0 1-.455-.335zm58.526 2.622a.465.465 0 0 1-.266-.603.464.464 0 0 1 .605-.273.471.471 0 0 1 .272.613.467.467 0 0 1-.435.302.34.34 0 0 1-.176-.04zm-57.59.089a.476.476 0 0 1 .264-.614.47.47 0 0 1 .614.264.469.469 0 0 1-.432.65.488.488 0 0 1-.447-.3zm56.416 2.493a.473.473 0 0 1 .414-.852.48.48 0 0 1 .218.635.47.47 0 0 1-.632.217zm-55.224.125a.472.472 0 0 1 .209-.632.458.458 0 0 1 .632.205.477.477 0 0 1-.197.636.491.491 0 0 1-.218.047.47.47 0 0 1-.426-.256zm53.808 2.332a.466.466 0 0 1-.155-.65h-.007a.476.476 0 0 1 .815.492h-.012a.44.44 0 0 1-.394.226.469.469 0 0 1-.247-.068zm-52.372.172a.47.47 0 0 1 .142-.652.475.475 0 0 1 .654.138.476.476 0 0 1-.397.73.455.455 0 0 1-.399-.216zm50.735 2.14a.47.47 0 0 1-.09-.662.472.472 0 1 1 .754.57.485.485 0 0 1-.38.19.509.509 0 0 1-.284-.099zm-49.09.21a.466.466 0 0 1 .084-.663c.209-.16.5-.118.664.084a.476.476 0 0 1-.084.666.441.441 0 0 1-.283.094.464.464 0 0 1-.38-.18zm47.247 1.948a.482.482 0 0 1-.025-.673.469.469 0 0 1 .66-.03.48.48 0 0 1 .036.675.484.484 0 0 1-.67.028zm-45.383.246a.468.468 0 0 1 .025-.673.477.477 0 0 1 .643.703.493.493 0 0 1-.322.123.446.446 0 0 1-.346-.153zm43.363 1.74a.47.47 0 0 1 .03-.673.46.46 0 0 1 .662.028.462.462 0 0 1-.032.666.45.45 0 0 1-.313.126.48.48 0 0 1-.347-.148zm-41.315.274a.483.483 0 0 1-.038-.668.471.471 0 0 1 .671-.033c.2.17.21.47.038.67a.453.453 0 0 1-.35.15.465.465 0 0 1-.321-.119zm39.113 1.5a.466.466 0 0 1 .088-.661.463.463 0 0 1 .657.098c.165.207.126.5-.083.66a.464.464 0 0 1-.284.095.49.49 0 0 1-.378-.192zm-36.884.323a.467.467 0 0 1-.097-.659.472.472 0 0 1 .666-.1.474.474 0 0 1 .091.66.464.464 0 0 1-.375.193.445.445 0 0 1-.285-.094zm34.529 1.257a.482.482 0 0 1 .144-.654.477.477 0 1 1 .511.806h-.007a.48.48 0 0 1-.25.073.472.472 0 0 1-.398-.225zm-32.139.351h-.01a.474.474 0 0 1-.151-.651.46.46 0 0 1 .641-.155.466.466 0 0 1 .161.644.47.47 0 0 1-.64.162zm29.648 1.001a.484.484 0 0 1 .208-.632.473.473 0 0 1 .634.206c.122.237.03.52-.209.637a.45.45 0 0 1-.206.057.487.487 0 0 1-.427-.268zm-27.127.376a.464.464 0 0 1-.215-.634.463.463 0 0 1 .621-.206c.239.113.34.39.217.626a.45.45 0 0 1-.411.265.374.374 0 0 1-.212-.051zm24.528.747a.471.471 0 0 1 .264-.614.47.47 0 0 1 .613.265.475.475 0 0 1-.264.613.485.485 0 0 1-.177.032.465.465 0 0 1-.436-.296zm-21.891.397a.454.454 0 0 1-.272-.603.462.462 0 0 1 .603-.275h.01a.47.47 0 0 1 .263.605.472.472 0 0 1-.433.312.538.538 0 0 1-.171-.04zm19.188.472c-.064-.253.078-.52.322-.58h.012a.458.458 0 0 1 .58.319.476.476 0 0 1-.46.606.49.49 0 0 1-.454-.345zm-16.456.428a.48.48 0 0 1-.322-.59.456.456 0 0 1 .576-.318v-.012c.245.073.4.327.333.586a.485.485 0 0 1-.46.352.635.635 0 0 1-.127-.018zm13.698.187a.473.473 0 0 1 .37-.551h.013c.253-.056.499.118.543.373a.48.48 0 0 1-.375.557c-.03 0-.058.007-.088.007a.474.474 0 0 1-.463-.386zm-10.895.443a.47.47 0 0 1 .17-.923.47.47 0 1 1-.08.935s-.059 0-.09-.012zm8.081-.082c-.018-.256.172-.494.426-.509a.47.47 0 0 1 .52.421c.03.254-.174.482-.426.514h-.046a.479.479 0 0 1-.474-.426zm-5.228.462a.479.479 0 0 1-.432-.509.485.485 0 0 1 .52-.437h-.011a.474.474 0 0 1-.035.946h-.042zm2.402-.359c0-.255.21-.471.461-.471h.007a.47.47 0 1 1 0 .942.465.465 0 0 1-.468-.47zm-180.636-651.188a272.53 272.53 0 0 0-29.47 25.54c-50.9 50.903-78.926 118.637-78.926 190.727 0 27.605 4.125 54.56 12.055 80.191l11.08-3.6c-7.56-24.477-11.496-50.228-11.496-76.59 0-68.982 26.82-133.793 75.522-182.499a261.142 261.142 0 0 1 28.083-24.344l-6.848-9.425zm-.16 1.044l5.978 8.227a262.93 262.93 0 0 0-27.573 23.975c-48.842 48.842-75.74 113.842-75.74 183.022 0 25.96 3.803 51.563 11.311 76.114l-9.669 3.141c-7.831-25.563-11.804-52.223-11.804-79.252 0-71.895 27.954-139.444 78.712-190.204a272.343 272.343 0 0 1 28.785-25.023zm405.817 298.164c-12.526 37.102-33.504 71.077-61.971 99.55-47.912 47.92-111.402 74.636-179.12 75.489v11.647c70.824-.853 137.25-28.783 187.356-78.902 29.787-29.79 51.734-65.357 64.816-104.181l-11.081-3.603zm.468.933l9.668 3.142a266.145 266.145 0 0 1-25.827 54.615c-10.868 17.505-23.842 33.846-38.566 48.574-49.705 49.709-115.763 77.629-186.089 78.67v-10.16c67.61-1.042 131.114-27.905 178.9-75.697 14.152-14.156 26.621-29.858 37.069-46.672a256.222 256.222 0 0 0 24.845-52.472zm70.796-226.696a1.75 1.75 0 1 1 .003 3.5 1.75 1.75 0 0 1-.003-3.5zm-472.977 448.949a1.754 1.754 0 0 1 0 3.51 1.754 1.754 0 1 1 0-3.51zm157.886-665.795a1.752 1.752 0 1 1 0 3.504 1.752 1.752 0 0 1 0-3.504zm362.546 357.898a1.752 1.752 0 1 1 0 3.504 1.752 1.752 0 0 1 0-3.504zm26.117-.005a1.753 1.753 0 0 1 0 3.505 1.752 1.752 0 1 1 0-3.505zM891.49 859.713a5.01 5.01 0 0 1 0 10.019 5.009 5.009 0 0 1 0-10.019zm-39.058 488.157c.97 0 1.753.785 1.753 1.756 0 .966-.784 1.753-1.753 1.753a1.754 1.754 0 1 1 0-3.51zm10.005 14.46a1.754 1.754 0 1 1 0 3.51 1.754 1.754 0 0 1 0-3.51zm10.093 11.814a3.95 3.95 0 0 1 0 7.897 3.948 3.948 0 0 1 0-7.897zm10.875 15.784a1.752 1.752 0 0 1 0 3.502 1.75 1.75 0 0 1 0-3.502zm329.894 142.648a4.145 4.145 0 0 0-4.146 4.141 4.145 4.145 0 0 0 4.146 4.14 4.142 4.142 0 0 0 0-8.281zm0 9.229a5.097 5.097 0 0 1-5.091-5.088 5.094 5.094 0 0 1 5.09-5.088 5.088 5.088 0 0 1 5.081 5.089 5.087 5.087 0 0 1-5.08 5.087zm-.002-9.704a4.615 4.615 0 1 1-.004 9.23 4.615 4.615 0 0 1 .004-9.23zm212.923-73.962a4.977 4.977 0 0 0-4.969 4.969 4.978 4.978 0 0 0 4.969 4.97 4.974 4.974 0 0 0 4.967-4.97 4.973 4.973 0 0 0-4.967-4.969zm0 10.883a5.92 5.92 0 0 1-5.913-5.914 5.918 5.918 0 0 1 5.913-5.913 5.919 5.919 0 0 1 5.915 5.913 5.92 5.92 0 0 1-5.915 5.914zm0-11.357a5.442 5.442 0 0 1 0 10.884 5.44 5.44 0 0 1-5.437-5.441 5.44 5.44 0 0 1 5.437-5.443zm171.46-328.578a3.48 3.48 0 0 0-3.472 3.477 3.477 3.477 0 0 0 3.473 3.473 3.476 3.476 0 0 0 3.476-3.473 3.479 3.479 0 0 0-3.476-3.477zm0 7.894a4.42 4.42 0 0 1 0-8.839 4.428 4.428 0 0 1 4.425 4.422 4.425 4.425 0 0 1-4.424 4.417zm.002-8.364a3.948 3.948 0 1 1 0 7.897 3.948 3.948 0 0 1-3.944-3.95 3.945 3.945 0 0 1 3.944-3.947zm-403.446-409.062c-4.881 0-8.853 3.974-8.853 8.857 0 4.882 3.972 8.855 8.853 8.855 4.884 0 8.857-3.973 8.857-8.855 0-4.884-3.973-8.857-8.857-8.857zm0 18.658c-5.404 0-9.798-4.397-9.798-9.8 0-5.404 4.394-9.803 9.798-9.803s9.803 4.397 9.803 9.802c0 5.405-4.396 9.801-9.803 9.801zm.003-19.13c5.15 0 9.326 4.176 9.326 9.328a9.327 9.327 0 0 1-18.653 0 9.327 9.327 0 0 1 9.327-9.328zm-.638 123.272c-77.503 0-150.37 30.188-205.173 84.999-54.805 54.814-84.987 127.69-84.987 205.21 0 77.517 30.18 150.397 84.985 205.208 54.802 54.812 127.668 84.999 205.173 84.999 77.503 0 150.369-30.187 205.172-84.999 54.802-54.813 84.983-127.691 84.983-205.208 0-77.519-30.18-150.395-84.983-205.209-54.8-54.812-127.668-85-205.17-85zm0 582.305c-78.01 0-151.349-30.38-206.51-85.554-55.159-55.167-85.538-128.522-85.538-206.545 0-78.022 30.38-151.374 85.539-206.544 55.16-55.17 128.5-85.556 206.51-85.556 78.01 0 151.349 30.385 206.507 85.556 55.162 55.17 85.542 128.522 85.542 206.544 0 78.023-30.38 151.378-85.542 206.545-55.16 55.172-128.501 85.554-206.508 85.554zm269.619-292.075c0 27.605-4.118 54.56-12.05 80.191l-11.078-3.6c7.564-24.477 11.494-50.228 11.494-76.59 0-68.982-26.82-133.793-75.522-182.499a261.223 261.223 0 0 0-28.079-24.344l6.85-9.425a272.712 272.712 0 0 1 29.465 25.54c50.891 50.902 78.92 118.636 78.92 190.727zm-113.78-220.21l-6.853 9.426c-43.242-30.69-94.825-47.242-148.982-47.242s-105.747 16.552-148.989 47.242l-6.842-9.426c45.216-32.13 99.173-49.462 155.831-49.462 56.652 0 110.614 17.332 155.834 49.462zm-159.176 478.192v11.647c-70.826-.855-137.25-28.785-187.357-78.902-29.786-29.789-51.73-65.359-64.816-104.183l11.083-3.598c12.525 37.097 33.497 71.075 61.97 99.545 47.91 47.92 111.404 74.636 179.12 75.491z" opacity=".5"/>
    </g>
</svg>
